SplineFontDB: 3.0
FontName: Metrophobic
FullName: Metrophobic
FamilyName: Metrophobic
Weight: Book
Copyright: Copyright (c) 2011 by vernon adams. All rights reserved.
Version: 1.000
ItalicAngle: 0
UnderlinePosition: 0
UnderlineWidth: 0
Ascent: 1638
Descent: 410
sfntRevision: 0x00010000
LayerCount: 2
Layer: 0 1 "Back"  1
Layer: 1 1 "Fore"  0
XUID: [1021 759 1887733602 4732798]
FSType: 0
OS2Version: 2
OS2_WeightWidthSlopeOnly: 0
OS2_UseTypoMetrics: 1
CreationTime: 1304029860
ModificationTime: 1304550636
PfmFamily: 17
TTFWeight: 400
TTFWidth: 5
LineGap: 0
VLineGap: 0
Panose: 2 0 5 3 5 0 0 2 0 4
OS2TypoAscent: 427
OS2TypoAOffset: 1
OS2TypoDescent: -50
OS2TypoDOffset: 1
OS2TypoLinegap: 0
OS2WinAscent: 45
OS2WinAOffset: 1
OS2WinDescent: -85
OS2WinDOffset: 1
HheadAscent: 45
HheadAOffset: 1
HheadDescent: 85
HheadDOffset: 1
OS2SubXSize: 2664
OS2SubYSize: 2474
OS2SubXOff: 0
OS2SubYOff: 532
OS2SupXSize: 2664
OS2SupYSize: 2474
OS2SupXOff: 0
OS2SupYOff: 1817
OS2StrikeYSize: 190
OS2StrikeYPos: 952
OS2Vendor: 'newt'
OS2CodePages: 20000001.00000000
OS2UnicodeRanges: 800000ef.5000204b.00000000.00000000
Lookup: 258 0 0 "'kern' Horizontal Kerning in Latin lookup 0"  {"'kern' Horizontal Kerning in Latin lookup 0 per glyph data 0"  "'kern' Horizontal Kerning in Latin lookup 0 kerning class 1"  } ['kern' ('latn' <'dflt' > ) ]
MarkAttachClasses: 1
DEI: 91125
KernClass2: 67+ 59 "'kern' Horizontal Kerning in Latin lookup 0 kerning class 1" 
 5 Delta
 2 pi
 5 seven
 10 registered
 9 trademark
 12 questiondown
 10 exclamdown
 8 S Scaron
 18 Y Yacute Ydieresis
 5 Thorn
 8 Z Zcaron
 50 A Agrave Aacute Acircumflex Atilde Adieresis Aring
 1 B
 10 C Ccedilla
 5 D Eth
 43 E AE Egrave Eacute Ecircumflex Edieresis OE
 1 F
 1 G
 12 H M N Ntilde
 1 K
 8 L Lslash
 53 O Q Ograve Oacute Ocircumflex Otilde Odieresis Oslash
 1 P
 1 R
 1 T
 37 U Ugrave Uacute Ucircumflex Udieresis
 1 V
 1 W
 1 X
 37 I Igrave Iacute Icircumflex Idieresis
 1 J
 9 ampersand
 8 s scaron
 18 y yacute ydieresis
 5 thorn

StartChar: exclam
Encoding: 33 33 3
Width: 496
GlyphClass: 2
Flags: W
LayerCount: 2
Fore
SplineSet
207 335 m 1,0,1
 202 435 202 435 197 540.5 c 128,-1,2
 192 646 192 646 187 752.5 c 128,-1,3
 182 859 182 859 177 964.5 c 128,-1,4
 172 1070 172 1070 167 1171 c 1,5,-1
 167 1366 l 1,6,-1
 329 1366 l 1,7,-1
 329 1171 l 1,8,9
 325 1070 325 1070 320 964.5 c 128,-1,10
 315 859 315 859 309.5 752.5 c 128,-1,11
 304 646 304 646 299 540.5 c 128,-1,12
 294 435 294 435 290 335 c 1,13,-1
 207 335 l 1,0,1
143 221 m 1,14,-1
 354 221 l 1,15,-1
 354 0 l 1,16,-1
 143 0 l 1,17,-1
 143 221 l 1,14,-1
EndSplineSet
EndChar

StartChar: quotedbl
Encoding: 34 34 4
Width: 793
GlyphClass: 2
Flags: W
LayerCount: 2
Fore
SplineSet
661 1260 m 1,0,-1
 630 952 l 1,1,-1
 501 952 l 1,2,-1
 470 1260 l 1,3,-1
 468 1452 l 1,4,-1
 663 1452 l 1,5,-1
 661 1260 l 1,0,-1
321 1260 m 1,6,-1
 292 952 l 1,7,-1
 163 952 l 1,8,-1
 132 1260 l 1,9,-1
 128 1452 l 1,10,-1
 325 1452 l 1,11,-1
 321 1260 l 1,6,-1
EndSplineSet
EndChar

StartChar: numbersign
Encoding: 35 35 5
Width: 949
GlyphClass: 2
Flags: W
LayerCount: 2
Fore
SplineSet
154 1127 m 1,0,-1
 330 1127 l 1,1,-1
 382 1411 l 1,2,-1
 520 1411 l 1,3,-1
 468 1127 l 1,4,-1
 586 1127 l 1,5,-1
 638 1411 l 1,6,-1
 777 1411 l 1,7,-1
 725 1127 l 1,8,-1
 824 1127 l 1,9,-1
 824 996 l 1,10,-1
 703 996 l 1,11,-1
 653 698 l 1,12,-1
 807 698 l 1,13,-1
 807 566 l 1,14,-1
 632 566 l 1,15,-1
 582 287 l 1,16,-1
 443 287 l 1,17,-1
 495 566 l 1,18,-1
 375 566 l 1,19,-1
 325 287 l 1,20,-1
 185 287 l 1,21,-1
 236 566 l 1,22,-1
 130 566 l 1,23,-1
 137 698 l 1,24,-1
 258 698 l 1,25,-1
 307 996 l 1,26,-1
 148 996 l 1,27,-1
 154 1127 l 1,0,-1
436 996 m 1,28,-1
 381 698 l 1,29,-1
 526 698 l 1,30,-1
 581 996 l 1,31,-1
 436 996 l 1,28,-1
EndSplineSet
EndChar

StartChar: dollar
Encoding: 36 36 6
Width: 1088
GlyphClass: 2
Flags: W
LayerCount: 2
Fore
SplineSet
429 -156 m 1,0,-1
 444 7 l 1,1,2
 388 16 388 16 340.5 32.5 c 128,-1,3
 293 49 293 49 256 67 c 128,-1,4
 219 85 219 85 193.5 100.5 c 128,-1,5
 168 116 168 116 157 123 c 1,6,-1
 157 268 l 1,7,8
 166 260 166 260 193.5 243 c 128,-1,9
 221 226 221 226 261.5 206.5 c 128,-1,10
 302 187 302 187 352.5 169 c 128,-1,11
 403 151 403 151 457 141 c 1,12,-1
 505 647 l 1,13,-1
 346 702 l 1,14,15
 284 727 284 727 238.5 756 c 128,-1,16
 193 785 193 785 163 822.5 c 128,-1,17
 133 860 133 860 118.5 909 c 128,-1,18
 104 958 104 958 104 1024 c 0,19,20
 104 1120 104 1120 133 1185.5 c 128,-1,21
 162 1251 162 1251 216 1291.5 c 128,-1,22
 270 1332 270 1332 347 1350 c 128,-1,23
 424 1368 424 1368 521 1368 c 0,24,25
 535 1368 535 1368 547.5 1367.5 c 128,-1,26
 560 1367 560 1367 573 1366 c 1,27,-1
 590 1537 l 1,28,-1
 696 1537 l 1,29,-1
 678 1352 l 1,30,31
 726 1343 726 1343 766.5 1330 c 128,-1,32
 807 1317 807 1317 837.5 1304.5 c 128,-1,33
 868 1292 868 1292 889 1282 c 128,-1,34
 910 1272 910 1272 919 1268 c 1,35,-1
 919 1126 l 1,36,37
 911 1132 911 1132 888.5 1143.5 c 128,-1,38
 866 1155 866 1155 833 1168.5 c 128,-1,39
 800 1182 800 1182 757.5 1196 c 128,-1,40
 715 1210 715 1210 666 1220 c 1,41,-1
 620 745 l 1,42,-1
 738 705 l 2,43,44
 806 682 806 682 856 655.5 c 128,-1,45
 906 629 906 629 938.5 590 c 128,-1,46
 971 551 971 551 986.5 496.5 c 128,-1,47
 1002 442 1002 442 1002 363 c 0,48,49
 1002 279 1002 279 977 211.5 c 128,-1,50
 952 144 952 144 897.5 97 c 128,-1,51
 843 50 843 50 757 24.5 c 128,-1,52
 671 -1 671 -1 550 -1 c 1,53,-1
 535 -156 l 1,54,-1
 429 -156 l 1,0,-1
514 1236 m 0,55,56
 449 1236 449 1236 399.5 1226.5 c 128,-1,57
 350 1217 350 1217 317 1194 c 128,-1,58
 284 1171 284 1171 267 1131.5 c 128,-1,59
 250 1092 250 1092 250 1031 c 0,60,61
 250 981 250 981 260 947.5 c 128,-1,62
 270 914 270 914 293 890 c 128,-1,63
 316 866 316 866 353 847 c 128,-1,64
 390 828 390 828 444 806 c 1,65,-1
 518 780 l 1,66,-1
 561 1234 l 1,67,68
 549 1235 549 1235 537.5 1235.5 c 128,-1,69
 526 1236 526 1236 514 1236 c 0,55,56
854 361 m 0,70,71
 854 419 854 419 842 457 c 128,-1,72
 830 495 830 495 804 521 c 128,-1,73
 778 547 778 547 737 565.5 c 128,-1,74
 696 584 696 584 639 602 c 2,75,-1
 608 612 l 1,76,-1
 562 132 l 1,77,78
 644 133 644 133 700 150 c 128,-1,79
 756 167 756 167 790.5 197 c 128,-1,80
 825 227 825 227 839.5 268.5 c 128,-1,81
 854 310 854 310 854 361 c 0,70,71
EndSplineSet
EndChar

StartChar: percent
Encoding: 37 37 7
Width: 1524
GlyphClass: 2
Flags: W
LayerCount: 2
Fore
SplineSet
1171 698 m 0,0,1
 1239 698 1239 698 1291 673 c 128,-1,2
 1343 648 1343 648 1378.5 603.5 c 128,-1,3
 1414 559 1414 559 1432 498.5 c 128,-1,4
 1450 438 1450 438 1450 366 c 0,5,6
 1450 296 1450 296 1432 236 c 128,-1,7
 1414 176 1414 176 1378.5 132.5 c 128,-1,8
 1343 89 1343 89 1291 64 c 128,-1,9
 1239 39 1239 39 1171 39 c 0,10,11
 1100 39 1100 39 1047 63 c 128,-1,12
 994 87 994 87 959 131 c 128,-1,13
 924 175 924 175 906 235.5 c 128,-1,14
 888 296 888 296 888 370 c 0,15,16
 888 442 888 442 906 502 c 128,-1,17
 924 562 924 562 959.5 605.5 c 128,-1,18
 995 649 995 649 1048 673.5 c 128,-1,19
 1101 698 1101 698 1171 698 c 0,0,1
1170 595 m 0,20,21
 1125 595 1125 595 1096 575.5 c 128,-1,22
 1067 556 1067 556 1050 525 c 128,-1,23
 1033 494 1033 494 1026 455 c 128,-1,24
 1019 416 1019 416 1019 378 c 0,25,26
 1019 334 1019 334 1025.5 291.5 c 128,-1,27
 1032 249 1032 249 1049 215.5 c 128,-1,28
 1066 182 1066 182 1095 161.5 c 128,-1,29
 1124 141 1124 141 1169 141 c 0,30,31
 1213 141 1213 141 1242 161.5 c 128,-1,32
 1271 182 1271 182 1288 214.5 c 128,-1,33
 1305 247 1305 247 1311.5 287 c 128,-1,34
 1318 327 1318 327 1318 367 c 256,35,36
 1318 407 1318 407 1311.5 448 c 128,-1,37
 1305 489 1305 489 1288 521.5 c 128,-1,38
 1271 554 1271 554 1242.5 574.5 c 128,-1,39
 1214 595 1214 595 1170 595 c 0,20,21
354 1392 m 0,40,41
 423 1392 423 1392 475.5 1367.5 c 128,-1,42
 528 1343 528 1343 563.5 1299.5 c 128,-1,43
 599 1256 599 1256 616.5 1195.5 c 128,-1,44
 634 1135 634 1135 634 1063 c 256,45,46
 634 991 634 991 616.5 930.5 c 128,-1,47
 599 870 599 870 563.5 826 c 128,-1,48
 528 782 528 782 476 757.5 c 128,-1,49
 424 733 424 733 355 733 c 0,50,51
 285 733 285 733 232 757 c 128,-1,52
 179 781 179 781 143 824.5 c 128,-1,53
 107 868 107 868 89 928.5 c 128,-1,54
 71 989 71 989 71 1061 c 256,55,56
 71 1133 71 1133 89 1194 c 128,-1,57
 107 1255 107 1255 142.5 1299 c 128,-1,58
 178 1343 178 1343 231 1367.5 c 128,-1,59
 284 1392 284 1392 354 1392 c 0,40,41
354 1290 m 256,60,61
 310 1290 310 1290 281 1270 c 128,-1,62
 252 1250 252 1250 235 1218 c 128,-1,63
 218 1186 218 1186 211 1146.5 c 128,-1,64
 204 1107 204 1107 204 1069 c 0,65,66
 204 1025 204 1025 210.5 983 c 128,-1,67
 217 941 217 941 233.5 908 c 128,-1,68
 250 875 250 875 279.5 855 c 128,-1,69
 309 835 309 835 354 835 c 0,70,71
 397 835 397 835 425.5 855 c 128,-1,72
 454 875 454 875 471 907.5 c 128,-1,73
 488 940 488 940 494.5 980 c 128,-1,74
 501 1020 501 1020 501 1061 c 0,75,76
 501 1103 501 1103 494.5 1144 c 128,-1,77
 488 1185 488 1185 471.5 1217.5 c 128,-1,78
 455 1250 455 1250 426.5 1270 c 128,-1,79
 398 1290 398 1290 354 1290 c 256,60,61
986 1390 m 1,80,-1
 1092 1349 l 1,81,-1
 517 -70 l 1,82,-1
 410 -28 l 1,83,-1
 986 1390 l 1,80,-1
EndSplineSet
EndChar

StartChar: ampersand
Encoding: 38 38 8
Width: 1449
GlyphClass: 2
Flags: W
LayerCount: 2
Fore
SplineSet
487 765 m 1,0,1
 424 742 424 742 382 716.5 c 128,-1,2
 340 691 340 691 315 654 c 128,-1,3
 290 617 290 617 280 565 c 128,-1,4
 270 513 270 513 270 438 c 0,5,6
 270 349 270 349 279.5 286.5 c 128,-1,7
 289 224 289 224 324 188 c 0,8,9
 344 168 344 168 373 155.5 c 128,-1,10
 402 143 402 143 440.5 136 c 128,-1,11
 479 129 479 129 526 126.5 c 128,-1,12
 573 124 573 124 630 124 c 0,13,14
 716 124 716 124 771.5 128 c 128,-1,15
 827 132 827 132 860 137 c 0,16,17
 899 143 899 143 920 151 c 1,18,19
 939 163 939 163 957 181 c 1,20,21
 971 197 971 197 985.5 222.5 c 128,-1,22
 1000 248 1000 248 1006 285 c 1,23,-1
 487 765 l 1,0,1
933 1124 m 1,24,25
 917 1164 917 1164 902 1198 c 0,26,27
 889 1227 889 1227 874.5 1254.5 c 128,-1,28
 860 1282 860 1282 848 1293 c 1,29,30
 822 1314 822 1314 778 1322.5 c 128,-1,31
 734 1331 734 1331 669 1332 c 0,32,33
 612 1332 612 1332 567.5 1319 c 128,-1,34
 523 1306 523 1306 496 1268 c 0,35,36
 478 1244 478 1244 469 1209.5 c 128,-1,37
 460 1175 460 1175 460 1125 c 0,38,39
 460 1076 460 1076 480 1020 c 128,-1,40
 500 964 500 964 554 911 c 2,41,-1
 1052 429 l 1,42,43
 1065 496 1065 496 1069.5 553 c 128,-1,44
 1074 610 1074 610 1079 653 c 1,45,-1
 1212 622 l 1,46,47
 1209 584 1209 584 1205 544.5 c 128,-1,48
 1201 505 1201 505 1196 467 c 128,-1,49
 1191 429 1191 429 1184.5 393.5 c 128,-1,50
 1178 358 1178 358 1170 330 c 1,51,-1
 1422 113 l 1,52,-1
 1337 3 l 1,53,54
 1330 11 1330 11 1305 34 c 0,55,56
 1283 53 1283 53 1240 89.5 c 128,-1,57
 1197 126 1197 126 1121 188 c 1,58,59
 1110 146 1110 146 1088.5 116 c 128,-1,60
 1067 86 1067 86 1046 66 c 0,61,62
 1021 43 1021 43 993 29 c 0,63,64
 964 15 964 15 913 4 c 0,65,66
 869 -6 869 -6 797.5 -13.5 c 128,-1,67
 726 -21 726 -21 620 -21 c 0,68,69
 548 -21 548 -21 482.5 -16.5 c 128,-1,70
 417 -12 417 -12 360.5 0 c 128,-1,71
 304 12 304 12 257.5 34 c 128,-1,72
 211 56 211 56 177 92 c 0,73,74
 129 143 129 143 108.5 223.5 c 128,-1,75
 88 304 88 304 88 416 c 0,76,77
 88 527 88 527 114.5 600 c 128,-1,78
 141 673 141 673 185 722.5 c 128,-1,79
 229 772 229 772 287.5 804.5 c 128,-1,80
 346 837 346 837 410 865 c 1,81,82
 378 901 378 901 355 932 c 128,-1,83
 332 963 332 963 317 993.5 c 128,-1,84
 302 1024 302 1024 295 1057 c 128,-1,85
 288 1090 288 1090 288 1131 c 0,86,87
 288 1299 288 1299 381 1385 c 0,88,89
 475 1472 475 1472 667 1472 c 0,90,91
 764 1472 764 1472 836 1459 c 128,-1,92
 908 1446 908 1446 954 1404 c 1,93,94
 976 1387 976 1387 996 1350.5 c 128,-1,95
 1016 1314 1016 1314 1032 1277 c 0,96,97
 1050 1233 1050 1233 1066 1184 c 1,98,-1
 933 1124 l 1,24,25
EndSplineSet
EndChar

StartChar: quotesingle
Encoding: 39 39 9
Width: 455
GlyphClass: 2
Flags: W
LayerCount: 2
Fore
SplineSet
323 1260 m 1,0,-1
 292 952 l 1,1,-1
 163 952 l 1,2,-1
 132 1260 l 1,3,-1
 130 1452 l 1,4,-1
 325 1452 l 1,5,-1
 323 1260 l 1,0,-1
EndSplineSet
EndChar

StartChar: parenleft
Encoding: 40 40 10
Width: 586
GlyphClass: 2
Flags: W
LayerCount: 2
Fore
SplineSet
91 638 m 256,0,1
 91 695 91 695 96.5 759 c 128,-1,2
 102 823 102 823 113.5 889 c 128,-1,3
 125 955 125 955 143.5 1022 c 128,-1,4
 162 1089 162 1089 188 1153 c 0,5,6
 234 1265 234 1265 308 1360 c 128,-1,7
 382 1455 382 1455 484 1540 c 1,8,-1
 523 1424 l 1,9,10
 434 1321 434 1321 381 1214 c 128,-1,11
 328 1107 328 1107 300 1004.5 c 128,-1,12
 272 902 272 902 263.5 808.5 c 128,-1,13
 255 715 255 715 255 638 c 256,14,15
 255 561 255 561 263.5 467.5 c 128,-1,16
 272 374 272 374 300 271.5 c 128,-1,17
 328 169 328 169 381 62 c 128,-1,18
 434 -45 434 -45 523 -148 c 1,19,-1
 484 -264 l 1,20,21
 382 -179 382 -179 308 -84 c 128,-1,22
 234 11 234 11 188 123 c 0,23,24
 162 187 162 187 143.5 254 c 128,-1,25
 125 321 125 321 113.5 387 c 128,-1,26
 102 453 102 453 96.5 517 c 128,-1,27
 91 581 91 581 91 638 c 256,0,1
EndSplineSet
EndChar

StartChar: parenright
Encoding: 41 41 11
Width: 584
GlyphClass: 2
Flags: W
LayerCount: 2
Fore
SplineSet
330 635 m 0,0,1
 330 711 330 711 321.5 804 c 128,-1,2
 313 897 313 897 285 998 c 128,-1,3
 257 1099 257 1099 204 1204.5 c 128,-1,4
 151 1310 151 1310 62 1413 c 1,5,-1
 100 1530 l 1,6,7
 202 1445 202 1445 276 1349.5 c 128,-1,8
 350 1254 350 1254 396 1142 c 0,9,10
 449 1014 449 1014 471 882.5 c 128,-1,11
 493 751 493 751 493 635 c 256,12,13
 493 519 493 519 471 387.5 c 128,-1,14
 449 256 449 256 396 128 c 0,15,16
 350 16 350 16 276 -79.5 c 128,-1,17
 202 -175 202 -175 100 -260 c 1,18,-1
 62 -143 l 1,19,20
 151 -40 151 -40 204 65.5 c 128,-1,21
 257 171 257 171 285 272 c 128,-1,22
 313 373 313 373 321.5 465.5 c 128,-1,23
 330 558 330 558 330 635 c 0,0,1
EndSplineSet
EndChar

StartChar: asterisk
Encoding: 42 42 12
Width: 982
GlyphClass: 2
Flags: W
LayerCount: 2
Fore
SplineSet
797 825 m 1,0,-1
 539 997 l 1,1,-1
 561 701 l 1,2,-1
 428 701 l 1,3,-1
 449 997 l 1,4,-1
 186 825 l 1,5,-1
 122 937 l 1,6,-1
 418 1076 l 1,7,-1
 121 1204 l 1,8,-1
 186 1323 l 1,9,-1
 449 1151 l 1,10,-1
 428 1447 l 1,11,-1
 561 1447 l 1,12,-1
 539 1151 l 1,13,-1
 797 1323 l 1,14,-1
 862 1203 l 1,15,-1
 575 1076 l 1,16,-1
 862 945 l 1,17,-1
 797 825 l 1,0,-1
EndSplineSet
EndChar

StartChar: plus
Encoding: 43 43 13
Width: 942
GlyphClass: 2
Flags: W
LayerCount: 2
Fore
SplineSet
548 562 m 1,0,-1
 548 283 l 1,1,-1
 401 283 l 1,2,-1
 401 562 l 1,3,-1
 109 562 l 1,4,-1
 109 684 l 1,5,-1
 401 684 l 1,6,-1
 401 961 l 1,7,-1
 548 961 l 1,8,-1
 548 684 l 1,9,-1
 834 684 l 1,10,-1
 834 562 l 1,11,-1
 548 562 l 1,0,-1
EndSplineSet
EndChar

StartChar: comma
Encoding: 44 44 14
Width: 474
GlyphClass: 2
Flags: W
LayerCount: 2
Fore
SplineSet
148 185 m 1,0,-1
 328 185 l 1,1,-1
 328 -6 l 2,2,3
 328 -52 328 -52 311.5 -90 c 128,-1,4
 295 -128 295 -128 272 -157 c 128,-1,5
 249 -186 249 -186 224.5 -205.5 c 128,-1,6
 200 -225 200 -225 185 -235 c 1,7,-1
 142 -174 l 1,8,9
 152 -162 152 -162 166.5 -145 c 128,-1,10
 181 -128 181 -128 194.5 -107 c 128,-1,11
 208 -86 208 -86 217.5 -62 c 128,-1,12
 227 -38 227 -38 227 -11 c 1,13,-1
 148 -11 l 1,14,-1
 148 185 l 1,0,-1
EndSplineSet
EndChar

StartChar: hyphen
Encoding: 45 45 15
Width: 841
GlyphClass: 2
Flags: W
LayerCount: 2
Fore
SplineSet
141 605 m 1,0,-1
 700 605 l 1,1,-1
 700 474 l 1,2,-1
 141 474 l 1,3,-1
 141 605 l 1,0,-1
EndSplineSet
EndChar

StartChar: period
Encoding: 46 46 16
Width: 494
GlyphClass: 2
Flags: W
LayerCount: 2
Fore
SplineSet
141 221 m 1,0,-1
 352 221 l 1,1,-1
 352 0 l 1,2,-1
 141 0 l 1,3,-1
 141 221 l 1,0,-1
EndSplineSet
EndChar

StartChar: slash
Encoding: 47 47 17
Width: 711
GlyphClass: 2
Flags: W
LayerCount: 2
Fore
SplineSet
491 1614 m 1,0,-1
 616 1591 l 1,1,-1
 218 -177 l 1,2,-1
 95 -153 l 1,3,-1
 491 1614 l 1,0,-1
EndSplineSet
EndChar

StartChar: zero
Encoding: 48 48 18
Width: 1207
GlyphClass: 2
Flags: W
LayerCount: 2
Fore
SplineSet
607 1203 m 0,0,1
 532 1203 532 1203 472 1180 c 128,-1,2
 412 1157 412 1157 378 1112 c 0,3,4
 350 1075 350 1075 333.5 1025.5 c 128,-1,5
 317 976 317 976 308 917.5 c 128,-1,6
 299 859 299 859 296.5 794 c 128,-1,7
 294 729 294 729 294 661 c 0,8,9
 294 590 294 590 296.5 523.5 c 128,-1,10
 299 457 299 457 308 397 c 128,-1,11
 317 337 317 337 334 286.5 c 128,-1,12
 351 236 351 236 380 199 c 1,13,14
 413 155 413 155 471.5 133 c 128,-1,15
 530 111 530 111 603 111 c 0,16,17
 677 111 677 111 735.5 133 c 128,-1,18
 794 155 794 155 828 200 c 0,19,20
 856 237 856 237 873 288 c 128,-1,21
 890 339 890 339 899 400 c 128,-1,22
 908 461 908 461 910.5 529.5 c 128,-1,23
 913 598 913 598 913 671 c 0,24,25
 913 737 913 737 910.5 800.5 c 128,-1,26
 908 864 908 864 900 920 c 128,-1,27
 892 976 892 976 876.5 1024.5 c 128,-1,28
 861 1073 861 1073 835 1109 c 0,29,30
 802 1155 802 1155 742.5 1179 c 128,-1,31
 683 1203 683 1203 607 1203 c 0,0,1
608 1334 m 0,32,33
 707 1334 707 1334 792 1304.5 c 128,-1,34
 877 1275 877 1275 934 1211 c 0,35,36
 1006 1129 1006 1129 1040.5 993 c 128,-1,37
 1075 857 1075 857 1075 666 c 0,38,39
 1075 458 1075 458 1038 319.5 c 128,-1,40
 1001 181 1001 181 930 101 c 1,41,42
 870 35 870 35 784.5 7 c 128,-1,43
 699 -21 699 -21 605 -21 c 0,44,45
 509 -21 509 -21 423 7 c 128,-1,46
 337 35 337 35 279 100 c 0,47,48
 206 181 206 181 169 321 c 128,-1,49
 132 461 132 461 132 665 c 0,50,51
 132 749 132 749 139 827.5 c 128,-1,52
 146 906 146 906 162.5 976.5 c 128,-1,53
 179 1047 179 1047 206.5 1106.5 c 128,-1,54
 234 1166 234 1166 275 1212 c 0,55,56
 329 1272 329 1272 414.5 1303 c 128,-1,57
 500 1334 500 1334 608 1334 c 0,32,33
EndSplineSet
EndChar

StartChar: one
Encoding: 49 49 19
Width: 670
GlyphClass: 2
Flags: W
LayerCount: 2
Fore
SplineSet
48 1100 m 1,0,1
 72 1113 72 1113 100 1130.5 c 128,-1,2
 128 1148 128 1148 164 1174 c 128,-1,3
 200 1200 200 1200 246 1238 c 128,-1,4
 292 1276 292 1276 353 1331 c 1,5,-1
 479 1307 l 1,6,-1
 479 0 l 1,7,-1
 328 0 l 1,8,-1
 328 1133 l 1,9,10
 289 1105 289 1105 259 1084 c 128,-1,11
 229 1063 229 1063 202 1045 c 128,-1,12
 175 1027 175 1027 147.5 1010.5 c 128,-1,13
 120 994 120 994 87 976 c 1,14,-1
 48 1100 l 1,0,1
EndSplineSet
EndChar

StartChar: two
Encoding: 50 50 20
Width: 1065
GlyphClass: 2
Flags: W
LayerCount: 2
Fore
SplineSet
133 986 m 1,0,1
 123 1053 123 1053 146.5 1118.5 c 128,-1,2
 170 1184 170 1184 226 1233 c 0,3,4
 280 1281 280 1281 360.5 1306.5 c 128,-1,5
 441 1332 441 1332 540 1332 c 0,6,7
 642 1332 642 1332 723 1299 c 128,-1,8
 804 1266 804 1266 853 1208 c 0,9,10
 896 1157 896 1157 914.5 1092.5 c 128,-1,11
 933 1028 933 1028 933 953 c 0,12,13
 933 862 933 862 902 795.5 c 128,-1,14
 871 729 871 729 820.5 677 c 128,-1,15
 770 625 770 625 706.5 582.5 c 128,-1,16
 643 540 643 540 577 498 c 1,17,18
 509 453 509 453 457.5 413.5 c 128,-1,19
 406 374 406 374 368.5 333.5 c 128,-1,20
 331 293 331 293 306 247 c 128,-1,21
 281 201 281 201 265 143 c 1,22,-1
 944 143 l 1,23,-1
 944 0 l 1,24,-1
 100 0 l 1,25,26
 112 125 112 125 145.5 214 c 128,-1,27
 179 303 179 303 229 370.5 c 128,-1,28
 279 438 279 438 343.5 491 c 128,-1,29
 408 544 408 544 482 596 c 0,30,31
 543 639 543 639 595.5 676 c 128,-1,32
 648 713 648 713 687 752 c 128,-1,33
 726 791 726 791 748 837.5 c 128,-1,34
 770 884 770 884 770 947 c 0,35,36
 770 1003 770 1003 761 1048.5 c 128,-1,37
 752 1094 752 1094 726 1126 c 0,38,39
 698 1161 698 1161 648.5 1180 c 128,-1,40
 599 1199 599 1199 535 1199 c 0,41,42
 475 1199 475 1199 417 1185 c 128,-1,43
 359 1171 359 1171 317 1139 c 1,44,45
 277 1107 277 1107 258 1058.5 c 128,-1,46
 239 1010 239 1010 244 949 c 1,47,-1
 133 986 l 1,0,1
EndSplineSet
EndChar

StartChar: three
Encoding: 51 51 21
Width: 1102
GlyphClass: 2
Flags: W
LayerCount: 2
Fore
SplineSet
126 1070 m 1,0,1
 137 1132 137 1132 173 1181.5 c 128,-1,2
 209 1231 209 1231 259 1263 c 0,3,4
 290 1283 290 1283 325.5 1296.5 c 128,-1,5
 361 1310 361 1310 397.5 1318.5 c 128,-1,6
 434 1327 434 1327 470.5 1330.5 c 128,-1,7
 507 1334 507 1334 541 1334 c 0,8,9
 621 1334 621 1334 695 1313 c 128,-1,10
 769 1292 769 1292 823 1254 c 0,11,12
 887 1208 887 1208 917.5 1139 c 128,-1,13
 948 1070 948 1070 948 982 c 0,14,15
 948 913 948 913 923 862 c 128,-1,16
 898 811 898 811 860 776 c 128,-1,17
 822 741 822 741 777.5 720.5 c 128,-1,18
 733 700 733 700 694 692 c 1,19,20
 744 683 744 683 794 659.5 c 128,-1,21
 844 636 844 636 883.5 597 c 128,-1,22
 923 558 923 558 948 504 c 128,-1,23
 973 450 973 450 973 380 c 0,24,25
 973 280 973 280 938.5 198.5 c 128,-1,26
 904 117 904 117 832 64 c 0,27,28
 772 20 772 20 687.5 -1 c 128,-1,29
 603 -22 603 -22 503 -22 c 0,30,31
 461 -22 461 -22 418 -16.5 c 128,-1,32
 375 -11 375 -11 334.5 0.5 c 128,-1,33
 294 12 294 12 257 30.5 c 128,-1,34
 220 49 220 49 191 75 c 0,35,36
 151 110 151 110 130 161.5 c 128,-1,37
 109 213 109 213 112 275 c 1,38,-1
 237 322 l 1,39,40
 237 271 237 271 252 230 c 128,-1,41
 267 189 267 189 295 163 c 0,42,43
 333 128 333 128 388 116.5 c 128,-1,44
 443 105 443 105 505 105 c 0,45,46
 582 105 582 105 640 123 c 128,-1,47
 698 141 698 141 731 182 c 0,48,49
 760 217 760 217 769.5 267 c 128,-1,50
 779 317 779 317 779 377 c 0,51,52
 779 438 779 438 763 480.5 c 128,-1,53
 747 523 747 523 719 551 c 128,-1,54
 691 579 691 579 651.5 595 c 128,-1,55
 612 611 612 611 566 619 c 128,-1,56
 520 627 520 627 468 629 c 128,-1,57
 416 631 416 631 362 631 c 1,58,-1
 362 757 l 1,59,-1
 476 757 l 2,60,61
 533 757 533 757 584.5 768 c 128,-1,62
 636 779 636 779 675 804.5 c 128,-1,63
 714 830 714 830 737 871.5 c 128,-1,64
 760 913 760 913 760 975 c 256,65,66
 760 1037 760 1037 746 1082 c 128,-1,67
 732 1127 732 1127 700 1156 c 0,68,69
 672 1181 672 1181 631 1193 c 128,-1,70
 590 1205 590 1205 543 1205 c 0,71,72
 481 1205 481 1205 427.5 1195 c 128,-1,73
 374 1185 374 1185 333 1156 c 0,74,75
 302 1135 302 1135 280 1102 c 128,-1,76
 258 1069 258 1069 247 1031 c 1,77,-1
 126 1070 l 1,0,1
EndSplineSet
EndChar

StartChar: four
Encoding: 52 52 22
Width: 1037
GlyphClass: 2
Flags: W
LayerCount: 2
Fore
SplineSet
623 1114 m 1,0,-1
 188 405 l 1,1,-1
 623 405 l 1,2,-1
 623 1114 l 1,0,-1
597 1310 m 1,3,-1
 775 1290 l 1,4,-1
 775 407 l 1,5,-1
 959 407 l 1,6,-1
 959 279 l 1,7,-1
 775 279 l 1,8,-1
 775 -1 l 1,9,-1
 623 -1 l 1,10,-1
 623 279 l 1,11,-1
 74 279 l 1,12,-1
 60 446 l 1,13,-1
 597 1310 l 1,3,-1
EndSplineSet
EndChar

StartChar: five
Encoding: 53 53 23
Width: 1098
GlyphClass: 2
Flags: W
LayerCount: 2
Fore
SplineSet
146 625 m 1,0,1
 150 674 150 674 154.5 736.5 c 128,-1,2
 159 799 159 799 164 867 c 128,-1,3
 169 935 169 935 173.5 1003 c 128,-1,4
 178 1071 178 1071 182 1130.5 c 128,-1,5
 186 1190 186 1190 189 1235.5 c 128,-1,6
 192 1281 192 1281 194 1304 c 1,7,-1
 884 1304 l 1,8,-1
 884 1161 l 1,9,-1
 318 1161 l 1,10,-1
 287 751 l 1,11,12
 303 764 303 764 331.5 779.5 c 128,-1,13
 360 795 360 795 396.5 808.5 c 128,-1,14
 433 822 433 822 477 831.5 c 128,-1,15
 521 841 521 841 568 841 c 0,16,17
 664 841 664 841 743 817.5 c 128,-1,18
 822 794 822 794 877 744 c 0,19,20
 991 640 991 640 991 420 c 0,21,22
 991 195 991 195 863 81 c 0,23,24
 801 26 801 26 715.5 0.5 c 128,-1,25
 630 -25 630 -25 534 -25 c 0,26,27
 434 -25 434 -25 356.5 -2.5 c 128,-1,28
 279 20 279 20 226 58 c 0,29,30
 183 89 183 89 158 127 c 128,-1,31
 133 165 133 165 121 200 c 1,32,-1
 217 287 l 1,33,34
 222 276 222 276 230.5 259.5 c 128,-1,35
 239 243 239 243 252.5 225 c 128,-1,36
 266 207 266 207 285 188.5 c 128,-1,37
 304 170 304 170 330 154 c 0,38,39
 366 132 366 132 417.5 119.5 c 128,-1,40
 469 107 469 107 532 107 c 0,41,42
 600 107 600 107 658.5 123.5 c 128,-1,43
 717 140 717 140 757 178 c 0,44,45
 796 216 796 216 814 274.5 c 128,-1,46
 832 333 832 333 832 412 c 0,47,48
 832 492 832 492 817 550 c 128,-1,49
 802 608 802 608 764 645 c 0,50,51
 729 680 729 680 673.5 696 c 128,-1,52
 618 712 618 712 546 712 c 0,53,54
 497 712 497 712 454 700.5 c 128,-1,55
 411 689 411 689 376 671 c 128,-1,56
 341 653 341 653 316 631 c 128,-1,57
 291 609 291 609 278 588 c 1,58,-1
 146 625 l 1,0,1
EndSplineSet
EndChar

StartChar: six
Encoding: 54 54 24
Width: 1144
GlyphClass: 2
Flags: W
LayerCount: 2
Fore
SplineSet
972 1226 m 1,0,-1
 902 1114 l 1,1,2
 870 1142 870 1142 829 1164 c 0,3,4
 794 1183 794 1183 742.5 1198.5 c 128,-1,5
 691 1214 691 1214 625 1214 c 0,6,7
 565 1214 565 1214 522.5 1198.5 c 128,-1,8
 480 1183 480 1183 451 1165 c 1,9,10
 418 1143 418 1143 395 1116 c 1,11,12
 369 1080 369 1080 348 1025 c 0,13,14
 330 977 330 977 315 902.5 c 128,-1,15
 300 828 300 828 300 721 c 1,16,17
 367 797 367 797 454.5 833 c 128,-1,18
 542 869 542 869 633 869 c 0,19,20
 701 869 701 869 749.5 858 c 128,-1,21
 798 847 798 847 829 834 c 0,22,23
 865 818 865 818 889 799 c 0,24,25
 931 765 931 765 964 713 c 0,26,27
 992 668 992 668 1015.5 598 c 128,-1,28
 1039 528 1039 528 1039 428 c 0,29,30
 1039 350 1039 350 1021 288.5 c 128,-1,31
 1003 227 1003 227 982 184 c 0,32,33
 957 134 957 134 926 95 c 1,34,35
 895 59 895 59 847 31 c 0,36,37
 806 7 806 7 742.5 -12.5 c 128,-1,38
 679 -32 679 -32 590 -32 c 0,39,40
 516 -32 516 -32 461 -17.5 c 128,-1,41
 406 -3 406 -3 369 14 c 0,42,43
 326 34 326 34 296 61 c 0,44,45
 249 102 249 102 212 175 c 0,46,47
 196 206 196 206 181 247 c 128,-1,48
 166 288 166 288 154.5 340.5 c 128,-1,49
 143 393 143 393 136 457.5 c 128,-1,50
 129 522 129 522 129 599 c 0,51,52
 129 687 129 687 135.5 761 c 128,-1,53
 142 835 142 835 153.5 895.5 c 128,-1,54
 165 956 165 956 179 1004 c 128,-1,55
 193 1052 193 1052 208 1088 c 0,56,57
 243 1173 243 1173 288 1224 c 1,58,59
 325 1260 325 1260 375 1289 c 0,60,61
 417 1313 417 1313 478.5 1333.5 c 128,-1,62
 540 1354 540 1354 619 1354 c 0,63,64
 683 1354 683 1354 735.5 1341 c 128,-1,65
 788 1328 788 1328 830.5 1308.5 c 128,-1,66
 873 1289 873 1289 908 1266.5 c 128,-1,67
 943 1244 943 1244 972 1226 c 1,0,-1
592 99 m 0,68,69
 658 99 658 99 702.5 113.5 c 128,-1,70
 747 128 747 128 774 146 c 0,71,72
 806 166 806 166 825 193 c 1,73,74
 839 208 839 208 850 239 c 0,75,76
 859 265 859 265 867 310 c 128,-1,77
 875 355 875 355 875 427 c 256,78,79
 875 499 875 499 863 547 c 128,-1,80
 851 595 851 595 837 624 c 0,81,82
 820 657 820 657 799 676 c 0,83,84
 780 693 780 693 753 707 c 0,85,86
 730 718 730 718 695 728 c 128,-1,87
 660 738 660 738 612 738 c 0,88,89
 561 738 561 738 513 722 c 128,-1,90
 465 706 465 706 424 676.5 c 128,-1,91
 383 647 383 647 351 605 c 128,-1,92
 319 563 319 563 301 511 c 1,93,94
 301 406 301 406 315.5 338.5 c 128,-1,95
 330 271 330 271 347 231 c 0,96,97
 367 184 367 184 394 161 c 1,98,99
 412 143 412 143 440 130 c 0,100,101
 464 118 464 118 501 108.5 c 128,-1,102
 538 99 538 99 592 99 c 0,68,69
EndSplineSet
EndChar

StartChar: seven
Encoding: 55 55 25
Width: 894
GlyphClass: 2
Flags: W
LayerCount: 2
Fore
SplineSet
73 1307 m 1,0,-1
 833 1307 l 1,1,-1
 838 1173 l 1,2,3
 740 1004 740 1004 665.5 838 c 128,-1,4
 591 672 591 672 539.5 520.5 c 128,-1,5
 488 369 488 369 460 238 c 128,-1,6
 432 107 432 107 427 7 c 1,7,-1
 261 7 l 1,8,9
 268 101 268 101 290 202 c 128,-1,10
 312 303 312 303 344.5 406 c 128,-1,11
 377 509 377 509 418 611.5 c 128,-1,12
 459 714 459 714 503.5 812 c 128,-1,13
 548 910 548 910 594.5 1000.5 c 128,-1,14
 641 1091 641 1091 685 1170 c 1,15,-1
 73 1170 l 1,16,-1
 73 1307 l 1,0,-1
EndSplineSet
EndChar

StartChar: eight
Encoding: 56 56 26
Width: 1137
GlyphClass: 2
Flags: W
LayerCount: 2
Fore
SplineSet
695 709 m 1,0,1
 1016 596 1016 596 1016 336 c 0,2,3
 1016 142 1016 142 884 50 c 0,4,5
 824 8 824 8 739.5 -12.5 c 128,-1,6
 655 -33 655 -33 557 -33 c 0,7,8
 464 -33 464 -33 382 -12.5 c 128,-1,9
 300 8 300 8 243 50 c 0,10,11
 179 97 179 97 149.5 167.5 c 128,-1,12
 120 238 120 238 120 335 c 0,13,14
 120 460 120 460 202 553 c 128,-1,15
 284 646 284 646 442 703 c 1,16,17
 389 730 389 730 340.5 762.5 c 128,-1,18
 292 795 292 795 255 835 c 128,-1,19
 218 875 218 875 195.5 924 c 128,-1,20
 173 973 173 973 173 1035 c 0,21,22
 173 1116 173 1116 200 1179.5 c 128,-1,23
 227 1243 227 1243 287 1284 c 0,24,25
 338 1319 338 1319 412 1334.5 c 128,-1,26
 486 1350 486 1350 575 1350 c 0,27,28
 660 1350 660 1350 733 1334 c 128,-1,29
 806 1318 806 1318 856 1283 c 0,30,31
 915 1242 915 1242 940.5 1180.5 c 128,-1,32
 966 1119 966 1119 966 1041 c 0,33,34
 966 979 966 979 943 930 c 128,-1,35
 920 881 920 881 881.5 841 c 128,-1,36
 843 801 843 801 794.5 768.5 c 128,-1,37
 746 736 746 736 695 709 c 1,0,1
567 635 m 1,38,39
 510 614 510 614 458.5 587.5 c 128,-1,40
 407 561 407 561 367.5 525.5 c 128,-1,41
 328 490 328 490 305 445 c 128,-1,42
 282 400 282 400 282 343 c 0,43,44
 282 274 282 274 297 227.5 c 128,-1,45
 312 181 312 181 350 152 c 0,46,47
 388 122 388 122 446 109 c 128,-1,48
 504 96 504 96 567 96 c 256,49,50
 630 96 630 96 687 109.5 c 128,-1,51
 744 123 744 123 782 154 c 0,52,53
 820 184 820 184 837 231 c 128,-1,54
 854 278 854 278 854 345 c 0,55,56
 854 404 854 404 831.5 449 c 128,-1,57
 809 494 809 494 770 528.5 c 128,-1,58
 731 563 731 563 678.5 589 c 128,-1,59
 626 615 626 615 567 635 c 1,38,39
570 1229 m 0,60,61
 514 1229 514 1229 464 1219 c 128,-1,62
 414 1209 414 1209 382 1183 c 0,63,64
 350 1158 350 1158 337 1119.5 c 128,-1,65
 324 1081 324 1081 324 1030 c 0,66,67
 324 983 324 983 341.5 945 c 128,-1,68
 359 907 359 907 391 876.5 c 128,-1,69
 423 846 423 846 468 822 c 128,-1,70
 513 798 513 798 569 777 c 1,71,72
 625 798 625 798 670 823 c 128,-1,73
 715 848 715 848 747 878.5 c 128,-1,74
 779 909 779 909 796.5 946.5 c 128,-1,75
 814 984 814 984 814 1032 c 0,76,77
 814 1083 814 1083 801 1121.5 c 128,-1,78
 788 1160 788 1160 756 1185 c 256,79,80
 724 1210 724 1210 674 1219.5 c 128,-1,81
 624 1229 624 1229 570 1229 c 0,60,61
EndSplineSet
EndChar

StartChar: nine
Encoding: 57 57 27
Width: 1146
GlyphClass: 2
Flags: W
LayerCount: 2
Fore
SplineSet
172 96 m 1,0,-1
 242 208 l 1,1,2
 274 180 274 180 315 158 c 0,3,4
 350 139 350 139 401.5 123.5 c 128,-1,5
 453 108 453 108 519 108 c 0,6,7
 579 108 579 108 622.5 122.5 c 128,-1,8
 666 137 666 137 695 154 c 0,9,10
 729 174 729 174 753 200 c 1,11,12
 778 230 778 230 798 285 c 0,13,14
 815 332 815 332 829.5 408 c 128,-1,15
 844 484 844 484 844 601 c 1,16,17
 777 525 777 525 689.5 489 c 128,-1,18
 602 453 602 453 511 453 c 0,19,20
 448 453 448 453 401.5 463.5 c 128,-1,21
 355 474 355 474 324 487 c 0,22,23
 288 502 288 502 262 522 c 0,24,25
 217 555 217 555 183 608 c 0,26,27
 168 630 168 630 154 659 c 128,-1,28
 140 688 140 688 129 723.5 c 128,-1,29
 118 759 118 759 111.5 801.5 c 128,-1,30
 105 844 105 844 105 894 c 0,31,32
 105 979 105 979 122 1040 c 128,-1,33
 139 1101 139 1101 159 1143 c 0,34,35
 183 1191 183 1191 214 1225 c 0,36,37
 247 1261 247 1261 296 1289 c 0,38,39
 338 1313 338 1313 402 1333.5 c 128,-1,40
 466 1354 466 1354 554 1354 c 0,41,42
 630 1354 630 1354 686 1339 c 128,-1,43
 742 1324 742 1324 780 1307 c 0,44,45
 824 1287 824 1287 854 1261 c 1,46,47
 899 1226 899 1226 934 1156 c 0,48,49
 949 1126 949 1126 963.5 1085.5 c 128,-1,50
 978 1045 978 1045 989.5 991.5 c 128,-1,51
 1001 938 1001 938 1008 871.5 c 128,-1,52
 1015 805 1015 805 1015 723 c 0,53,54
 1015 628 1015 628 1008.5 550.5 c 128,-1,55
 1002 473 1002 473 991 411 c 128,-1,56
 980 349 980 349 966 301.5 c 128,-1,57
 952 254 952 254 937 218 c 0,58,59
 903 134 903 134 860 92 c 1,60,61
 821 57 821 57 771 30 c 0,62,63
 727 7 727 7 665.5 -12.5 c 128,-1,64
 604 -32 604 -32 525 -32 c 0,65,66
 461 -32 461 -32 408.5 -19 c 128,-1,67
 356 -6 356 -6 313.5 13.5 c 128,-1,68
 271 33 271 33 236 55.5 c 128,-1,69
 201 78 201 78 172 96 c 1,0,-1
552 1223 m 0,70,71
 486 1223 486 1223 441.5 1206.5 c 128,-1,72
 397 1190 397 1190 370 1170 c 0,73,74
 338 1147 338 1147 320 1118 c 1,75,76
 305 1102 305 1102 294 1072 c 0,77,78
 284 1046 284 1046 276.5 1003.5 c 128,-1,79
 269 961 269 961 269 895 c 0,80,81
 269 825 269 825 280.5 778 c 128,-1,82
 292 731 292 731 306 702 c 0,83,84
 323 668 323 668 344 648 c 0,85,86
 364 630 364 630 391 616 c 0,87,88
 414 604 414 604 449 594 c 128,-1,89
 484 584 484 584 532 584 c 0,90,91
 583 584 583 584 631 600 c 128,-1,92
 679 616 679 616 720 645.5 c 128,-1,93
 761 675 761 675 793 717 c 128,-1,94
 825 759 825 759 843 811 c 1,95,96
 843 921 843 921 829.5 989.5 c 128,-1,97
 816 1058 816 1058 799 1096 c 0,98,99
 780 1141 780 1141 756 1161 c 0,100,101
 737 1178 737 1178 708 1192 c 0,102,103
 683 1203 683 1203 644.5 1213 c 128,-1,104
 606 1223 606 1223 552 1223 c 0,70,71
EndSplineSet
EndChar

StartChar: colon
Encoding: 58 58 28
Width: 494
GlyphClass: 2
Flags: W
LayerCount: 2
Fore
SplineSet
142 463 m 1,0,-1
 353 463 l 1,1,-1
 353 242 l 1,2,-1
 142 242 l 1,3,-1
 142 463 l 1,0,-1
142 932 m 1,4,-1
 353 932 l 1,5,-1
 353 711 l 1,6,-1
 142 711 l 1,7,-1
 142 932 l 1,4,-1
EndSplineSet
EndChar

StartChar: semicolon
Encoding: 59 59 29
Width: 494
GlyphClass: 2
Flags: W
LayerCount: 2
Fore
SplineSet
141 932 m 1,0,-1
 352 932 l 1,1,-1
 352 711 l 1,2,-1
 141 711 l 1,3,-1
 141 932 l 1,0,-1
162 464 m 1,4,-1
 342 464 l 1,5,-1
 342 273 l 2,6,7
 342 227 342 227 325.5 189 c 128,-1,8
 309 151 309 151 286 122 c 128,-1,9
 263 93 263 93 238.5 73.5 c 128,-1,10
 214 54 214 54 199 44 c 1,11,-1
 156 105 l 1,12,13
 166 117 166 117 180.5 134 c 128,-1,14
 195 151 195 151 208.5 172 c 128,-1,15
 222 193 222 193 231.5 217 c 128,-1,16
 241 241 241 241 241 268 c 1,17,-1
 162 268 l 1,18,-1
 162 464 l 1,4,-1
EndSplineSet
EndChar

StartChar: less
Encoding: 60 60 30
Width: 1072
GlyphClass: 2
Flags: W
LayerCount: 2
Fore
SplineSet
967 154 m 1,0,-1
 887 59 l 1,1,-1
 64 561 l 1,2,-1
 64 627 l 1,3,-1
 887 1126 l 1,4,-1
 965 1032 l 1,5,-1
 238 592 l 1,6,-1
 967 154 l 1,0,-1
EndSplineSet
EndChar

StartChar: equal
Encoding: 61 61 31
Width: 1039
GlyphClass: 2
Flags: W
LayerCount: 2
Fore
SplineSet
153 446 m 1,0,-1
 153 557 l 1,1,-1
 886 557 l 1,2,-1
 886 446 l 1,3,-1
 153 446 l 1,0,-1
153 698 m 1,4,-1
 153 807 l 1,5,-1
 886 807 l 1,6,-1
 886 698 l 1,7,-1
 153 698 l 1,4,-1
EndSplineSet
EndChar

StartChar: greater
Encoding: 62 62 32
Width: 1073
GlyphClass: 2
Flags: W
LayerCount: 2
Fore
SplineSet
1009 561 m 1,0,-1
 186 59 l 1,1,-1
 106 154 l 1,2,-1
 835 592 l 1,3,-1
 106 1032 l 1,4,-1
 186 1126 l 1,5,-1
 1009 627 l 1,6,-1
 1009 561 l 1,0,-1
EndSplineSet
EndChar

StartChar: question
Encoding: 63 63 33
Width: 892
GlyphClass: 2
Flags: W
LayerCount: 2
Fore
SplineSet
68 1179 m 1,0,1
 85 1211 85 1211 109 1235.5 c 128,-1,2
 133 1260 133 1260 155 1278 c 0,3,4
 181 1298 181 1298 207 1315 c 1,5,6
 231 1329 231 1329 267 1340 c 0,7,8
 297 1350 297 1350 343 1358 c 128,-1,9
 389 1366 389 1366 452 1366 c 0,10,11
 527 1366 527 1366 580.5 1350 c 128,-1,12
 634 1334 634 1334 669 1314 c 0,13,14
 710 1291 710 1291 738 1263 c 1,15,16
 759 1237 759 1237 776 1203 c 0,17,18
 790 1174 790 1174 802 1131 c 128,-1,19
 814 1088 814 1088 814 1032 c 0,20,21
 814 986 814 986 800 946 c 128,-1,22
 786 906 786 906 763 871 c 128,-1,23
 740 836 740 836 710 805.5 c 128,-1,24
 680 775 680 775 648.5 748.5 c 128,-1,25
 617 722 617 722 586.5 698 c 128,-1,26
 556 674 556 674 531 653 c 0,27,28
 505 631 505 631 490.5 609.5 c 128,-1,29
 476 588 476 588 469 561 c 128,-1,30
 462 534 462 534 460.5 499 c 128,-1,31
 459 464 459 464 459 414 c 0,32,33
 459 403 459 403 458.5 392 c 128,-1,34
 458 381 458 381 458 371 c 2,35,-1
 458 349 l 1,36,-1
 325 350 l 1,37,38
 322 386 322 386 320 420 c 0,39,40
 318 449 318 449 317 480.5 c 128,-1,41
 316 512 316 512 316 534 c 0,42,43
 316 601 316 601 341 648.5 c 128,-1,44
 366 696 366 696 403.5 732.5 c 128,-1,45
 441 769 441 769 484.5 799.5 c 128,-1,46
 528 830 528 830 565.5 863.5 c 128,-1,47
 603 897 603 897 628 938.5 c 128,-1,48
 653 980 653 980 653 1039 c 0,49,50
 653 1074 653 1074 645.5 1098 c 128,-1,51
 638 1122 638 1122 630 1138 c 0,52,53
 620 1156 620 1156 608 1168 c 0,54,55
 595 1180 595 1180 572 1190 c 0,56,57
 552 1198 552 1198 521 1205.5 c 128,-1,58
 490 1213 490 1213 443 1213 c 256,59,60
 396 1213 396 1213 365 1208.5 c 128,-1,61
 334 1204 334 1204 315 1199 c 0,62,63
 293 1193 293 1193 280 1185 c 1,64,65
 258 1174 258 1174 236 1158 c 0,66,67
 217 1144 217 1144 194.5 1124 c 128,-1,68
 172 1104 172 1104 152 1077 c 1,69,-1
 68 1179 l 1,0,1
279 221 m 1,70,-1
 490 221 l 1,71,-1
 490 0 l 1,72,-1
 279 0 l 1,73,-1
 279 221 l 1,70,-1
EndSplineSet
EndChar

StartChar: at
Encoding: 64 64 34
Width: 1753
GlyphClass: 2
Flags: W
LayerCount: 2
Fore
SplineSet
815 281 m 0,0,1
 863 281 863 281 901.5 307 c 128,-1,2
 940 333 940 333 969.5 376 c 128,-1,3
 999 419 999 419 1020.5 475 c 128,-1,4
 1042 531 1042 531 1056 591 c 0,5,6
 1063 623 1063 623 1072.5 669 c 128,-1,7
 1082 715 1082 715 1091 757 c 0,8,9
 1102 806 1102 806 1112 858 c 0,10,11
 1113 858 1113 858 1093 864 c 128,-1,12
 1073 870 1073 870 1043 877.5 c 128,-1,13
 1013 885 1013 885 978.5 891 c 128,-1,14
 944 897 944 897 917 897 c 0,15,16
 840 897 840 897 786.5 864 c 128,-1,17
 733 831 733 831 700 776.5 c 128,-1,18
 667 722 667 722 652 651 c 128,-1,19
 637 580 637 580 637 504 c 0,20,21
 637 461 637 461 649 420.5 c 128,-1,22
 661 380 661 380 683.5 349 c 128,-1,23
 706 318 706 318 739 299.5 c 128,-1,24
 772 281 772 281 815 281 c 0,0,1
1206 492 m 2,25,26
 1201 465 1201 465 1202.5 429.5 c 128,-1,27
 1204 394 1204 394 1215 363 c 128,-1,28
 1226 332 1226 332 1249.5 310.5 c 128,-1,29
 1273 289 1273 289 1313 289 c 0,30,31
 1365 289 1365 289 1406 328 c 128,-1,32
 1447 367 1447 367 1475 428 c 128,-1,33
 1503 489 1503 489 1517.5 562.5 c 128,-1,34
 1532 636 1532 636 1532 705 c 0,35,36
 1532 837 1532 837 1481 936.5 c 128,-1,37
 1430 1036 1430 1036 1346.5 1103.5 c 128,-1,38
 1263 1171 1263 1171 1155.5 1205 c 128,-1,39
 1048 1239 1048 1239 934 1239 c 0,40,41
 845 1239 845 1239 758 1216.5 c 128,-1,42
 671 1194 671 1194 593 1151.5 c 128,-1,43
 515 1109 515 1109 448.5 1048 c 128,-1,44
 382 987 382 987 333.5 910.5 c 128,-1,45
 285 834 285 834 258 743 c 128,-1,46
 231 652 231 652 231 550 c 0,47,48
 231 428 231 428 267 321 c 128,-1,49
 303 214 303 214 379.5 133.5 c 128,-1,50
 456 53 456 53 573.5 6.5 c 128,-1,51
 691 -40 691 -40 855 -40 c 0,52,53
 947 -40 947 -40 1030.5 -19.5 c 128,-1,54
 1114 1 1114 1 1186 27 c 1,55,-1
 1241 -96 l 1,56,57
 1150 -133 1150 -133 1048 -156 c 128,-1,58
 946 -179 946 -179 834 -179 c 0,59,60
 747 -179 747 -179 658 -161 c 128,-1,61
 569 -143 569 -143 486 -106 c 128,-1,62
 403 -69 403 -69 330 -11.5 c 128,-1,63
 257 46 257 46 203 125.5 c 128,-1,64
 149 205 149 205 117.5 307 c 128,-1,65
 86 409 86 409 86 536 c 256,66,67
 86 663 86 663 119.5 774.5 c 128,-1,68
 153 886 153 886 212 980 c 128,-1,69
 271 1074 271 1074 352 1148 c 128,-1,70
 433 1222 433 1222 528.5 1273.5 c 128,-1,71
 624 1325 624 1325 729.5 1352 c 128,-1,72
 835 1379 835 1379 944 1379 c 0,73,74
 1034 1379 1034 1379 1123.5 1360.5 c 128,-1,75
 1213 1342 1213 1342 1294 1305.5 c 128,-1,76
 1375 1269 1375 1269 1444.5 1214 c 128,-1,77
 1514 1159 1514 1159 1565 1085.5 c 128,-1,78
 1616 1012 1616 1012 1645 920.5 c 128,-1,79
 1674 829 1674 829 1674 720 c 0,80,81
 1674 608 1674 608 1644.5 506.5 c 128,-1,82
 1615 405 1615 405 1564 328.5 c 128,-1,83
 1513 252 1513 252 1443 206.5 c 128,-1,84
 1373 161 1373 161 1292 161 c 0,85,86
 1250 161 1250 161 1211 176.5 c 128,-1,87
 1172 192 1172 192 1142 224 c 128,-1,88
 1112 256 1112 256 1094 305 c 128,-1,89
 1076 354 1076 354 1076 422 c 1,90,91
 1055 360 1055 360 1027 310.5 c 128,-1,92
 999 261 999 261 963 226 c 128,-1,93
 927 191 927 191 881.5 172 c 128,-1,94
 836 153 836 153 778 153 c 0,95,96
 702 153 702 153 644 182 c 128,-1,97
 586 211 586 211 546.5 262.5 c 128,-1,98
 507 314 507 314 487 385.5 c 128,-1,99
 467 457 467 457 467 542 c 0,100,101
 467 641 467 641 499.5 729.5 c 128,-1,102
 532 818 532 818 590 884.5 c 128,-1,103
 648 951 648 951 727.5 989.5 c 128,-1,104
 807 1028 807 1028 901 1028 c 0,105,106
 973 1028 973 1028 1034.5 1002.5 c 128,-1,107
 1096 977 1096 977 1144 932 c 1,108,109
 1161 970 1161 970 1176.5 983 c 128,-1,110
 1192 996 1192 996 1209 996 c 0,111,112
 1221 996 1221 996 1234.5 995 c 128,-1,113
 1248 994 1248 994 1259 992 c 0,114,115
 1272 990 1272 990 1286 989 c 1,116,-1
 1206 492 l 2,25,26
EndSplineSet
EndChar

StartChar: A
Encoding: 65 65 35
Width: 1324
GlyphClass: 2
Flags: W
LayerCount: 2
Fore
SplineSet
663 1329 m 1,0,-1
 378 502 l 1,1,-1
 943 502 l 1,2,-1
 663 1329 l 1,0,-1
562 1441 m 1,3,-1
 763 1441 l 1,4,-1
 1304 0 l 1,5,-1
 1128 0 l 1,6,-1
 992 367 l 1,7,-1
 330 367 l 1,8,-1
 195 0 l 1,9,-1
 18 0 l 1,10,-1
 562 1441 l 1,3,-1
EndSplineSet
EndChar

StartChar: B
Encoding: 66 66 36
Width: 1353
GlyphClass: 2
Flags: W
LayerCount: 2
Fore
SplineSet
366 1300 m 1,0,-1
 366 833 l 1,1,-1
 707 833 l 2,2,3
 812 833 812 833 874.5 852 c 128,-1,4
 937 871 937 871 969 910 c 0,5,6
 994 940 994 940 1004 982 c 128,-1,7
 1014 1024 1014 1024 1014 1079 c 0,8,9
 1014 1139 1014 1139 1005.5 1178.5 c 128,-1,10
 997 1218 997 1218 972 1244 c 0,11,12
 940 1276 940 1276 874.5 1288 c 128,-1,13
 809 1300 809 1300 695 1300 c 2,14,-1
 366 1300 l 1,0,-1
366 696 m 1,15,-1
 366 141 l 1,16,-1
 752 141 l 2,17,18
 859 141 859 141 922.5 156.5 c 128,-1,19
 986 172 986 172 1019 211 c 0,20,21
 1045 243 1045 243 1055.5 291 c 128,-1,22
 1066 339 1066 339 1066 410 c 0,23,24
 1066 461 1066 461 1060.5 497 c 128,-1,25
 1055 533 1055 533 1046 559 c 128,-1,26
 1037 585 1037 585 1024.5 602.5 c 128,-1,27
 1012 620 1012 620 997 632 c 0,28,29
 968 657 968 657 903.5 676.5 c 128,-1,30
 839 696 839 696 727 696 c 2,31,-1
 366 696 l 1,15,-1
192 1441 m 1,32,-1
 608 1441 l 2,33,34
 668 1441 668 1441 719 1440 c 128,-1,35
 770 1439 770 1439 815 1437 c 0,36,37
 906 1433 906 1433 968 1410.5 c 128,-1,38
 1030 1388 1030 1388 1072 1348 c 0,39,40
 1122 1300 1122 1300 1142.5 1230.5 c 128,-1,41
 1163 1161 1163 1161 1163 1072 c 0,42,43
 1163 994 1163 994 1145 943.5 c 128,-1,44
 1127 893 1127 893 1099 861 c 0,45,46
 1080 839 1080 839 1057.5 824.5 c 128,-1,47
 1035 810 1035 810 1012 800 c 128,-1,48
 989 790 989 790 966.5 783 c 128,-1,49
 944 776 944 776 924 770 c 1,50,51
 939 767 939 767 957.5 763 c 128,-1,52
 976 759 976 759 994.5 754 c 128,-1,53
 1013 749 1013 749 1031 743 c 128,-1,54
 1049 737 1049 737 1063 731 c 0,55,56
 1091 718 1091 718 1123 699.5 c 128,-1,57
 1155 681 1155 681 1182 645.5 c 128,-1,58
 1209 610 1209 610 1226.5 553.5 c 128,-1,59
 1244 497 1244 497 1244 407 c 0,60,61
 1244 343 1244 343 1234 293.5 c 128,-1,62
 1224 244 1224 244 1207.5 206 c 128,-1,63
 1191 168 1191 168 1171 141 c 128,-1,64
 1151 114 1151 114 1132 95 c 0,65,66
 1112 75 1112 75 1081.5 58 c 128,-1,67
 1051 41 1051 41 1008 28 c 128,-1,68
 965 15 965 15 909 7.5 c 128,-1,69
 853 0 853 0 781 0 c 2,70,-1
 192 0 l 1,71,-1
 192 1441 l 1,32,-1
EndSplineSet
EndChar

StartChar: C
Encoding: 67 67 37
Width: 1405
GlyphClass: 2
Flags: W
LayerCount: 2
Fore
SplineSet
1315 337 m 1,0,1
 1302 279 1302 279 1284 235.5 c 128,-1,2
 1266 192 1266 192 1247 161 c 128,-1,3
 1228 130 1228 130 1210 110.5 c 128,-1,4
 1192 91 1192 91 1179 81 c 0,5,6
 1167 71 1167 71 1135 51 c 128,-1,7
 1103 31 1103 31 1051.5 11 c 128,-1,8
 1000 -9 1000 -9 928 -24 c 128,-1,9
 856 -39 856 -39 763 -39 c 0,10,11
 664 -39 664 -39 586 -22 c 128,-1,12
 508 -5 508 -5 450.5 19.5 c 128,-1,13
 393 44 393 44 355 71 c 128,-1,14
 317 98 317 98 296 118 c 0,15,16
 260 152 260 152 228 207.5 c 128,-1,17
 196 263 196 263 171.5 337 c 128,-1,18
 147 411 147 411 132.5 502.5 c 128,-1,19
 118 594 118 594 118 699 c 0,20,21
 118 829 118 829 134.5 927.5 c 128,-1,22
 151 1026 151 1026 176 1097 c 128,-1,23
 201 1168 201 1168 229 1215 c 128,-1,24
 257 1262 257 1262 280 1289 c 256,25,26
 303 1316 303 1316 344.5 1348 c 128,-1,27
 386 1380 386 1380 446 1407.5 c 128,-1,28
 506 1435 506 1435 585.5 1453.5 c 128,-1,29
 665 1472 665 1472 764 1472 c 0,30,31
 861 1472 861 1472 935 1456 c 128,-1,32
 1009 1440 1009 1440 1062 1418 c 128,-1,33
 1115 1396 1115 1396 1147.5 1374 c 128,-1,34
 1180 1352 1180 1352 1192 1340 c 256,35,36
 1204 1328 1204 1328 1220.5 1307 c 128,-1,37
 1237 1286 1237 1286 1253.5 1255 c 128,-1,38
 1270 1224 1270 1224 1285 1184 c 128,-1,39
 1300 1144 1300 1144 1310 1095 c 1,40,-1
 1164 1020 l 1,41,42
 1144 1112 1144 1112 1112.5 1170.5 c 128,-1,43
 1081 1229 1081 1229 1049 1249 c 0,44,45
 1041 1254 1041 1254 1020.5 1266 c 128,-1,46
 1000 1278 1000 1278 965 1290.5 c 128,-1,47
 930 1303 930 1303 880.5 1312.5 c 128,-1,48
 831 1322 831 1322 767 1322 c 0,49,50
 695 1322 695 1322 639 1310.5 c 128,-1,51
 583 1299 583 1299 541.5 1282 c 128,-1,52
 500 1265 500 1265 472 1245.5 c 128,-1,53
 444 1226 444 1226 428 1211 c 0,54,55
 407 1191 407 1191 384 1153 c 128,-1,56
 361 1115 361 1115 342 1055 c 128,-1,57
 323 995 323 995 310.5 910.5 c 128,-1,58
 298 826 298 826 298 714 c 0,59,60
 298 603 298 603 309.5 520.5 c 128,-1,61
 321 438 321 438 337.5 380 c 128,-1,62
 354 322 354 322 373.5 287 c 128,-1,63
 393 252 393 252 408 234 c 0,64,65
 429 210 429 210 462.5 187.5 c 128,-1,66
 496 165 496 165 541 148 c 128,-1,67
 586 131 586 131 641.5 120.5 c 128,-1,68
 697 110 697 110 763 110 c 0,69,70
 830 110 830 110 883.5 120.5 c 128,-1,71
 937 131 937 131 976.5 146 c 128,-1,72
 1016 161 1016 161 1042 177.5 c 128,-1,73
 1068 194 1068 194 1080 206 c 0,74,75
 1086 212 1086 212 1097.5 227 c 128,-1,76
 1109 242 1109 242 1122.5 267.5 c 128,-1,77
 1136 293 1136 293 1150 329.5 c 128,-1,78
 1164 366 1164 366 1175 416 c 1,79,-1
 1315 337 l 1,0,1
EndSplineSet
EndChar

StartChar: D
Encoding: 68 68 38
Width: 1442
GlyphClass: 2
Flags: W
LayerCount: 2
Fore
SplineSet
192 0 m 1,0,-1
 192 1441 l 1,1,-1
 660 1441 l 2,2,3
 762 1441 762 1441 840 1424.5 c 128,-1,4
 918 1408 918 1408 976 1385 c 128,-1,5
 1034 1362 1034 1362 1072 1336.5 c 128,-1,6
 1110 1311 1110 1311 1132 1292 c 0,7,8
 1161 1266 1161 1266 1195 1222.5 c 128,-1,9
 1229 1179 1229 1179 1257.5 1111.5 c 128,-1,10
 1286 1044 1286 1044 1305 949.5 c 128,-1,11
 1324 855 1324 855 1324 727 c 0,12,13
 1324 589 1324 589 1304.5 489.5 c 128,-1,14
 1285 390 1285 390 1255.5 320 c 128,-1,15
 1226 250 1226 250 1191.5 207 c 128,-1,16
 1157 164 1157 164 1128 140 c 0,17,18
 1107 122 1107 122 1068.5 98 c 128,-1,19
 1030 74 1030 74 973.5 52.5 c 128,-1,20
 917 31 917 31 840.5 15.5 c 128,-1,21
 764 0 764 0 666 0 c 2,22,-1
 192 0 l 1,0,-1
366 1297 m 1,23,-1
 366 145 l 1,24,-1
 663 145 l 2,25,26
 745 145 745 145 807 157 c 128,-1,27
 869 169 869 169 914 187 c 128,-1,28
 959 205 959 205 987.5 226 c 128,-1,29
 1016 247 1016 247 1032 266 c 256,30,31
 1048 285 1048 285 1067.5 318 c 128,-1,32
 1087 351 1087 351 1104 405 c 128,-1,33
 1121 459 1121 459 1133 537 c 128,-1,34
 1145 615 1145 615 1145 723 c 0,35,36
 1145 827 1145 827 1134 903.5 c 128,-1,37
 1123 980 1123 980 1107 1034 c 128,-1,38
 1091 1088 1091 1088 1072.5 1122 c 128,-1,39
 1054 1156 1054 1156 1039 1175 c 256,40,41
 1024 1194 1024 1194 994 1215.5 c 128,-1,42
 964 1237 964 1237 916.5 1255 c 128,-1,43
 869 1273 869 1273 802 1285 c 128,-1,44
 735 1297 735 1297 645 1297 c 2,45,-1
 366 1297 l 1,23,-1
EndSplineSet
EndChar

StartChar: E
Encoding: 69 69 39
Width: 1164
GlyphClass: 2
Flags: W
LayerCount: 2
Fore
SplineSet
192 1441 m 1,0,-1
 1052 1441 l 1,1,-1
 1030 1299 l 1,2,-1
 366 1299 l 1,3,-1
 366 824 l 1,4,-1
 976 824 l 1,5,-1
 976 686 l 1,6,-1
 366 686 l 1,7,-1
 366 143 l 1,8,-1
 1032 143 l 1,9,-1
 1055 0 l 1,10,-1
 192 0 l 1,11,-1
 192 1441 l 1,0,-1
EndSplineSet
EndChar

StartChar: F
Encoding: 70 70 40
Width: 1076
GlyphClass: 2
Flags: W
LayerCount: 2
Fore
SplineSet
192 1441 m 1,0,-1
 1021 1441 l 1,1,-1
 990 1295 l 1,2,-1
 366 1295 l 1,3,-1
 366 819 l 1,4,-1
 914 819 l 1,5,-1
 914 673 l 1,6,-1
 366 673 l 1,7,-1
 366 0 l 1,8,-1
 192 0 l 1,9,-1
 192 1441 l 1,0,-1
EndSplineSet
EndChar

StartChar: G
Encoding: 71 71 41
Width: 1482
GlyphClass: 2
Flags: W
LayerCount: 2
Fore
SplineSet
1344 0 m 1,0,-1
 1220 0 l 1,1,-1
 1191 118 l 1,2,3
 1158 88 1158 88 1118 60.5 c 128,-1,4
 1078 33 1078 33 1027.5 11 c 128,-1,5
 977 -11 977 -11 913 -24.5 c 128,-1,6
 849 -38 849 -38 768 -39 c 1,7,8
 669 -39 669 -39 591 -21.5 c 128,-1,9
 513 -4 513 -4 454.5 22 c 128,-1,10
 396 48 396 48 355.5 77.5 c 128,-1,11
 315 107 315 107 292 132 c 0,12,13
 268 157 268 157 237.5 200.5 c 128,-1,14
 207 244 207 244 179.5 311.5 c 128,-1,15
 152 379 152 379 133 473 c 128,-1,16
 114 567 114 567 114 692 c 0,17,18
 114 831 114 831 134.5 935.5 c 128,-1,19
 155 1040 155 1040 185.5 1115.5 c 128,-1,20
 216 1191 216 1191 251 1239.5 c 128,-1,21
 286 1288 286 1288 315 1315 c 0,22,23
 339 1337 339 1337 378.5 1364.5 c 128,-1,24
 418 1392 418 1392 476 1416 c 128,-1,25
 534 1440 534 1440 610.5 1456.5 c 128,-1,26
 687 1473 687 1473 784 1473 c 0,27,28
 872 1473 872 1473 942.5 1458.5 c 128,-1,29
 1013 1444 1013 1444 1065 1424 c 128,-1,30
 1117 1404 1117 1404 1150.5 1383.5 c 128,-1,31
 1184 1363 1184 1363 1198 1352 c 0,32,33
 1205 1346 1205 1346 1219.5 1331.5 c 128,-1,34
 1234 1317 1234 1317 1251.5 1290.5 c 128,-1,35
 1269 1264 1269 1264 1288 1226 c 128,-1,36
 1307 1188 1307 1188 1322 1136 c 1,37,-1
 1192 1049 l 1,38,39
 1181 1090 1181 1090 1167.5 1121.5 c 128,-1,40
 1154 1153 1154 1153 1141 1175 c 128,-1,41
 1128 1197 1128 1197 1117 1210 c 128,-1,42
 1106 1223 1106 1223 1100 1228 c 0,43,44
 1088 1238 1088 1238 1063 1254.5 c 128,-1,45
 1038 1271 1038 1271 998.5 1287 c 128,-1,46
 959 1303 959 1303 905 1314.5 c 128,-1,47
 851 1326 851 1326 781 1326 c 0,48,49
 706 1326 706 1326 648.5 1314 c 128,-1,50
 591 1302 591 1302 548 1285 c 128,-1,51
 505 1268 505 1268 476.5 1248.5 c 128,-1,52
 448 1229 448 1229 432 1214 c 0,53,54
 409 1193 409 1193 384.5 1153.5 c 128,-1,55
 360 1114 360 1114 340 1052 c 128,-1,56
 320 990 320 990 306.5 902.5 c 128,-1,57
 293 815 293 815 293 697 c 0,58,59
 293 587 293 587 306 504.5 c 128,-1,60
 319 422 319 422 339.5 363.5 c 128,-1,61
 360 305 360 305 384 268.5 c 128,-1,62
 408 232 408 232 430 213 c 0,63,64
 446 199 446 199 474 180.5 c 128,-1,65
 502 162 502 162 544 146 c 128,-1,66
 586 130 586 130 642.5 119 c 128,-1,67
 699 108 699 108 773 108 c 0,68,69
 857 108 857 108 919.5 121 c 128,-1,70
 982 134 982 134 1029 155.5 c 128,-1,71
 1076 177 1076 177 1110 203.5 c 128,-1,72
 1144 230 1144 230 1170 257 c 1,73,-1
 1170 564 l 1,74,-1
 733 564 l 1,75,-1
 733 707 l 1,76,-1
 1344 707 l 1,77,-1
 1344 0 l 1,0,-1
EndSplineSet
EndChar

StartChar: H
Encoding: 72 72 42
Width: 1523
GlyphClass: 2
Flags: W
LayerCount: 2
Fore
SplineSet
192 1441 m 1,0,-1
 366 1441 l 1,1,-1
 366 817 l 1,2,-1
 1157 817 l 1,3,-1
 1157 1441 l 1,4,-1
 1331 1441 l 1,5,-1
 1331 0 l 1,6,-1
 1157 0 l 1,7,-1
 1157 680 l 1,8,-1
 366 680 l 1,9,-1
 366 0 l 1,10,-1
 192 0 l 1,11,-1
 192 1441 l 1,0,-1
EndSplineSet
EndChar

StartChar: I
Encoding: 73 73 43
Width: 696
GlyphClass: 2
Flags: W
LayerCount: 2
Fore
SplineSet
96 1441 m 1,0,-1
 605 1441 l 1,1,-1
 597 1340 l 1,2,-1
 444 1340 l 1,3,-1
 444 101 l 1,4,-1
 599 101 l 1,5,-1
 593 0 l 1,6,-1
 103 0 l 1,7,-1
 97 101 l 1,8,-1
 270 101 l 1,9,-1
 270 1340 l 1,10,-1
 102 1340 l 1,11,-1
 96 1441 l 1,0,-1
EndSplineSet
EndChar

StartChar: J
Encoding: 74 74 44
Width: 815
GlyphClass: 2
Flags: W
LayerCount: 2
Fore
SplineSet
461 1441 m 1,0,-1
 635 1441 l 1,1,-1
 635 332 l 2,2,3
 635 255 635 255 626.5 199.5 c 128,-1,4
 618 144 618 144 604.5 105.5 c 128,-1,5
 591 67 591 67 572.5 43 c 128,-1,6
 554 19 554 19 535 4 c 0,7,8
 510 -17 510 -17 455.5 -37.5 c 128,-1,9
 401 -58 401 -58 317 -58 c 0,10,11
 251 -58 251 -58 199.5 -39.5 c 128,-1,12
 148 -21 148 -21 113.5 8 c 128,-1,13
 79 37 79 37 61 72 c 128,-1,14
 43 107 43 107 43 139 c 0,15,16
 43 147 43 147 43.5 159.5 c 128,-1,17
 44 172 44 172 46 186 c 1,18,19
 47 201 47 201 49 219 c 1,20,-1
 191 249 l 1,21,-1
 191 239 l 2,22,23
 191 231 191 231 191.5 216.5 c 128,-1,24
 192 202 192 202 192 173 c 0,25,26
 192 149 192 149 202.5 133.5 c 128,-1,27
 213 118 213 118 232 108.5 c 128,-1,28
 251 99 251 99 276.5 95.5 c 128,-1,29
 302 92 302 92 331 92 c 0,30,31
 365 92 365 92 389.5 103 c 128,-1,32
 414 114 414 114 430 145.5 c 128,-1,33
 446 177 446 177 453.5 233.5 c 128,-1,34
 461 290 461 290 461 380 c 2,35,-1
 461 1441 l 1,0,-1
EndSplineSet
EndChar

StartChar: K
Encoding: 75 75 45
Width: 1273
GlyphClass: 2
Flags: W
LayerCount: 2
Fore
SplineSet
192 1441 m 1,0,-1
 366 1441 l 1,1,-1
 366 725 l 1,2,-1
 551 871 l 1,3,-1
 1013 1441 l 1,4,-1
 1225 1441 l 1,5,-1
 710 820 l 1,6,-1
 1251 0 l 1,7,-1
 1055 0 l 1,8,-1
 571 757 l 1,9,-1
 366 594 l 1,10,-1
 366 0 l 1,11,-1
 192 0 l 1,12,-1
 192 1441 l 1,0,-1
EndSplineSet
EndChar

StartChar: L
Encoding: 76 76 46
Width: 1041
GlyphClass: 2
Flags: W
LayerCount: 2
Fore
SplineSet
192 0 m 1,0,-1
 192 1441 l 1,1,-1
 366 1441 l 1,2,-1
 366 143 l 1,3,-1
 1001 143 l 1,4,-1
 1001 0 l 1,5,-1
 192 0 l 1,0,-1
EndSplineSet
EndChar

StartChar: M
Encoding: 77 77 47
Width: 1741
GlyphClass: 2
Flags: W
LayerCount: 2
Fore
SplineSet
1292 1441 m 1,0,-1
 1549 1441 l 1,1,-1
 1549 0 l 1,2,-1
 1393 0 l 1,3,-1
 1393 1284 l 1,4,-1
 1355 1172 l 1,5,-1
 956 63 l 1,6,-1
 787 63 l 1,7,-1
 387 1172 l 1,8,-1
 348 1284 l 1,9,-1
 348 0 l 1,10,-1
 192 0 l 1,11,-1
 192 1441 l 1,12,-1
 451 1441 l 1,13,-1
 872 253 l 1,14,-1
 1292 1441 l 1,0,-1
EndSplineSet
EndChar

StartChar: N
Encoding: 78 78 48
Width: 1561
GlyphClass: 2
Flags: W
LayerCount: 2
Fore
SplineSet
192 1441 m 1,0,-1
 409 1441 l 1,1,-1
 1016 527 l 1,2,-1
 1207 223 l 1,3,-1
 1207 1441 l 1,4,-1
 1369 1441 l 1,5,-1
 1369 0 l 1,6,-1
 1170 0 l 1,7,-1
 535 963 l 1,8,-1
 353 1250 l 1,9,-1
 353 0 l 1,10,-1
 192 0 l 1,11,-1
 192 1441 l 1,0,-1
EndSplineSet
EndChar

StartChar: O
Encoding: 79 79 49
Width: 1541
GlyphClass: 2
Flags: W
LayerCount: 2
Fore
SplineSet
772 1324 m 0,0,1
 696 1324 696 1324 635 1312 c 128,-1,2
 574 1300 574 1300 528 1281.5 c 128,-1,3
 482 1263 482 1263 450.5 1241 c 128,-1,4
 419 1219 419 1219 403 1199 c 0,5,6
 386 1178 386 1178 368 1143.5 c 128,-1,7
 350 1109 350 1109 335 1053 c 128,-1,8
 320 997 320 997 310 916 c 128,-1,9
 300 835 300 835 300 721 c 0,10,11
 300 604 300 604 310 521 c 128,-1,12
 320 438 320 438 335.5 381 c 128,-1,13
 351 324 351 324 369 289 c 128,-1,14
 387 254 387 254 404 234 c 0,15,16
 420 214 420 214 451 192 c 128,-1,17
 482 170 482 170 528 152 c 128,-1,18
 574 134 574 134 634 122 c 128,-1,19
 694 110 694 110 769 110 c 256,20,21
 844 110 844 110 905 122 c 128,-1,22
 966 134 966 134 1012 152.5 c 128,-1,23
 1058 171 1058 171 1089 193 c 128,-1,24
 1120 215 1120 215 1137 236 c 0,25,26
 1153 257 1153 257 1171.5 292 c 128,-1,27
 1190 327 1190 327 1205.5 385 c 128,-1,28
 1221 443 1221 443 1231 527 c 128,-1,29
 1241 611 1241 611 1241 729 c 0,30,31
 1241 841 1241 841 1231 921 c 128,-1,32
 1221 1001 1221 1001 1205.5 1056.5 c 128,-1,33
 1190 1112 1190 1112 1172 1146 c 128,-1,34
 1154 1180 1154 1180 1138 1200 c 256,35,36
 1122 1220 1122 1220 1091 1242 c 128,-1,37
 1060 1264 1060 1264 1014 1282 c 128,-1,38
 968 1300 968 1300 907.5 1312 c 128,-1,39
 847 1324 847 1324 772 1324 c 0,0,1
121 727 m 0,40,41
 121 857 121 857 136.5 952.5 c 128,-1,42
 152 1048 152 1048 175 1115.5 c 128,-1,43
 198 1183 198 1183 225 1226 c 128,-1,44
 252 1269 252 1269 275 1295 c 0,45,46
 298 1320 298 1320 338.5 1351 c 128,-1,47
 379 1382 379 1382 439.5 1409 c 128,-1,48
 500 1436 500 1436 582.5 1454 c 128,-1,49
 665 1472 665 1472 772 1472 c 256,50,51
 879 1472 879 1472 961 1453.5 c 128,-1,52
 1043 1435 1043 1435 1103.5 1408 c 128,-1,53
 1164 1381 1164 1381 1204.5 1350 c 128,-1,54
 1245 1319 1245 1319 1268 1294 c 0,55,56
 1291 1268 1291 1268 1317.5 1225.5 c 128,-1,57
 1344 1183 1344 1183 1367 1115.5 c 128,-1,58
 1390 1048 1390 1048 1405 953 c 128,-1,59
 1420 858 1420 858 1420 728 c 0,60,61
 1420 579 1420 579 1401.5 473 c 128,-1,62
 1383 367 1383 367 1355.5 295 c 128,-1,63
 1328 223 1328 223 1295.5 180 c 128,-1,64
 1263 137 1263 137 1236 114 c 256,65,66
 1209 91 1209 91 1167 64.5 c 128,-1,67
 1125 38 1125 38 1067.5 15 c 128,-1,68
 1010 -8 1010 -8 935.5 -23 c 128,-1,69
 861 -38 861 -38 769 -38 c 0,70,71
 661 -38 661 -38 578.5 -20 c 128,-1,72
 496 -2 496 -2 435.5 25 c 128,-1,73
 375 52 375 52 335 83 c 128,-1,74
 295 114 295 114 272 140 c 256,75,76
 249 166 249 166 222.5 210 c 128,-1,77
 196 254 196 254 173.5 324 c 128,-1,78
 151 394 151 394 136 492.5 c 128,-1,79
 121 591 121 591 121 727 c 0,40,41
EndSplineSet
EndChar

StartChar: P
Encoding: 80 80 50
Width: 1246
GlyphClass: 2
Flags: W
LayerCount: 2
Fore
SplineSet
366 1297 m 1,0,-1
 366 728 l 1,1,-1
 549 728 l 2,2,3
 634 728 634 728 694.5 732 c 128,-1,4
 755 736 755 736 797 743.5 c 128,-1,5
 839 751 839 751 866 762.5 c 128,-1,6
 893 774 893 774 913 790 c 0,7,8
 928 802 928 802 942 818 c 128,-1,9
 956 834 956 834 967 858.5 c 128,-1,10
 978 883 978 883 984.5 919.5 c 128,-1,11
 991 956 991 956 991 1009 c 0,12,13
 991 1064 991 1064 984 1102.5 c 128,-1,14
 977 1141 977 1141 965 1168 c 128,-1,15
 953 1195 953 1195 937.5 1212.5 c 128,-1,16
 922 1230 922 1230 905 1243 c 0,17,18
 891 1253 891 1253 872 1263 c 128,-1,19
 853 1273 853 1273 823 1280.5 c 128,-1,20
 793 1288 793 1288 749.5 1292.5 c 128,-1,21
 706 1297 706 1297 642 1297 c 2,22,-1
 366 1297 l 1,0,-1
192 1441 m 1,23,-1
 562 1441 l 2,24,25
 667 1441 667 1441 745 1434.5 c 128,-1,26
 823 1428 823 1428 881.5 1415 c 128,-1,27
 940 1402 940 1402 981 1382 c 128,-1,28
 1022 1362 1022 1362 1052 1334 c 0,29,30
 1074 1314 1074 1314 1095.5 1286 c 128,-1,31
 1117 1258 1117 1258 1134.5 1219 c 128,-1,32
 1152 1180 1152 1180 1163 1129 c 128,-1,33
 1174 1078 1174 1078 1174 1012 c 256,34,35
 1174 946 1174 946 1163 895 c 128,-1,36
 1152 844 1152 844 1134 806 c 128,-1,37
 1116 768 1116 768 1094 740.5 c 128,-1,38
 1072 713 1072 713 1050 694 c 0,39,40
 1026 673 1026 673 991.5 654 c 128,-1,41
 957 635 957 635 907 620 c 128,-1,42
 857 605 857 605 788.5 596.5 c 128,-1,43
 720 588 720 588 629 588 c 2,44,-1
 366 588 l 1,45,-1
 366 0 l 1,46,-1
 192 0 l 1,47,-1
 192 1441 l 1,23,-1
EndSplineSet
EndChar

StartChar: Q
Encoding: 81 81 51
Width: 1545
GlyphClass: 2
Flags: W
LayerCount: 2
Fore
SplineSet
819 386 m 1,0,1
 842 359 842 359 863.5 332 c 128,-1,2
 885 305 885 305 907 276.5 c 128,-1,3
 929 248 929 248 951.5 215.5 c 128,-1,4
 974 183 974 183 1000 146 c 1,5,6
 1042 161 1042 161 1075 181 c 128,-1,7
 1108 201 1108 201 1128 223 c 0,8,9
 1144 240 1144 240 1164 274 c 128,-1,10
 1184 308 1184 308 1201.5 366.5 c 128,-1,11
 1219 425 1219 425 1231 513.5 c 128,-1,12
 1243 602 1243 602 1243 729 c 0,13,14
 1243 841 1243 841 1233 921 c 128,-1,15
 1223 1001 1223 1001 1207.5 1056 c 128,-1,16
 1192 1111 1192 1111 1173.5 1145 c 128,-1,17
 1155 1179 1155 1179 1139 1199 c 0,18,19
 1122 1219 1122 1219 1091 1241 c 128,-1,20
 1060 1263 1060 1263 1014 1281 c 128,-1,21
 968 1299 968 1299 907.5 1311 c 128,-1,22
 847 1323 847 1323 772 1323 c 0,23,24
 696 1323 696 1323 635 1311 c 128,-1,25
 574 1299 574 1299 528 1280.5 c 128,-1,26
 482 1262 482 1262 451 1240 c 128,-1,27
 420 1218 420 1218 404 1198 c 0,28,29
 387 1177 387 1177 369 1142.5 c 128,-1,30
 351 1108 351 1108 336 1052 c 128,-1,31
 321 996 321 996 311 915 c 128,-1,32
 301 834 301 834 301 721 c 0,33,34
 301 615 301 615 310 534.5 c 128,-1,35
 319 454 319 454 333 395 c 128,-1,36
 347 336 347 336 363 297 c 128,-1,37
 379 258 379 258 394 236 c 1,38,39
 407 215 407 215 433.5 193 c 128,-1,40
 460 171 460 171 509.5 153.5 c 128,-1,41
 559 136 559 136 636 124.5 c 128,-1,42
 713 113 713 113 826 113 c 0,43,44
 834 113 834 113 842 113 c 128,-1,45
 850 113 850 113 858 114 c 1,46,47
 815 176 815 176 775.5 227.5 c 128,-1,48
 736 279 736 279 690 329 c 1,49,-1
 819 386 l 1,0,1
1138 -262 m 1,50,51
 1111 -235 1111 -235 1087.5 -209 c 128,-1,52
 1064 -183 1064 -183 1041 -154.5 c 128,-1,53
 1018 -126 1018 -126 994.5 -94 c 128,-1,54
 971 -62 971 -62 944 -23 c 1,55,56
 912 -30 912 -30 865.5 -34.5 c 128,-1,57
 819 -39 819 -39 773 -39 c 0,58,59
 660 -39 660 -39 573 -19.5 c 128,-1,60
 486 0 486 0 423 30 c 128,-1,61
 360 60 360 60 318.5 95.5 c 128,-1,62
 277 131 277 131 254 163 c 0,63,64
 235 188 235 188 212 230 c 128,-1,65
 189 272 189 272 168.5 338 c 128,-1,66
 148 404 148 404 134.5 498.5 c 128,-1,67
 121 593 121 593 121 724 c 0,68,69
 121 862 121 862 138 962 c 128,-1,70
 155 1062 155 1062 180.5 1131 c 128,-1,71
 206 1200 206 1200 235.5 1242.5 c 128,-1,72
 265 1285 265 1285 290 1309 c 256,73,74
 315 1333 315 1333 356 1361 c 128,-1,75
 397 1389 397 1389 455.5 1414 c 128,-1,76
 514 1439 514 1439 592 1455.5 c 128,-1,77
 670 1472 670 1472 769 1472 c 0,78,79
 876 1472 876 1472 958.5 1453.5 c 128,-1,80
 1041 1435 1041 1435 1102 1408 c 128,-1,81
 1163 1381 1163 1381 1203.5 1350 c 128,-1,82
 1244 1319 1244 1319 1267 1294 c 0,83,84
 1291 1268 1291 1268 1318 1225 c 128,-1,85
 1345 1182 1345 1182 1368 1115 c 128,-1,86
 1391 1048 1391 1048 1406.5 954 c 128,-1,87
 1422 860 1422 860 1422 731 c 0,88,89
 1422 597 1422 597 1407.5 501 c 128,-1,90
 1393 405 1393 405 1372 337.5 c 128,-1,91
 1351 270 1351 270 1326.5 227.5 c 128,-1,92
 1302 185 1302 185 1282 160 c 0,93,94
 1256 127 1256 127 1208 88.5 c 128,-1,95
 1160 50 1160 50 1084 18 c 1,96,97
 1131 -48 1131 -48 1172.5 -98 c 128,-1,98
 1214 -148 1214 -148 1261 -192 c 1,99,-1
 1138 -262 l 1,50,51
EndSplineSet
EndChar

StartChar: R
Encoding: 82 82 52
Width: 1335
GlyphClass: 2
Flags: W
LayerCount: 2
Fore
SplineSet
984 843 m 1,0,1
 1015 877 1015 877 1024.5 927.5 c 128,-1,2
 1034 978 1034 978 1034 1047 c 0,3,4
 1034 1118 1034 1118 1020.5 1166.5 c 128,-1,5
 1007 1215 1007 1215 972 1244 c 0,6,7
 930 1279 930 1279 856.5 1289 c 128,-1,8
 783 1299 783 1299 673 1299 c 2,9,-1
 366 1299 l 1,10,-1
 366 775 l 1,11,-1
 643 775 l 2,12,13
 677 775 677 775 709 775 c 128,-1,14
 741 775 741 775 770 776 c 0,15,16
 847 778 847 778 898.5 794 c 128,-1,17
 950 810 950 810 984 843 c 1,0,1
192 1441 m 1,18,-1
 637 1441 l 2,19,20
 684 1441 684 1441 728 1440 c 128,-1,21
 772 1439 772 1439 814 1437 c 0,22,23
 899 1432 899 1432 968.5 1413.5 c 128,-1,24
 1038 1395 1038 1395 1087 1357 c 0,25,26
 1152 1308 1152 1308 1182 1230 c 128,-1,27
 1212 1152 1212 1152 1212 1048 c 0,28,29
 1212 933 1212 933 1186 854.5 c 128,-1,30
 1160 776 1160 776 1099 728 c 1,31,32
 1052 693 1052 693 984 674 c 128,-1,33
 916 655 916 655 825 649 c 1,34,35
 850 631 850 631 876 605 c 0,36,37
 899 583 899 583 925 552 c 128,-1,38
 951 521 951 521 976 481 c 2,39,-1
 1254 20 l 1,40,-1
 1102 -41 l 1,41,42
 1034 72 1034 72 970.5 179 c 128,-1,43
 907 286 907 286 851 376 c 128,-1,44
 795 466 795 466 748.5 532.5 c 128,-1,45
 702 599 702 599 669 632 c 1,46,-1
 366 632 l 1,47,-1
 366 0 l 1,48,-1
 192 0 l 1,49,-1
 192 1441 l 1,18,-1
EndSplineSet
EndChar

StartChar: S
Encoding: 83 83 53
Width: 1211
GlyphClass: 2
Flags: W
LayerCount: 2
Fore
SplineSet
106 158 m 1,0,-1
 172 301 l 1,1,2
 187 263 187 263 227.5 229 c 128,-1,3
 268 195 268 195 326 169 c 128,-1,4
 384 143 384 143 455.5 127.5 c 128,-1,5
 527 112 527 112 605 112 c 0,6,7
 685 112 685 112 743.5 127.5 c 128,-1,8
 802 143 802 143 842 172 c 0,9,10
 890 208 890 208 912.5 263 c 128,-1,11
 935 318 935 318 935 390 c 0,12,13
 935 453 935 453 920.5 497.5 c 128,-1,14
 906 542 906 542 872 573.5 c 128,-1,15
 838 605 838 605 783.5 627.5 c 128,-1,16
 729 650 729 650 649 669 c 0,17,18
 586 684 586 684 530.5 697.5 c 128,-1,19
 475 711 475 711 426.5 726 c 128,-1,20
 378 741 378 741 335 760.5 c 128,-1,21
 292 780 292 780 253 808 c 1,22,23
 184 861 184 861 152.5 931 c 128,-1,24
 121 1001 121 1001 121 1092 c 0,25,26
 121 1178 121 1178 147 1246 c 128,-1,27
 173 1314 173 1314 222 1361 c 1,28,29
 285 1419 285 1419 385 1452 c 0,30,31
 459 1477 459 1477 612 1477 c 0,32,33
 730 1477 730 1477 790 1462 c 0,34,35
 866 1444 866 1444 918.5 1415 c 128,-1,36
 971 1386 971 1386 1002 1360 c 128,-1,37
 1033 1334 1033 1334 1045 1320 c 1,38,-1
 987 1168 l 1,39,40
 976 1184 976 1184 947.5 1213 c 128,-1,41
 919 1242 919 1242 871 1268 c 0,42,43
 840 1284 840 1284 756 1311 c 0,44,45
 715 1325 715 1325 602 1325 c 0,46,47
 493 1325 493 1325 440 1308 c 0,48,49
 374 1288 374 1288 337 1241 c 0,50,51
 295 1188 295 1188 295 1096 c 0,52,53
 295 1037 295 1037 317.5 998 c 128,-1,54
 340 959 340 959 382 932 c 128,-1,55
 424 905 424 905 483.5 887 c 128,-1,56
 543 869 543 869 617 852 c 1,57,58
 690 834 690 834 755 816.5 c 128,-1,59
 820 799 820 799 875.5 776 c 128,-1,60
 931 753 931 753 975 722 c 128,-1,61
 1019 691 1019 691 1050.5 646.5 c 128,-1,62
 1082 602 1082 602 1098.5 541 c 128,-1,63
 1115 480 1115 480 1115 398 c 0,64,65
 1115 277 1115 277 1073 188 c 128,-1,66
 1031 99 1031 99 943 43 c 0,67,68
 814 -39 814 -39 588 -39 c 0,69,70
 496 -39 496 -39 417.5 -24 c 128,-1,71
 339 -9 339 -9 277 17 c 128,-1,72
 215 43 215 43 171.5 79.5 c 128,-1,73
 128 116 128 116 106 158 c 1,0,-1
EndSplineSet
EndChar

StartChar: T
Encoding: 84 84 54
Width: 1145
GlyphClass: 2
Flags: W
LayerCount: 2
Fore
SplineSet
38 1441 m 1,0,-1
 1106 1441 l 1,1,-1
 1106 1297 l 1,2,-1
 658 1297 l 1,3,-1
 658 -1 l 1,4,-1
 485 -1 l 1,5,-1
 485 1297 l 1,6,-1
 38 1297 l 1,7,-1
 38 1441 l 1,0,-1
EndSplineSet
EndChar

StartChar: U
Encoding: 85 85 55
Width: 1511
GlyphClass: 2
Flags: W
LayerCount: 2
Fore
SplineSet
1161 1441 m 1,0,-1
 1335 1441 l 1,1,-1
 1335 688 l 2,2,3
 1335 547 1335 547 1321.5 444 c 128,-1,4
 1308 341 1308 341 1287 269 c 128,-1,5
 1266 197 1266 197 1240 153.5 c 128,-1,6
 1214 110 1214 110 1188 87 c 0,7,8
 1169 70 1169 70 1133.5 47 c 128,-1,9
 1098 24 1098 24 1044.5 3 c 128,-1,10
 991 -18 991 -18 919 -33 c 128,-1,11
 847 -48 847 -48 755 -48 c 256,12,13
 663 -48 663 -48 590 -33 c 128,-1,14
 517 -18 517 -18 462 3 c 128,-1,15
 407 24 407 24 370.5 47 c 128,-1,16
 334 70 334 70 315 87 c 0,17,18
 288 111 288 111 263 154.5 c 128,-1,19
 238 198 238 198 218.5 268.5 c 128,-1,20
 199 339 199 339 187.5 439.5 c 128,-1,21
 176 540 176 540 176 679 c 2,22,-1
 176 1441 l 1,23,-1
 350 1441 l 1,24,-1
 350 683 l 2,25,26
 350 576 350 576 357 496 c 128,-1,27
 364 416 364 416 375 359.5 c 128,-1,28
 386 303 386 303 399.5 268 c 128,-1,29
 413 233 413 233 425 216 c 256,30,31
 437 199 437 199 462 178.5 c 128,-1,32
 487 158 487 158 527.5 140.5 c 128,-1,33
 568 123 568 123 625 111 c 128,-1,34
 682 99 682 99 759 99 c 0,35,36
 833 99 833 99 889.5 110 c 128,-1,37
 946 121 946 121 986.5 138.5 c 128,-1,38
 1027 156 1027 156 1052.5 176.5 c 128,-1,39
 1078 197 1078 197 1090 216 c 0,40,41
 1097 227 1097 227 1109.5 254 c 128,-1,42
 1122 281 1122 281 1133 328.5 c 128,-1,43
 1144 376 1144 376 1152.5 448 c 128,-1,44
 1161 520 1161 520 1161 621 c 2,45,-1
 1161 1441 l 1,0,-1
EndSplineSet
EndChar

StartChar: V
Encoding: 86 86 56
Width: 1226
GlyphClass: 2
Flags: W
LayerCount: 2
Fore
SplineSet
537 0 m 1,0,1
 519 48 519 48 489.5 125 c 128,-1,2
 460 202 460 202 418 316 c 128,-1,3
 376 430 376 430 320 585.5 c 128,-1,4
 264 741 264 741 193 945 c 2,5,-1
 21 1441 l 1,6,-1
 195 1441 l 1,7,-1
 349 995 l 2,8,9
 360 963 360 963 382 899 c 128,-1,10
 404 835 404 835 431 755.5 c 128,-1,11
 458 676 458 676 487 589 c 128,-1,12
 516 502 516 502 542 423.5 c 128,-1,13
 568 345 568 345 587.5 282 c 128,-1,14
 607 219 607 219 614 189 c 1,15,16
 619 212 619 212 631.5 253.5 c 128,-1,17
 644 295 644 295 661 348.5 c 128,-1,18
 678 402 678 402 698.5 464 c 128,-1,19
 719 526 719 526 740.5 590 c 128,-1,20
 762 654 762 654 783 716 c 128,-1,21
 804 778 804 778 822 832 c 128,-1,22
 840 886 840 886 854.5 928.5 c 128,-1,23
 869 971 869 971 877 995 c 2,24,-1
 1026 1441 l 1,25,-1
 1200 1441 l 1,26,-1
 998 849 l 2,27,28
 932 657 932 657 881.5 513.5 c 128,-1,29
 831 370 831 370 794.5 268 c 128,-1,30
 758 166 758 166 733.5 101 c 128,-1,31
 709 36 709 36 696 0 c 1,32,-1
 537 0 l 1,0,1
EndSplineSet
EndChar

StartChar: W
Encoding: 87 87 57
Width: 1789
GlyphClass: 2
Flags: W
LayerCount: 2
Fore
SplineSet
573 476 m 1,0,-1
 757 1251 l 1,1,-1
 809 1441 l 1,2,-1
 979 1441 l 1,3,-1
 1030 1251 l 1,4,-1
 1214 474 l 1,5,-1
 1272 193 l 1,6,-1
 1333 476 l 1,7,-1
 1588 1441 l 1,8,-1
 1752 1441 l 1,9,-1
 1360 0 l 1,10,-1
 1187 0 l 1,11,-1
 950 987 l 1,12,-1
 894 1258 l 1,13,-1
 839 987 l 1,14,-1
 601 0 l 1,15,-1
 429 0 l 1,16,-1
 38 1441 l 1,17,-1
 203 1441 l 1,18,-1
 455 478 l 1,19,-1
 517 194 l 1,20,-1
 573 476 l 1,0,-1
EndSplineSet
EndChar

StartChar: X
Encoding: 88 88 58
Width: 1191
GlyphClass: 2
Flags: W
LayerCount: 2
Fore
SplineSet
350 973 m 1,0,-1
 59 1441 l 1,1,-1
 257 1441 l 1,2,3
 278 1405 278 1405 303.5 1362 c 128,-1,4
 329 1319 329 1319 357 1272 c 128,-1,5
 385 1225 385 1225 413.5 1177.5 c 128,-1,6
 442 1130 442 1130 468 1085 c 0,7,8
 530 980 530 980 594 871 c 1,9,-1
 927 1441 l 1,10,-1
 1121 1441 l 1,11,-1
 837 975 l 1,12,-1
 691 747 l 1,13,-1
 848 500 l 1,14,-1
 1152 0 l 1,15,-1
 953 0 l 1,16,-1
 594 614 l 1,17,-1
 243 0 l 1,18,-1
 46 0 l 1,19,-1
 346 498 l 1,20,-1
 499 745 l 1,21,-1
 350 973 l 1,0,-1
EndSplineSet
EndChar

StartChar: Y
Encoding: 89 89 59
Width: 1142
GlyphClass: 2
Flags: W
LayerCount: 2
Fore
SplineSet
483 599 m 1,0,1
 384 764 384 764 292 921 c 0,2,3
 253 988 253 988 211.5 1059 c 128,-1,4
 170 1130 170 1130 131 1198.5 c 128,-1,5
 92 1267 92 1267 57 1329 c 128,-1,6
 22 1391 22 1391 -4 1441 c 1,7,-1
 182 1441 l 1,8,9
 199 1409 199 1409 221.5 1368 c 128,-1,10
 244 1327 244 1327 269.5 1281 c 128,-1,11
 295 1235 295 1235 321.5 1186.5 c 128,-1,12
 348 1138 348 1138 374 1093 c 0,13,14
 434 987 434 987 499 872 c 1,15,-1
 572 740 l 1,16,-1
 644 872 l 1,17,18
 708 987 708 987 769 1093 c 0,19,20
 794 1138 794 1138 821.5 1186.5 c 128,-1,21
 849 1235 849 1235 875 1281 c 128,-1,22
 901 1327 901 1327 924 1368 c 128,-1,23
 947 1409 947 1409 964 1441 c 1,24,-1
 1152 1441 l 1,25,26
 1125 1392 1125 1392 1089.5 1329.5 c 128,-1,27
 1054 1267 1054 1267 1014 1199 c 128,-1,28
 974 1131 974 1131 932.5 1060 c 128,-1,29
 891 989 891 989 851 923 c 0,30,31
 758 767 758 767 657 602 c 1,32,-1
 657 0 l 1,33,-1
 483 0 l 1,34,-1
 483 599 l 1,0,1
EndSplineSet
EndChar

StartChar: Z
Encoding: 90 90 60
Width: 1183
GlyphClass: 2
Flags: W
LayerCount: 2
Fore
SplineSet
152 1441 m 1,0,-1
 1049 1441 l 1,1,-1
 1070 1275 l 1,2,3
 1050 1249 1050 1249 1015 1200.5 c 128,-1,4
 980 1152 980 1152 934 1086.5 c 128,-1,5
 888 1021 888 1021 833 943 c 128,-1,6
 778 865 778 865 719.5 781 c 128,-1,7
 661 697 661 697 600.5 610 c 128,-1,8
 540 523 540 523 482.5 440 c 128,-1,9
 425 357 425 357 372.5 281 c 128,-1,10
 320 205 320 205 277 144 c 1,11,-1
 1095 144 l 1,12,-1
 1095 0 l 1,13,-1
 88 0 l 1,14,-1
 48 102 l 1,15,16
 112 188 112 188 189.5 294.5 c 128,-1,17
 267 401 267 401 348.5 515.5 c 128,-1,18
 430 630 430 630 512 745.5 c 128,-1,19
 594 861 594 861 666.5 965 c 128,-1,20
 739 1069 739 1069 799 1155 c 128,-1,21
 859 1241 859 1241 897 1297 c 1,22,-1
 152 1297 l 1,23,-1
 152 1441 l 1,0,-1
EndSplineSet
EndChar

StartChar: bracketleft
Encoding: 91 91 61
Width: 621
GlyphClass: 2
Flags: W
LayerCount: 2
Fore
SplineSet
164 1519 m 1,0,-1
 552 1519 l 1,1,-1
 552 1412 l 1,2,-1
 307 1412 l 1,3,-1
 325 1195 l 1,4,-1
 325 138 l 1,5,-1
 307 -113 l 1,6,-1
 552 -113 l 1,7,-1
 552 -218 l 1,8,-1
 164 -218 l 1,9,-1
 164 1519 l 1,0,-1
EndSplineSet
EndChar

StartChar: backslash
Encoding: 92 92 62
Width: 676
GlyphClass: 2
Flags: W
LayerCount: 2
Fore
SplineSet
100 1479 m 1,0,-1
 206 1509 l 1,1,-1
 577 -92 l 1,2,-1
 468 -121 l 1,3,-1
 100 1479 l 1,0,-1
EndSplineSet
EndChar

StartChar: bracketright
Encoding: 93 93 63
Width: 619
GlyphClass: 2
Flags: W
LayerCount: 2
Fore
SplineSet
68 1520 m 1,0,-1
 455 1520 l 1,1,-1
 455 -218 l 1,2,-1
 68 -218 l 1,3,-1
 68 -113 l 1,4,-1
 312 -113 l 1,5,-1
 295 149 l 1,6,-1
 295 1185 l 1,7,-1
 312 1413 l 1,8,-1
 68 1413 l 1,9,-1
 68 1520 l 1,0,-1
EndSplineSet
EndChar

StartChar: asciicircum
Encoding: 94 94 64
Width: 1147
GlyphClass: 2
Flags: W
LayerCount: 2
Fore
SplineSet
494 1452 m 1,0,-1
 653 1452 l 1,1,-1
 1044 596 l 1,2,-1
 850 582 l 1,3,-1
 659 1022 l 1,4,-1
 573 1225 l 1,5,-1
 489 1020 l 1,6,-1
 293 575 l 1,7,-1
 102 596 l 1,8,-1
 494 1452 l 1,0,-1
EndSplineSet
EndChar

StartChar: underscore
Encoding: 95 95 65
Width: 1085
GlyphClass: 2
Flags: W
LayerCount: 2
Fore
SplineSet
124 -126 m 1,0,-1
 123 -22 l 1,1,-1
 962 -22 l 1,2,-1
 961 -126 l 1,3,-1
 124 -126 l 1,0,-1
EndSplineSet
EndChar

StartChar: grave
Encoding: 96 96 66
Width: 846
GlyphClass: 2
Flags: W
LayerCount: 2
Fore
SplineSet
537 1212 m 1,0,-1
 444 1180 l 1,1,-1
 122 1516 l 1,2,-1
 297 1590 l 1,3,-1
 537 1212 l 1,0,-1
EndSplineSet
EndChar

StartChar: a
Encoding: 97 97 67
Width: 1091
GlyphClass: 2
Flags: W
LayerCount: 2
Fore
SplineSet
262 750 m 1,0,-1
 134 798 l 1,1,2
 143 844 143 844 156 875.5 c 128,-1,3
 169 907 169 907 187 928.5 c 128,-1,4
 205 950 205 950 228 964.5 c 128,-1,5
 251 979 251 979 279 992 c 0,6,7
 320 1011 320 1011 382.5 1023 c 128,-1,8
 445 1035 445 1035 539 1035 c 0,9,10
 631 1035 631 1035 694.5 1023 c 128,-1,11
 758 1011 758 1011 798.5 993.5 c 128,-1,12
 839 976 839 976 860 956.5 c 128,-1,13
 881 937 881 937 889 922 c 0,14,15
 896 908 896 908 903.5 885.5 c 128,-1,16
 911 863 911 863 917 825.5 c 128,-1,17
 923 788 923 788 927 731 c 128,-1,18
 931 674 931 674 931 591 c 2,19,-1
 931 211 l 2,20,21
 931 172 931 172 933 149.5 c 128,-1,22
 935 127 935 127 941 116 c 128,-1,23
 947 105 947 105 959 102 c 128,-1,24
 971 99 971 99 992 99 c 1,25,-1
 992 -15 l 1,26,27
 972 -21 972 -21 956 -23 c 128,-1,28
 940 -25 940 -25 922 -25 c 1,29,30
 883 -20 883 -20 858.5 -4.5 c 128,-1,31
 834 11 834 11 821 31.5 c 128,-1,32
 808 52 808 52 803.5 75 c 128,-1,33
 799 98 799 98 799 118 c 1,34,35
 786 101 786 101 758.5 77 c 128,-1,36
 731 53 731 53 688.5 30.5 c 128,-1,37
 646 8 646 8 586.5 -7.5 c 128,-1,38
 527 -23 527 -23 450 -23 c 0,39,40
 384 -23 384 -23 334 -13.5 c 128,-1,41
 284 -4 284 -4 248.5 10.5 c 128,-1,42
 213 25 213 25 190.5 42 c 128,-1,43
 168 59 168 59 157 73 c 0,44,45
 149 83 149 83 139 101 c 128,-1,46
 129 119 129 119 120 145 c 128,-1,47
 111 171 111 171 105 205 c 128,-1,48
 99 239 99 239 99 282 c 0,49,50
 99 333 99 333 105 368 c 128,-1,51
 111 403 111 403 119.5 427.5 c 128,-1,52
 128 452 128 452 138 467 c 128,-1,53
 148 482 148 482 156 492 c 0,54,55
 169 508 169 508 195.5 527.5 c 128,-1,56
 222 547 222 547 267 564.5 c 128,-1,57
 312 582 312 582 377.5 595.5 c 128,-1,58
 443 609 443 609 534 613 c 0,59,60
 579 615 579 615 613.5 615 c 128,-1,61
 648 615 648 615 676.5 616 c 128,-1,62
 705 617 705 617 729.5 619 c 128,-1,63
 754 621 754 621 778 627 c 1,64,65
 778 703 778 703 774 749.5 c 128,-1,66
 770 796 770 796 763 821.5 c 128,-1,67
 756 847 756 847 747 857 c 128,-1,68
 738 867 738 867 728 872 c 0,69,70
 722 875 722 875 710.5 881 c 128,-1,71
 699 887 699 887 678 893.5 c 128,-1,72
 657 900 657 900 623.5 904.5 c 128,-1,73
 590 909 590 909 541 909 c 0,74,75
 473 909 473 909 432 904 c 128,-1,76
 391 899 391 899 368 893 c 0,77,78
 342 886 342 886 331 878 c 1,79,80
 316 869 316 869 303 851 c 0,81,82
 292 836 292 836 280 811.5 c 128,-1,83
 268 787 268 787 262 750 c 1,0,-1
778 295 m 2,84,-1
 778 515 l 1,85,86
 760 509 760 509 740.5 506.5 c 128,-1,87
 721 504 721 504 695 502 c 128,-1,88
 669 500 669 500 632.5 499 c 128,-1,89
 596 498 596 498 545 495 c 0,90,91
 479 490 479 490 433.5 481.5 c 128,-1,92
 388 473 388 473 358 462.5 c 128,-1,93
 328 452 328 452 311 440.5 c 128,-1,94
 294 429 294 429 285 418 c 0,95,96
 273 404 273 404 264.5 371.5 c 128,-1,97
 256 339 256 339 256 285 c 0,98,99
 256 235 256 235 263.5 203 c 128,-1,100
 271 171 271 171 279 159 c 0,101,102
 285 149 285 149 296 138.5 c 128,-1,103
 307 128 307 128 329.5 119 c 128,-1,104
 352 110 352 110 389.5 104.5 c 128,-1,105
 427 99 427 99 487 99 c 0,106,107
 557 99 557 99 611 115 c 128,-1,108
 665 131 665 131 702 158 c 128,-1,109
 739 185 739 185 758.5 220.5 c 128,-1,110
 778 256 778 256 778 295 c 2,84,-1
EndSplineSet
EndChar

StartChar: b
Encoding: 98 98 68
Width: 1162
GlyphClass: 2
Flags: W
LayerCount: 2
Fore
SplineSet
609 908 m 0,0,1
 549 908 549 908 508.5 900.5 c 128,-1,2
 468 893 468 893 441 882.5 c 128,-1,3
 414 872 414 872 398 858.5 c 128,-1,4
 382 845 382 845 373 833 c 0,5,6
 363 820 363 820 352 799.5 c 128,-1,7
 341 779 341 779 332 742.5 c 128,-1,8
 323 706 323 706 317 650.5 c 128,-1,9
 311 595 311 595 311 512 c 0,10,11
 311 432 311 432 316.5 373.5 c 128,-1,12
 322 315 322 315 329.5 275 c 128,-1,13
 337 235 337 235 346 211.5 c 128,-1,14
 355 188 355 188 363 179 c 1,15,16
 374 164 374 164 391.5 150 c 128,-1,17
 409 136 409 136 437 125 c 128,-1,18
 465 114 465 114 506.5 107 c 128,-1,19
 548 100 548 100 608 100 c 0,20,21
 665 100 665 100 704.5 107 c 128,-1,22
 744 114 744 114 770 125.5 c 128,-1,23
 796 137 796 137 811 150.5 c 128,-1,24
 826 164 826 164 834 176 c 0,25,26
 843 188 843 188 853 208.5 c 128,-1,27
 863 229 863 229 871.5 265.5 c 128,-1,28
 880 302 880 302 885.5 358 c 128,-1,29
 891 414 891 414 891 498 c 0,30,31
 891 585 891 585 885.5 643.5 c 128,-1,32
 880 702 880 702 871.5 740 c 128,-1,33
 863 778 863 778 853.5 799.5 c 128,-1,34
 844 821 844 821 836 834 c 256,35,36
 828 847 828 847 813 860 c 128,-1,37
 798 873 798 873 772 883.5 c 128,-1,38
 746 894 746 894 706.5 901 c 128,-1,39
 667 908 667 908 609 908 c 0,0,1
158 1441 m 1,40,-1
 312 1441 l 1,41,-1
 312 844 l 1,42,43
 330 874 330 874 354.5 907 c 128,-1,44
 379 940 379 940 417.5 967.5 c 128,-1,45
 456 995 456 995 511.5 1013 c 128,-1,46
 567 1031 567 1031 646 1031 c 0,47,48
 715 1031 715 1031 766.5 1020 c 128,-1,49
 818 1009 818 1009 854 993 c 128,-1,50
 890 977 890 977 913 960 c 128,-1,51
 936 943 936 943 949 930 c 0,52,53
 966 913 966 913 983.5 883.5 c 128,-1,54
 1001 854 1001 854 1015 804.5 c 128,-1,55
 1029 755 1029 755 1038 682.5 c 128,-1,56
 1047 610 1047 610 1047 506 c 0,57,58
 1047 410 1047 410 1039.5 344.5 c 128,-1,59
 1032 279 1032 279 1021.5 235.5 c 128,-1,60
 1011 192 1011 192 999 166 c 128,-1,61
 987 140 987 140 977 123 c 0,62,63
 964 100 964 100 938.5 74 c 128,-1,64
 913 48 913 48 873 26.5 c 128,-1,65
 833 5 833 5 776.5 -9 c 128,-1,66
 720 -23 720 -23 645 -23 c 0,67,68
 555 -23 555 -23 493 -2 c 128,-1,69
 431 19 431 19 390.5 48.5 c 128,-1,70
 350 78 350 78 328 108.5 c 128,-1,71
 306 139 306 139 296 157 c 1,72,-1
 277 0 l 1,73,-1
 158 0 l 1,74,-1
 158 1441 l 1,40,-1
EndSplineSet
EndChar

StartChar: c
Encoding: 99 99 69
Width: 1068
GlyphClass: 2
Flags: W
LayerCount: 2
Fore
SplineSet
974 269 m 1,0,1
 969 223 969 223 960.5 190.5 c 128,-1,2
 952 158 952 158 940.5 135 c 128,-1,3
 929 112 929 112 917 97.5 c 128,-1,4
 905 83 905 83 895 73 c 0,5,6
 883 61 883 61 859.5 44.5 c 128,-1,7
 836 28 836 28 797.5 13 c 128,-1,8
 759 -2 759 -2 704.5 -12.5 c 128,-1,9
 650 -23 650 -23 575 -23 c 0,10,11
 497 -23 497 -23 437 -10.5 c 128,-1,12
 377 2 377 2 332.5 20.5 c 128,-1,13
 288 39 288 39 259 60.5 c 128,-1,14
 230 82 230 82 214 100 c 256,15,16
 198 118 198 118 179.5 148 c 128,-1,17
 161 178 161 178 145.5 226 c 128,-1,18
 130 274 130 274 119.5 343 c 128,-1,19
 109 412 109 412 109 509 c 0,20,21
 109 604 109 604 119.5 672 c 128,-1,22
 130 740 130 740 146 787 c 128,-1,23
 162 834 162 834 180.5 863.5 c 128,-1,24
 199 893 199 893 215 911 c 256,25,26
 231 929 231 929 260 950.5 c 128,-1,27
 289 972 289 972 333.5 991 c 128,-1,28
 378 1010 378 1010 438 1022.5 c 128,-1,29
 498 1035 498 1035 576 1035 c 0,30,31
 649 1035 649 1035 702.5 1024 c 128,-1,32
 756 1013 756 1013 793.5 998 c 128,-1,33
 831 983 831 983 854 966.5 c 128,-1,34
 877 950 877 950 889 938 c 0,35,36
 899 928 899 928 910.5 913 c 128,-1,37
 922 898 922 898 933 875 c 128,-1,38
 944 852 944 852 953.5 819 c 128,-1,39
 963 786 963 786 968 739 c 1,40,-1
 842 704 l 1,41,42
 836 740 836 740 830 764.5 c 128,-1,43
 824 789 824 789 818 805 c 128,-1,44
 812 821 812 821 806 830.5 c 128,-1,45
 800 840 800 840 795 846 c 0,46,47
 785 857 785 857 768 868.5 c 128,-1,48
 751 880 751 880 724.5 889 c 128,-1,49
 698 898 698 898 660.5 904 c 128,-1,50
 623 910 623 910 572 910 c 0,51,52
 510 910 510 910 467.5 902.5 c 128,-1,53
 425 895 425 895 396.5 883.5 c 128,-1,54
 368 872 368 872 351 858 c 128,-1,55
 334 844 334 844 324 831 c 256,56,57
 314 818 314 818 303.5 797.5 c 128,-1,58
 293 777 293 777 284.5 741 c 128,-1,59
 276 705 276 705 270.5 648.5 c 128,-1,60
 265 592 265 592 265 507 c 0,61,62
 265 419 265 419 271 361 c 128,-1,63
 277 303 277 303 286 266 c 128,-1,64
 295 229 295 229 306 208.5 c 128,-1,65
 317 188 317 188 328 175 c 1,66,67
 338 161 338 161 355.5 147.5 c 128,-1,68
 373 134 373 134 402 122.5 c 128,-1,69
 431 111 431 111 473.5 104 c 128,-1,70
 516 97 516 97 577 97 c 0,71,72
 629 97 629 97 667 103 c 128,-1,73
 705 109 705 109 732 118.5 c 128,-1,74
 759 128 759 128 776 139.5 c 128,-1,75
 793 151 793 151 804 162 c 0,76,77
 810 168 810 168 816 177.5 c 128,-1,78
 822 187 822 187 828 203 c 128,-1,79
 834 219 834 219 840.5 243.5 c 128,-1,80
 847 268 847 268 853 304 c 1,81,-1
 974 269 l 1,0,1
EndSplineSet
EndChar

StartChar: d
Encoding: 100 100 70
Width: 1163
GlyphClass: 2
Flags: W
LayerCount: 2
Fore
SplineSet
556 909 m 0,0,1
 497 909 497 909 457 901 c 128,-1,2
 417 893 417 893 390.5 881 c 128,-1,3
 364 869 364 869 349 854.5 c 128,-1,4
 334 840 334 840 325 827 c 256,5,6
 316 814 316 814 306.5 792 c 128,-1,7
 297 770 297 770 289 732 c 128,-1,8
 281 694 281 694 275.5 636.5 c 128,-1,9
 270 579 270 579 270 495 c 256,10,11
 270 411 270 411 275.5 356 c 128,-1,12
 281 301 281 301 289.5 266 c 128,-1,13
 298 231 298 231 307.5 211.5 c 128,-1,14
 317 192 317 192 326 180 c 256,15,16
 335 168 335 168 349.5 154 c 128,-1,17
 364 140 364 140 390 128.5 c 128,-1,18
 416 117 416 117 455.5 109.5 c 128,-1,19
 495 102 495 102 553 102 c 256,20,21
 611 102 611 102 651.5 109.5 c 128,-1,22
 692 117 692 117 719 128.5 c 128,-1,23
 746 140 746 140 761.5 153.5 c 128,-1,24
 777 167 777 167 787 180 c 0,25,26
 797 192 797 192 808 212.5 c 128,-1,27
 819 233 819 233 828.5 269.5 c 128,-1,28
 838 306 838 306 844.5 362.5 c 128,-1,29
 851 419 851 419 851 505 c 0,30,31
 851 579 851 579 846.5 632 c 128,-1,32
 842 685 842 685 836 721 c 128,-1,33
 830 757 830 757 823.5 777.5 c 128,-1,34
 817 798 817 798 813 806 c 0,35,36
 781 863 781 863 717.5 886 c 128,-1,37
 654 909 654 909 556 909 c 0,0,1
851 1441 m 1,38,-1
 1005 1441 l 1,39,-1
 1005 0 l 1,40,-1
 883 0 l 1,41,-1
 865 166 l 1,42,43
 852 143 852 143 830 111 c 128,-1,44
 808 79 808 79 769 49 c 128,-1,45
 730 19 730 19 669 -2 c 128,-1,46
 608 -23 608 -23 518 -23 c 0,47,48
 441 -23 441 -23 384.5 -8.5 c 128,-1,49
 328 6 328 6 287.5 28 c 128,-1,50
 247 50 247 50 221.5 76 c 128,-1,51
 196 102 196 102 183 125 c 0,52,53
 173 142 173 142 161 167.5 c 128,-1,54
 149 193 149 193 138.5 235.5 c 128,-1,55
 128 278 128 278 121 343.5 c 128,-1,56
 114 409 114 409 114 505 c 0,57,58
 114 608 114 608 123.5 680.5 c 128,-1,59
 133 753 133 753 147.5 802.5 c 128,-1,60
 162 852 162 852 180 881.5 c 128,-1,61
 198 911 198 911 215 929 c 0,62,63
 228 942 228 942 251.5 960 c 128,-1,64
 275 978 275 978 311.5 994.5 c 128,-1,65
 348 1011 348 1011 399.5 1022 c 128,-1,66
 451 1033 451 1033 520 1033 c 0,67,68
 596 1033 596 1033 652.5 1018.5 c 128,-1,69
 709 1004 709 1004 748.5 980 c 128,-1,70
 788 956 788 956 812.5 924 c 128,-1,71
 837 892 837 892 851 857 c 1,72,-1
 851 1441 l 1,38,-1
EndSplineSet
EndChar

StartChar: e
Encoding: 101 101 71
Width: 1096
GlyphClass: 2
Flags: W
LayerCount: 2
Fore
SplineSet
601 594 m 1,0,-1
 755 594 l 1,1,-1
 834 588 l 1,2,3
 830 659 830 659 821 708 c 128,-1,4
 812 757 812 757 800.5 789 c 128,-1,5
 789 821 789 821 776.5 838 c 128,-1,6
 764 855 764 855 753 863 c 0,7,8
 731 878 731 878 684 894.5 c 128,-1,9
 637 911 637 911 556 911 c 0,10,11
 505 911 505 911 468 904.5 c 128,-1,12
 431 898 431 898 405 888 c 128,-1,13
 379 878 379 878 362.5 867 c 128,-1,14
 346 856 346 856 337 846 c 256,15,16
 328 836 328 836 317 818.5 c 128,-1,17
 306 801 306 801 296 771 c 128,-1,18
 286 741 286 741 278 698 c 128,-1,19
 270 655 270 655 268 594 c 1,20,-1
 601 594 l 1,0,-1
979 273 m 1,21,22
 971 225 971 225 961 192.5 c 128,-1,23
 951 160 951 160 941 139.5 c 128,-1,24
 931 119 931 119 921.5 108 c 128,-1,25
 912 97 912 97 906 90 c 0,26,27
 890 71 890 71 862.5 51 c 128,-1,28
 835 31 835 31 794 14.5 c 128,-1,29
 753 -2 753 -2 696 -12.5 c 128,-1,30
 639 -23 639 -23 564 -23 c 0,31,32
 486 -23 486 -23 428.5 -12.5 c 128,-1,33
 371 -2 371 -2 330.5 14.5 c 128,-1,34
 290 31 290 31 264 51 c 128,-1,35
 238 71 238 71 222 89 c 0,36,37
 207 107 207 107 187.5 137.5 c 128,-1,38
 168 168 168 168 150.5 217 c 128,-1,39
 133 266 133 266 121.5 336.5 c 128,-1,40
 110 407 110 407 110 505 c 0,41,42
 110 604 110 604 122 674 c 128,-1,43
 134 744 134 744 151.5 792 c 128,-1,44
 169 840 169 840 188.5 869.5 c 128,-1,45
 208 899 208 899 224 917 c 0,46,47
 239 935 239 935 266 955.5 c 128,-1,48
 293 976 293 976 333.5 993.5 c 128,-1,49
 374 1011 374 1011 430 1022.5 c 128,-1,50
 486 1034 486 1034 560 1034 c 0,51,52
 643 1034 643 1034 703 1020.5 c 128,-1,53
 763 1007 763 1007 804.5 986.5 c 128,-1,54
 846 966 846 966 871.5 942.5 c 128,-1,55
 897 919 897 919 912 898 c 0,56,57
 923 883 923 883 936 858.5 c 128,-1,58
 949 834 949 834 961 797 c 128,-1,59
 973 760 973 760 981 709 c 128,-1,60
 989 658 989 658 989 591 c 0,61,62
 989 586 989 586 988.5 570.5 c 128,-1,63
 988 555 988 555 988 537.5 c 128,-1,64
 988 520 988 520 987.5 503.5 c 128,-1,65
 987 487 987 487 987 480 c 1,66,-1
 266 480 l 1,67,68
 266 369 266 369 285 300 c 128,-1,69
 304 231 304 231 327 193 c 0,70,71
 354 148 354 148 389 129 c 1,72,73
 403 120 403 120 428 113 c 0,74,75
 449 107 449 107 483 102 c 128,-1,76
 517 97 517 97 568 97 c 0,77,78
 618 97 618 97 654.5 102 c 128,-1,79
 691 107 691 107 716 114.5 c 128,-1,80
 741 122 741 122 756.5 129.5 c 128,-1,81
 772 137 772 137 781 143 c 0,82,83
 808 161 808 161 825 198.5 c 128,-1,84
 842 236 842 236 855 307 c 1,85,-1
 979 273 l 1,21,22
EndSplineSet
EndChar

StartChar: f
Encoding: 102 102 72
Width: 697
GlyphClass: 2
Flags: W
LayerCount: 2
Fore
SplineSet
630 899 m 1,0,-1
 411 899 l 1,1,-1
 411 0 l 1,2,-1
 258 0 l 1,3,-1
 258 899 l 1,4,-1
 66 899 l 1,5,-1
 66 1011 l 1,6,-1
 258 1011 l 1,7,-1
 258 1135 l 2,8,9
 258 1208 258 1208 264 1254 c 128,-1,10
 270 1300 270 1300 278.5 1328 c 128,-1,11
 287 1356 287 1356 296.5 1369.5 c 128,-1,12
 306 1383 306 1383 313 1390 c 0,13,14
 318 1395 318 1395 331.5 1406 c 128,-1,15
 345 1417 345 1417 369 1428.5 c 128,-1,16
 393 1440 393 1440 429.5 1449 c 128,-1,17
 466 1458 466 1458 519 1458 c 0,18,19
 555 1458 555 1458 580.5 1453 c 128,-1,20
 606 1448 606 1448 623 1442 c 0,21,22
 642 1435 642 1435 654 1426 c 0,23,24
 667 1416 667 1416 680 1403 c 0,25,26
 691 1391 691 1391 702.5 1373.5 c 128,-1,27
 714 1356 714 1356 722 1331 c 1,28,-1
 640 1261 l 1,29,30
 631 1277 631 1277 622 1288.5 c 128,-1,31
 613 1300 613 1300 605 1307 c 0,32,33
 596 1315 596 1315 589 1320 c 1,34,35
 582 1323 582 1323 572 1326 c 0,36,37
 564 1328 564 1328 551 1330 c 128,-1,38
 538 1332 538 1332 521 1332 c 0,39,40
 489 1332 489 1332 470.5 1327 c 128,-1,41
 452 1322 452 1322 443 1316 c 0,42,43
 432 1309 432 1309 429 1301 c 1,44,45
 424 1298 424 1298 420 1279 c 0,46,47
 416 1262 416 1262 413.5 1226 c 128,-1,48
 411 1190 411 1190 411 1122 c 2,49,-1
 411 1011 l 1,50,-1
 630 1011 l 1,51,-1
 630 899 l 1,0,-1
EndSplineSet
EndChar

StartChar: g
Encoding: 103 103 73
Width: 1161
GlyphClass: 2
Flags: W
LayerCount: 2
Fore
SplineSet
557 911 m 256,0,1
 499 911 499 911 459 904 c 128,-1,2
 419 897 419 897 392.5 886 c 128,-1,3
 366 875 366 875 351 862 c 128,-1,4
 336 849 336 849 327 837 c 256,5,6
 318 825 318 825 308.5 805 c 128,-1,7
 299 785 299 785 291 749 c 128,-1,8
 283 713 283 713 277.5 657.5 c 128,-1,9
 272 602 272 602 272 518 c 256,10,11
 272 434 272 434 277 377 c 128,-1,12
 282 320 282 320 290.5 283 c 128,-1,13
 299 246 299 246 308.5 224.5 c 128,-1,14
 318 203 318 203 327 190 c 256,15,16
 336 177 336 177 351 163.5 c 128,-1,17
 366 150 366 150 393 139.5 c 128,-1,18
 420 129 420 129 460.5 122 c 128,-1,19
 501 115 501 115 560 115 c 256,20,21
 619 115 619 115 659 121.5 c 128,-1,22
 699 128 699 128 725.5 138.5 c 128,-1,23
 752 149 752 149 767.5 162 c 128,-1,24
 783 175 783 175 792 187 c 256,25,26
 801 199 801 199 811.5 219 c 128,-1,27
 822 239 822 239 831 274 c 128,-1,28
 840 309 840 309 846 362.5 c 128,-1,29
 852 416 852 416 852 496 c 0,30,31
 852 580 852 580 846 641 c 128,-1,32
 840 702 840 702 831 743 c 128,-1,33
 822 784 822 784 811 807.5 c 128,-1,34
 800 831 800 831 790 842 c 0,35,36
 779 853 779 853 763 865.5 c 128,-1,37
 747 878 747 878 720.5 888 c 128,-1,38
 694 898 694 898 654.5 904.5 c 128,-1,39
 615 911 615 911 557 911 c 256,0,1
850 150 m 1,40,41
 829 116 829 116 801 86.5 c 128,-1,42
 773 57 773 57 733.5 35 c 128,-1,43
 694 13 694 13 641 0.5 c 128,-1,44
 588 -12 588 -12 516 -12 c 256,45,46
 444 -12 444 -12 390 0.5 c 128,-1,47
 336 13 336 13 298 31.5 c 128,-1,48
 260 50 260 50 236 71.5 c 128,-1,49
 212 93 212 93 199 111 c 0,50,51
 185 129 185 129 170.5 157.5 c 128,-1,52
 156 186 156 186 143.5 232 c 128,-1,53
 131 278 131 278 123 345 c 128,-1,54
 115 412 115 412 115 507 c 0,55,56
 115 607 115 607 123 676 c 128,-1,57
 131 745 131 745 144 791.5 c 128,-1,58
 157 838 157 838 171.5 865.5 c 128,-1,59
 186 893 186 893 200 911 c 0,60,61
 213 929 213 929 238 950.5 c 128,-1,62
 263 972 263 972 302 990.5 c 128,-1,63
 341 1009 341 1009 395 1021.5 c 128,-1,64
 449 1034 449 1034 522 1034 c 0,65,66
 611 1034 611 1034 671.5 1012.5 c 128,-1,67
 732 991 732 991 772 962 c 128,-1,68
 812 933 812 933 834 901.5 c 128,-1,69
 856 870 856 870 868 851 c 1,70,-1
 887 1011 l 1,71,-1
 1005 1011 l 1,72,-1
 1005 62 l 2,73,74
 1005 -23 1005 -23 993.5 -85 c 128,-1,75
 982 -147 982 -147 965.5 -190 c 128,-1,76
 949 -233 949 -233 930.5 -259.5 c 128,-1,77
 912 -286 912 -286 898 -300 c 0,78,79
 883 -314 883 -314 857 -332 c 128,-1,80
 831 -350 831 -350 790.5 -365.5 c 128,-1,81
 750 -381 750 -381 693.5 -391.5 c 128,-1,82
 637 -402 637 -402 562 -402 c 0,83,84
 491 -402 491 -402 438 -393.5 c 128,-1,85
 385 -385 385 -385 347.5 -373.5 c 128,-1,86
 310 -362 310 -362 287 -350.5 c 128,-1,87
 264 -339 264 -339 254 -332 c 0,88,89
 244 -326 244 -326 230 -312.5 c 128,-1,90
 216 -299 216 -299 202.5 -277.5 c 128,-1,91
 189 -256 189 -256 177.5 -224.5 c 128,-1,92
 166 -193 166 -193 162 -150 c 1,93,-1
 249 -103 l 1,94,95
 269 -147 269 -147 285 -172.5 c 128,-1,96
 301 -198 301 -198 313 -212 c 0,97,98
 327 -229 327 -229 339 -235 c 1,99,100
 353 -247 353 -247 382 -257 c 0,101,102
 407 -265 407 -265 449.5 -272 c 128,-1,103
 492 -279 492 -279 561 -279 c 0,104,105
 613 -279 613 -279 653 -272 c 128,-1,106
 693 -265 693 -265 722.5 -254.5 c 128,-1,107
 752 -244 752 -244 770.5 -231.5 c 128,-1,108
 789 -219 789 -219 798 -207 c 0,109,110
 804 -199 804 -199 813.5 -184.5 c 128,-1,111
 823 -170 823 -170 831.5 -140.5 c 128,-1,112
 840 -111 840 -111 846 -64 c 128,-1,113
 852 -17 852 -17 851 56 c 2,114,-1
 850 150 l 1,40,41
EndSplineSet
EndChar

StartChar: h
Encoding: 104 104 74
Width: 1163
GlyphClass: 2
Flags: W
LayerCount: 2
Fore
SplineSet
157 1441 m 1,0,-1
 310 1441 l 1,1,-1
 310 885 l 1,2,3
 330 913 330 913 359.5 939.5 c 128,-1,4
 389 966 389 966 430.5 987 c 128,-1,5
 472 1008 472 1008 526.5 1021 c 128,-1,6
 581 1034 581 1034 652 1034 c 0,7,8
 719 1034 719 1034 769 1024 c 128,-1,9
 819 1014 819 1014 853.5 1000 c 128,-1,10
 888 986 888 986 909.5 970 c 128,-1,11
 931 954 931 954 942 942 c 0,12,13
 955 927 955 927 968 904.5 c 128,-1,14
 981 882 981 882 991 840.5 c 128,-1,15
 1001 799 1001 799 1007.5 733.5 c 128,-1,16
 1014 668 1014 668 1014 568 c 2,17,-1
 1014 0 l 1,18,-1
 860 0 l 1,19,-1
 860 616 l 2,20,21
 860 676 860 676 855.5 715 c 128,-1,22
 851 754 851 754 844 778 c 128,-1,23
 837 802 837 802 830 814.5 c 128,-1,24
 823 827 823 827 819 835 c 0,25,26
 812 847 812 847 799 860 c 128,-1,27
 786 873 786 873 762 883.5 c 128,-1,28
 738 894 738 894 700 901 c 128,-1,29
 662 908 662 908 604 908 c 0,30,31
 543 908 543 908 500 900 c 128,-1,32
 457 892 457 892 427.5 880 c 128,-1,33
 398 868 398 868 381 853 c 128,-1,34
 364 838 364 838 355 824 c 0,35,36
 349 815 349 815 341.5 800.5 c 128,-1,37
 334 786 334 786 327 759.5 c 128,-1,38
 320 733 320 733 315 692 c 128,-1,39
 310 651 310 651 310 589 c 2,40,-1
 310 0 l 1,41,-1
 157 0 l 1,42,-1
 157 1441 l 1,0,-1
EndSplineSet
EndChar

StartChar: i
Encoding: 105 105 75
Width: 470
GlyphClass: 2
Flags: W
LayerCount: 2
Fore
SplineSet
158 0 m 1,0,-1
 158 1011 l 1,1,-1
 312 1011 l 1,2,-1
 312 0 l 1,3,-1
 158 0 l 1,0,-1
234 1370 m 0,4,5
 264 1370 264 1370 282.5 1363.5 c 128,-1,6
 301 1357 301 1357 311 1344.5 c 128,-1,7
 321 1332 321 1332 324.5 1313.5 c 128,-1,8
 328 1295 328 1295 328 1271 c 0,9,10
 328 1223 328 1223 309.5 1204 c 128,-1,11
 291 1185 291 1185 234 1185 c 0,12,13
 183 1185 183 1185 162.5 1204 c 128,-1,14
 142 1223 142 1223 142 1271 c 0,15,16
 142 1320 142 1320 161 1345 c 128,-1,17
 180 1370 180 1370 234 1370 c 0,4,5
EndSplineSet
EndChar

StartChar: j
Encoding: 106 106 76
Width: 469
GlyphClass: 2
Flags: W
LayerCount: 2
Fore
SplineSet
232 1370 m 0,0,1
 262 1370 262 1370 280.5 1363.5 c 128,-1,2
 299 1357 299 1357 309 1344.5 c 128,-1,3
 319 1332 319 1332 322.5 1313.5 c 128,-1,4
 326 1295 326 1295 326 1271 c 0,5,6
 326 1223 326 1223 307.5 1204 c 128,-1,7
 289 1185 289 1185 232 1185 c 0,8,9
 181 1185 181 1185 160.5 1204 c 128,-1,10
 140 1223 140 1223 140 1271 c 0,11,12
 140 1320 140 1320 159 1345 c 128,-1,13
 178 1370 178 1370 232 1370 c 0,0,1
158 12 m 2,14,15
 158 -50 158 -50 154.5 -87.5 c 128,-1,16
 151 -125 151 -125 146 -145 c 0,17,18
 141 -169 141 -169 135 -178 c 1,19,20
 129 -190 129 -190 113 -199 c 0,21,22
 99 -207 99 -207 74.5 -213 c 128,-1,23
 50 -219 50 -219 10 -219 c 0,24,25
 -19 -219 -19 -219 -40 -215.5 c 128,-1,26
 -61 -212 -61 -212 -75 -207 c 0,27,28
 -91 -202 -91 -202 -101 -195 c 1,29,30
 -108 -188 -108 -188 -116 -176 c 0,31,32
 -123 -165 -123 -165 -130.5 -148.5 c 128,-1,33
 -138 -132 -138 -132 -145 -106 c 1,34,-1
 -254 -130 l 1,35,36
 -251 -173 -251 -173 -240.5 -202 c 128,-1,37
 -230 -231 -230 -231 -219 -249 c 0,38,39
 -206 -270 -206 -270 -190 -283 c 1,40,41
 -175 -297 -175 -297 -148 -308 c 0,42,43
 -125 -317 -125 -317 -85.5 -324.5 c 128,-1,44
 -46 -332 -46 -332 14 -332 c 0,45,46
 81 -332 81 -332 126.5 -319 c 128,-1,47
 172 -306 172 -306 201 -290 c 0,48,49
 234 -272 234 -272 255 -247 c 1,50,51
 271 -226 271 -226 283 -190 c 0,52,53
 294 -159 294 -159 302.5 -109.5 c 128,-1,54
 311 -60 311 -60 311 12 c 2,55,-1
 311 1011 l 1,56,-1
 158 1011 l 1,57,-1
 158 12 l 2,14,15
EndSplineSet
EndChar

StartChar: k
Encoding: 107 107 77
Width: 995
GlyphClass: 2
Flags: W
LayerCount: 2
Fore
SplineSet
158 1441 m 1,0,-1
 311 1441 l 1,1,-1
 311 517 l 1,2,-1
 421 633 l 1,3,-1
 771 1030 l 1,4,-1
 904 973 l 1,5,-1
 555 591 l 1,6,-1
 950 26 l 1,7,-1
 815 -21 l 1,8,-1
 431 523 l 1,9,-1
 311 405 l 1,10,-1
 311 0 l 1,11,-1
 158 0 l 1,12,-1
 158 1441 l 1,0,-1
EndSplineSet
EndChar

StartChar: l
Encoding: 108 108 78
Width: 484
GlyphClass: 2
Flags: W
LayerCount: 2
Fore
SplineSet
165 1441 m 1,0,-1
 318 1441 l 1,1,-1
 318 0 l 1,2,-1
 165 0 l 1,3,-1
 165 1441 l 1,0,-1
EndSplineSet
EndChar

StartChar: m
Encoding: 109 109 79
Width: 1730
GlyphClass: 2
Flags: W
LayerCount: 2
Fore
SplineSet
1530 910 m 1,0,1
 1544 887 1544 887 1555 844 c 0,2,3
 1565 807 1565 807 1573 745 c 128,-1,4
 1581 683 1581 683 1581 586 c 2,5,-1
 1581 0 l 1,6,-1
 1428 0 l 1,7,-1
 1428 619 l 2,8,9
 1428 686 1428 686 1422 730 c 128,-1,10
 1416 774 1416 774 1406.5 802 c 128,-1,11
 1397 830 1397 830 1385.5 844 c 128,-1,12
 1374 858 1374 858 1364 866 c 0,13,14
 1358 871 1358 871 1348 878.5 c 128,-1,15
 1338 886 1338 886 1320.5 892.5 c 128,-1,16
 1303 899 1303 899 1276.5 904 c 128,-1,17
 1250 909 1250 909 1210 909 c 0,18,19
 1157 909 1157 909 1121 902.5 c 128,-1,20
 1085 896 1085 896 1061 886 c 128,-1,21
 1037 876 1037 876 1023 864.5 c 128,-1,22
 1009 853 1009 853 1001 843 c 0,23,24
 993 832 993 832 983 815.5 c 128,-1,25
 973 799 973 799 965 769.5 c 128,-1,26
 957 740 957 740 951.5 695.5 c 128,-1,27
 946 651 946 651 946 585 c 2,28,-1
 946 0 l 1,29,-1
 792 0 l 1,30,-1
 792 603 l 2,31,32
 792 674 792 674 786 721.5 c 128,-1,33
 780 769 780 769 771 798.5 c 128,-1,34
 762 828 762 828 750.5 843.5 c 128,-1,35
 739 859 739 859 729 867 c 0,36,37
 723 871 723 871 713 878.5 c 128,-1,38
 703 886 703 886 685.5 893 c 128,-1,39
 668 900 668 900 641 905 c 128,-1,40
 614 910 614 910 574 910 c 0,41,42
 525 910 525 910 492.5 904 c 128,-1,43
 460 898 460 898 438.5 890 c 128,-1,44
 417 882 417 882 405 873 c 128,-1,45
 393 864 393 864 385 858 c 0,46,47
 370 846 370 846 356.5 827 c 128,-1,48
 343 808 343 808 333 772.5 c 128,-1,49
 323 737 323 737 317 681 c 128,-1,50
 311 625 311 625 311 540 c 2,51,-1
 311 0 l 1,52,-1
 158 0 l 1,53,-1
 158 1011 l 1,54,-1
 285 1011 l 1,55,-1
 296 864 l 1,56,57
 314 886 314 886 339.5 915 c 128,-1,58
 365 944 365 944 403 970.5 c 128,-1,59
 441 997 441 997 493.5 1015.5 c 128,-1,60
 546 1034 546 1034 618 1034 c 0,61,62
 680 1034 680 1034 725.5 1023.5 c 128,-1,63
 771 1013 771 1013 802.5 997 c 128,-1,64
 834 981 834 981 853.5 963.5 c 128,-1,65
 873 946 873 946 883 932 c 0,66,67
 891 921 891 921 901 903 c 128,-1,68
 911 885 911 885 921 857 c 1,69,70
 938 879 938 879 962 909 c 128,-1,71
 986 939 986 939 1024 967 c 128,-1,72
 1062 995 1062 995 1117.5 1014.5 c 128,-1,73
 1173 1034 1173 1034 1254 1034 c 0,74,75
 1339 1034 1339 1034 1392.5 1014.5 c 128,-1,76
 1446 995 1446 995 1477 972 c 0,77,78
 1513 945 1513 945 1530 910 c 1,0,1
EndSplineSet
EndChar

StartChar: n
Encoding: 110 110 80
Width: 1160
GlyphClass: 2
Flags: W
LayerCount: 2
Fore
SplineSet
952 908 m 1,0,1
 968 883 968 883 981 840 c 0,2,3
 992 803 992 803 1001.5 741.5 c 128,-1,4
 1011 680 1011 680 1011 587 c 2,5,-1
 1011 0 l 1,6,-1
 857 0 l 1,7,-1
 857 617 l 2,8,9
 857 677 857 677 852 715.5 c 128,-1,10
 847 754 847 754 840.5 778 c 128,-1,11
 834 802 834 802 826.5 814.5 c 128,-1,12
 819 827 819 827 815 834 c 0,13,14
 807 846 807 846 794 859.5 c 128,-1,15
 781 873 781 873 757 883.5 c 128,-1,16
 733 894 733 894 697 901 c 128,-1,17
 661 908 661 908 607 908 c 0,18,19
 544 908 544 908 500.5 900 c 128,-1,20
 457 892 457 892 427.5 879.5 c 128,-1,21
 398 867 398 867 381.5 852 c 128,-1,22
 365 837 365 837 356 823 c 256,23,24
 347 809 347 809 339 788.5 c 128,-1,25
 331 768 331 768 325 735.5 c 128,-1,26
 319 703 319 703 315.5 657 c 128,-1,27
 312 611 312 611 312 545 c 2,28,-1
 312 0 l 1,29,-1
 158 0 l 1,30,-1
 158 1011 l 1,31,-1
 285 1011 l 1,32,-1
 297 863 l 1,33,34
 315 889 315 889 344 919 c 128,-1,35
 373 949 373 949 416 974.5 c 128,-1,36
 459 1000 459 1000 518 1017 c 128,-1,37
 577 1034 577 1034 656 1034 c 0,38,39
 745 1034 745 1034 802.5 1014 c 128,-1,40
 860 994 860 994 893 971 c 0,41,42
 932 943 932 943 952 908 c 1,0,1
EndSplineSet
EndChar

StartChar: o
Encoding: 111 111 81
Width: 1153
GlyphClass: 2
Flags: W
LayerCount: 2
Fore
SplineSet
574 909 m 0,0,1
 514 909 514 909 471.5 902 c 128,-1,2
 429 895 429 895 400 883.5 c 128,-1,3
 371 872 371 872 353 858.5 c 128,-1,4
 335 845 335 845 325 832 c 256,5,6
 315 819 315 819 304.5 798 c 128,-1,7
 294 777 294 777 285.5 739.5 c 128,-1,8
 277 702 277 702 271.5 644.5 c 128,-1,9
 266 587 266 587 266 502 c 0,10,11
 266 419 266 419 271.5 363 c 128,-1,12
 277 307 277 307 286 270 c 128,-1,13
 295 233 295 233 305.5 211.5 c 128,-1,14
 316 190 316 190 326 178 c 256,15,16
 336 166 336 166 354.5 152.5 c 128,-1,17
 373 139 373 139 403 127.5 c 128,-1,18
 433 116 433 116 476.5 109 c 128,-1,19
 520 102 520 102 580 102 c 0,20,21
 639 102 639 102 681.5 109.5 c 128,-1,22
 724 117 724 117 753 128 c 128,-1,23
 782 139 782 139 799.5 153 c 128,-1,24
 817 167 817 167 827 180 c 256,25,26
 837 193 837 193 847.5 214 c 128,-1,27
 858 235 858 235 866.5 272 c 128,-1,28
 875 309 875 309 880.5 365 c 128,-1,29
 886 421 886 421 886 504 c 0,30,31
 886 591 886 591 880 649 c 128,-1,32
 874 707 874 707 864.5 744.5 c 128,-1,33
 855 782 855 782 844 803 c 128,-1,34
 833 824 833 824 823 836 c 0,35,36
 812 848 812 848 794 861 c 128,-1,37
 776 874 776 874 746.5 884.5 c 128,-1,38
 717 895 717 895 674.5 902 c 128,-1,39
 632 909 632 909 574 909 c 0,0,1
574 1034 m 256,40,41
 652 1034 652 1034 712.5 1021.5 c 128,-1,42
 773 1009 773 1009 817.5 990.5 c 128,-1,43
 862 972 862 972 891.5 951 c 128,-1,44
 921 930 921 930 937 913 c 0,45,46
 953 895 953 895 971.5 865.5 c 128,-1,47
 990 836 990 836 1006 789 c 128,-1,48
 1022 742 1022 742 1032.5 673.5 c 128,-1,49
 1043 605 1043 605 1043 509 c 256,50,51
 1043 413 1043 413 1032.5 343 c 128,-1,52
 1022 273 1022 273 1006 224.5 c 128,-1,53
 990 176 990 176 971.5 145.5 c 128,-1,54
 953 115 953 115 937 97 c 256,55,56
 921 79 921 79 892 58 c 128,-1,57
 863 37 863 37 818.5 19 c 128,-1,58
 774 1 774 1 713.5 -11 c 128,-1,59
 653 -23 653 -23 574 -23 c 0,60,61
 496 -23 496 -23 436 -11 c 128,-1,62
 376 1 376 1 332 19.5 c 128,-1,63
 288 38 288 38 259.5 59 c 128,-1,64
 231 80 231 80 215 98 c 256,65,66
 199 116 199 116 180.5 146.5 c 128,-1,67
 162 177 162 177 146 225 c 128,-1,68
 130 273 130 273 119.5 342 c 128,-1,69
 109 411 109 411 109 506 c 0,70,71
 109 602 109 602 119.5 670.5 c 128,-1,72
 130 739 130 739 145.5 787 c 128,-1,73
 161 835 161 835 179.5 864.5 c 128,-1,74
 198 894 198 894 214 912 c 256,75,76
 230 930 230 930 259 951 c 128,-1,77
 288 972 288 972 332.5 990.5 c 128,-1,78
 377 1009 377 1009 436.5 1021.5 c 128,-1,79
 496 1034 496 1034 574 1034 c 256,40,41
EndSplineSet
EndChar

StartChar: p
Encoding: 112 112 82
Width: 1162
GlyphClass: 2
Flags: W
LayerCount: 2
Fore
SplineSet
605 102 m 0,0,1
 663 102 663 102 702.5 108.5 c 128,-1,2
 742 115 742 115 768.5 126 c 128,-1,3
 795 137 795 137 810 150.5 c 128,-1,4
 825 164 825 164 834 178 c 0,5,6
 842 191 842 191 852 213.5 c 128,-1,7
 862 236 862 236 870.5 275 c 128,-1,8
 879 314 879 314 884.5 373 c 128,-1,9
 890 432 890 432 890 517 c 0,10,11
 890 600 890 600 884.5 655.5 c 128,-1,12
 879 711 879 711 870.5 746.5 c 128,-1,13
 862 782 862 782 852.5 802 c 128,-1,14
 843 822 843 822 835 834 c 256,15,16
 827 846 827 846 812.5 858.5 c 128,-1,17
 798 871 798 871 772 882 c 128,-1,18
 746 893 746 893 706.5 900 c 128,-1,19
 667 907 667 907 609 907 c 0,20,21
 549 907 549 907 508 899.5 c 128,-1,22
 467 892 467 892 440 881 c 128,-1,23
 413 870 413 870 397.5 856.5 c 128,-1,24
 382 843 382 843 373 830 c 0,25,26
 363 817 363 817 352 796.5 c 128,-1,27
 341 776 341 776 332 740.5 c 128,-1,28
 323 705 323 705 317 649.5 c 128,-1,29
 311 594 311 594 311 510 c 0,30,31
 311 428 311 428 321.5 367 c 128,-1,32
 332 306 332 306 350 261.5 c 128,-1,33
 368 217 368 217 391.5 187 c 128,-1,34
 415 157 415 157 442 139 c 0,35,36
 447 135 447 135 455.5 129 c 128,-1,37
 464 123 464 123 481.5 117 c 128,-1,38
 499 111 499 111 528.5 106.5 c 128,-1,39
 558 102 558 102 605 102 c 0,0,1
295 841 m 1,40,41
 307 865 307 865 329 898 c 128,-1,42
 351 931 351 931 391.5 961 c 128,-1,43
 432 991 432 991 494.5 1012.5 c 128,-1,44
 557 1034 557 1034 648 1034 c 0,45,46
 720 1034 720 1034 773.5 1021.5 c 128,-1,47
 827 1009 827 1009 865.5 990.5 c 128,-1,48
 904 972 904 972 928 951 c 128,-1,49
 952 930 952 930 965 912 c 256,50,51
 978 894 978 894 992.5 867 c 128,-1,52
 1007 840 1007 840 1019 794.5 c 128,-1,53
 1031 749 1031 749 1039 680.5 c 128,-1,54
 1047 612 1047 612 1047 512 c 0,55,56
 1047 411 1047 411 1038.5 341 c 128,-1,57
 1030 271 1030 271 1017.5 223 c 128,-1,58
 1005 175 1005 175 989.5 146 c 128,-1,59
 974 117 974 117 961 99 c 0,60,61
 947 81 947 81 922.5 59.5 c 128,-1,62
 898 38 898 38 859 20 c 128,-1,63
 820 2 820 2 765.5 -10.5 c 128,-1,64
 711 -23 711 -23 638 -23 c 0,65,66
 563 -23 563 -23 510.5 -7 c 128,-1,67
 458 9 458 9 420.5 33.5 c 128,-1,68
 383 58 383 58 357.5 89 c 128,-1,69
 332 120 332 120 312 150 c 1,70,-1
 312 -379 l 1,71,-1
 158 -379 l 1,72,-1
 158 1011 l 1,73,-1
 279 1011 l 1,74,-1
 295 841 l 1,40,41
EndSplineSet
EndChar

StartChar: q
Encoding: 113 113 83
Width: 1162
GlyphClass: 2
Flags: W
LayerCount: 2
Fore
SplineSet
849 -379 m 1,0,-1
 849 160 l 1,1,2
 825 107 825 107 791 71.5 c 128,-1,3
 757 36 757 36 715 15 c 128,-1,4
 673 -6 673 -6 623.5 -14.5 c 128,-1,5
 574 -23 574 -23 519 -23 c 0,6,7
 444 -23 444 -23 387.5 -9 c 128,-1,8
 331 5 331 5 291 26.5 c 128,-1,9
 251 48 251 48 225 73.5 c 128,-1,10
 199 99 199 99 186 122 c 0,11,12
 176 139 176 139 163.5 165.5 c 128,-1,13
 151 192 151 192 140.5 236.5 c 128,-1,14
 130 281 130 281 122.5 346.5 c 128,-1,15
 115 412 115 412 115 506 c 0,16,17
 115 602 115 602 122 667 c 128,-1,18
 129 732 129 732 139.5 775 c 128,-1,19
 150 818 150 818 162.5 843.5 c 128,-1,20
 175 869 175 869 185 887 c 0,21,22
 198 910 198 910 223.5 936 c 128,-1,23
 249 962 249 962 289.5 983.5 c 128,-1,24
 330 1005 330 1005 387 1019.5 c 128,-1,25
 444 1034 444 1034 521 1034 c 0,26,27
 612 1034 612 1034 673.5 1011.5 c 128,-1,28
 735 989 735 989 775 958.5 c 128,-1,29
 815 928 815 928 836 896.5 c 128,-1,30
 857 865 857 865 867 848 c 1,31,-1
 885 1011 l 1,32,-1
 1004 1011 l 1,33,-1
 1004 -379 l 1,34,-1
 849 -379 l 1,0,-1
555 102 m 0,35,36
 614 103 614 103 655 110.5 c 128,-1,37
 696 118 696 118 723 129 c 128,-1,38
 750 140 750 140 766 153.5 c 128,-1,39
 782 167 782 167 791 179 c 256,40,41
 800 191 800 191 811 212.5 c 128,-1,42
 822 234 822 234 831 271.5 c 128,-1,43
 840 309 840 309 846 365 c 128,-1,44
 852 421 852 421 852 503 c 0,45,46
 852 579 852 579 847.5 632 c 128,-1,47
 843 685 843 685 837 720.5 c 128,-1,48
 831 756 831 756 825 775 c 128,-1,49
 819 794 819 794 815 802 c 0,50,51
 786 860 786 860 721.5 885 c 128,-1,52
 657 910 657 910 555 910 c 0,53,54
 497 910 497 910 457.5 902.5 c 128,-1,55
 418 895 418 895 391.5 883.5 c 128,-1,56
 365 872 365 872 350 858.5 c 128,-1,57
 335 845 335 845 326 832 c 256,58,59
 317 819 317 819 307 799 c 128,-1,60
 297 779 297 779 289 743 c 128,-1,61
 281 707 281 707 275.5 651.5 c 128,-1,62
 270 596 270 596 270 512 c 256,63,64
 270 428 270 428 275 371 c 128,-1,65
 280 314 280 314 288 275.5 c 128,-1,66
 296 237 296 237 305.5 215 c 128,-1,67
 315 193 315 193 324 180 c 256,68,69
 333 167 333 167 348 153 c 128,-1,70
 363 139 363 139 389.5 128 c 128,-1,71
 416 117 416 117 456 109.5 c 128,-1,72
 496 102 496 102 555 102 c 0,35,36
EndSplineSet
EndChar

StartChar: r
Encoding: 114 114 84
Width: 698
GlyphClass: 2
Flags: W
LayerCount: 2
Fore
SplineSet
303 854 m 1,0,1
 331 892 331 892 363 925 c 128,-1,2
 395 958 395 958 433 982 c 128,-1,3
 471 1006 471 1006 518 1020 c 128,-1,4
 565 1034 565 1034 624 1034 c 2,5,-1
 643 1034 l 1,6,-1
 643 881 l 1,7,-1
 636 881 l 2,8,9
 633 881 633 881 629 881.5 c 128,-1,10
 625 882 625 882 621 882 c 0,11,12
 579 882 579 882 531 874 c 128,-1,13
 483 866 483 866 439 845.5 c 128,-1,14
 395 825 395 825 359.5 789 c 128,-1,15
 324 753 324 753 306 698 c 1,16,-1
 306 0 l 1,17,-1
 158 0 l 1,18,-1
 158 817 l 1,19,-1
 158 1011 l 1,20,-1
 297 1011 l 1,21,-1
 303 854 l 1,0,1
EndSplineSet
EndChar

StartChar: s
Encoding: 115 115 85
Width: 962
GlyphClass: 2
Flags: W
LayerCount: 2
Fore
SplineSet
98 228 m 1,0,-1
 223 280 l 1,1,2
 234 223 234 223 254 187 c 128,-1,3
 274 151 274 151 305.5 131 c 128,-1,4
 337 111 337 111 380.5 104 c 128,-1,5
 424 97 424 97 483 97 c 0,6,7
 524 97 524 97 557.5 103 c 128,-1,8
 591 109 591 109 616 117.5 c 128,-1,9
 641 126 641 126 657 136 c 128,-1,10
 673 146 673 146 681 154 c 0,11,12
 692 164 692 164 703 191.5 c 128,-1,13
 714 219 714 219 714 259 c 0,14,15
 714 301 714 301 703.5 327.5 c 128,-1,16
 693 354 693 354 669.5 372 c 128,-1,17
 646 390 646 390 609 402.5 c 128,-1,18
 572 415 572 415 520 428 c 1,19,20
 428 453 428 453 353 476.5 c 128,-1,21
 278 500 278 500 225 534 c 128,-1,22
 172 568 172 568 143.5 618.5 c 128,-1,23
 115 669 115 669 115 749 c 0,24,25
 115 785 115 785 122 814.5 c 128,-1,26
 129 844 129 844 139.5 867 c 128,-1,27
 150 890 150 890 162.5 906.5 c 128,-1,28
 175 923 175 923 185 933 c 0,29,30
 198 946 198 946 223 963.5 c 128,-1,31
 248 981 248 981 285 996.5 c 128,-1,32
 322 1012 322 1012 371.5 1023 c 128,-1,33
 421 1034 421 1034 483 1034 c 0,34,35
 590 1034 590 1034 656.5 1009.5 c 128,-1,36
 723 985 723 985 761 949 c 128,-1,37
 799 913 799 913 813.5 872.5 c 128,-1,38
 828 832 828 832 832 799 c 1,39,-1
 715 747 l 1,40,41
 703 804 703 804 680.5 837 c 128,-1,42
 658 870 658 870 627.5 886.5 c 128,-1,43
 597 903 597 903 559.5 907 c 128,-1,44
 522 911 522 911 479 911 c 0,45,46
 440 911 440 911 409 905.5 c 128,-1,47
 378 900 378 900 355 892.5 c 128,-1,48
 332 885 332 885 317 876 c 128,-1,49
 302 867 302 867 294 860 c 0,50,51
 284 851 284 851 272.5 828 c 128,-1,52
 261 805 261 805 261 764 c 1,53,54
 263 727 263 727 272 702.5 c 128,-1,55
 281 678 281 678 303.5 660.5 c 128,-1,56
 326 643 326 643 364.5 629.5 c 128,-1,57
 403 616 403 616 465 601 c 1,58,59
 502 590 502 590 546 579 c 128,-1,60
 590 568 590 568 634.5 553 c 128,-1,61
 679 538 679 538 720.5 516.5 c 128,-1,62
 762 495 762 495 794 463 c 128,-1,63
 826 431 826 431 845.5 386 c 128,-1,64
 865 341 865 341 865 279 c 0,65,66
 865 241 865 241 858 208.5 c 128,-1,67
 851 176 851 176 840 150.5 c 128,-1,68
 829 125 829 125 815 106 c 128,-1,69
 801 87 801 87 787 75 c 0,70,71
 774 64 774 64 750 47.5 c 128,-1,72
 726 31 726 31 688.5 15 c 128,-1,73
 651 -1 651 -1 598 -12 c 128,-1,74
 545 -23 545 -23 475 -23 c 0,75,76
 371 -23 371 -23 303.5 -4 c 128,-1,77
 236 15 236 15 194.5 49 c 128,-1,78
 153 83 153 83 131.5 128.5 c 128,-1,79
 110 174 110 174 98 228 c 1,0,-1
EndSplineSet
EndChar

StartChar: t
Encoding: 116 116 86
Width: 760
GlyphClass: 2
Flags: W
LayerCount: 2
Fore
SplineSet
380 1381 m 1,0,-1
 380 1011 l 1,1,-1
 623 1011 l 1,2,-1
 623 896 l 1,3,-1
 380 896 l 1,4,-1
 380 287 l 2,5,6
 380 238 380 238 383 207 c 128,-1,7
 386 176 386 176 391 159 c 0,8,9
 396 139 396 139 403 129 c 0,10,11
 408 121 408 121 419 115 c 0,12,13
 429 110 429 110 445.5 106 c 128,-1,14
 462 102 462 102 490 102 c 0,15,16
 519 102 519 102 538 104 c 128,-1,17
 557 106 557 106 568 109 c 0,18,19
 580 112 580 112 587 116 c 0,20,21
 595 121 595 121 603 134 c 0,22,23
 610 145 610 145 618 165 c 128,-1,24
 626 185 626 185 632 220 c 1,25,-1
 723 167 l 1,26,27
 718 124 718 124 709 97.5 c 128,-1,28
 700 71 700 71 692 55 c 0,29,30
 682 37 682 37 671 27 c 0,31,32
 655 13 655 13 630 2 c 0,33,34
 608 -8 608 -8 574.5 -15.5 c 128,-1,35
 541 -23 541 -23 491 -23 c 256,36,37
 441 -23 441 -23 403.5 -15 c 128,-1,38
 366 -7 366 -7 339.5 4.5 c 128,-1,39
 313 16 313 16 297.5 29 c 128,-1,40
 282 42 282 42 276 51 c 0,41,42
 270 61 270 61 261.5 79 c 128,-1,43
 253 97 253 97 245 127.5 c 128,-1,44
 237 158 237 158 231.5 203 c 128,-1,45
 226 248 226 248 226 312 c 2,46,-1
 226 896 l 1,47,-1
 60 896 l 1,48,-1
 60 1011 l 1,49,-1
 238 1011 l 1,50,-1
 238 1333 l 1,51,-1
 380 1381 l 1,0,-1
EndSplineSet
EndChar

StartChar: u
Encoding: 117 117 87
Width: 1157
GlyphClass: 2
Flags: W
LayerCount: 2
Fore
SplineSet
149 1011 m 1,0,-1
 303 1011 l 1,1,-1
 303 403 l 2,2,3
 303 342 303 342 307 302.5 c 128,-1,4
 311 263 311 263 317 238 c 128,-1,5
 323 213 323 213 329.5 200 c 128,-1,6
 336 187 336 187 341 180 c 1,7,8
 347 167 347 167 359.5 153 c 128,-1,9
 372 139 372 139 395.5 128 c 128,-1,10
 419 117 419 117 456 109.5 c 128,-1,11
 493 102 493 102 547 102 c 0,12,13
 606 102 606 102 647 109 c 128,-1,14
 688 116 688 116 715 126.5 c 128,-1,15
 742 137 742 137 758 149 c 128,-1,16
 774 161 774 161 784 172 c 0,17,18
 794 182 794 182 805 198 c 128,-1,19
 816 214 816 214 825 242.5 c 128,-1,20
 834 271 834 271 840 314 c 128,-1,21
 846 357 846 357 846 422 c 2,22,-1
 846 1011 l 1,23,-1
 999 1011 l 1,24,-1
 999 0 l 1,25,-1
 871 0 l 1,26,-1
 858 146 l 1,27,28
 848 131 848 131 826 102.5 c 128,-1,29
 804 74 804 74 763 46 c 128,-1,30
 722 18 722 18 659 -2.5 c 128,-1,31
 596 -23 596 -23 505 -23 c 0,32,33
 439 -23 439 -23 390.5 -13.5 c 128,-1,34
 342 -4 342 -4 307.5 10 c 128,-1,35
 273 24 273 24 252 39.5 c 128,-1,36
 231 55 231 55 220 66 c 256,37,38
 209 77 209 77 196.5 97 c 128,-1,39
 184 117 184 117 173.5 152 c 128,-1,40
 163 187 163 187 156 241.5 c 128,-1,41
 149 296 149 296 149 376 c 2,42,-1
 149 1011 l 1,0,-1
EndSplineSet
EndChar

StartChar: v
Encoding: 118 118 88
Width: 967
GlyphClass: 2
Flags: W
LayerCount: 2
Fore
SplineSet
53 1011 m 1,0,-1
 213 1011 l 1,1,-1
 411 401 l 1,2,-1
 486 141 l 1,3,-1
 560 401 l 1,4,-1
 756 1011 l 1,5,-1
 914 1011 l 1,6,-1
 575 0 l 1,7,-1
 396 0 l 1,8,-1
 53 1011 l 1,0,-1
EndSplineSet
EndChar

StartChar: w
Encoding: 119 119 89
Width: 1485
GlyphClass: 2
Flags: W
LayerCount: 2
Fore
SplineSet
59 1011 m 1,0,-1
 220 1011 l 1,1,-1
 378 387 l 1,2,-1
 440 125 l 1,3,-1
 493 376 l 1,4,-1
 657 1011 l 1,5,-1
 827 1011 l 1,6,-1
 991 383 l 1,7,-1
 1050 127 l 1,8,-1
 1113 383 l 1,9,-1
 1267 1011 l 1,10,-1
 1425 1011 l 1,11,-1
 1135 0 l 1,12,-1
 960 0 l 1,13,-1
 790 651 l 1,14,-1
 741 874 l 1,15,-1
 690 645 l 1,16,-1
 525 0 l 1,17,-1
 349 0 l 1,18,-1
 59 1011 l 1,0,-1
EndSplineSet
EndChar

StartChar: x
Encoding: 120 120 90
Width: 968
GlyphClass: 2
Flags: W
LayerCount: 2
Fore
SplineSet
75 993 m 1,0,-1
 232 1027 l 1,1,-1
 484 650 l 1,2,-1
 731 1027 l 1,3,-1
 885 993 l 1,4,-1
 571 528 l 1,5,-1
 911 17 l 1,6,-1
 756 -17 l 1,7,-1
 485 400 l 1,8,-1
 217 -17 l 1,9,-1
 64 17 l 1,10,-1
 397 526 l 1,11,-1
 75 993 l 1,0,-1
EndSplineSet
EndChar

StartChar: y
Encoding: 121 121 91
Width: 1157
GlyphClass: 2
Flags: W
LayerCount: 2
Fore
SplineSet
845 128 m 1,0,1
 833 110 833 110 811 84 c 128,-1,2
 789 58 789 58 749.5 34.5 c 128,-1,3
 710 11 710 11 650.5 -6 c 128,-1,4
 591 -23 591 -23 505 -23 c 0,5,6
 439 -23 439 -23 390.5 -13.5 c 128,-1,7
 342 -4 342 -4 307.5 10 c 128,-1,8
 273 24 273 24 252 39.5 c 128,-1,9
 231 55 231 55 220 66 c 256,10,11
 209 77 209 77 196.5 97 c 128,-1,12
 184 117 184 117 173.5 152 c 128,-1,13
 163 187 163 187 156 241.5 c 128,-1,14
 149 296 149 296 149 376 c 2,15,-1
 149 1011 l 1,16,-1
 303 1011 l 1,17,-1
 303 403 l 2,18,19
 303 342 303 342 307 302.5 c 128,-1,20
 311 263 311 263 317 238 c 128,-1,21
 323 213 323 213 329.5 200 c 128,-1,22
 336 187 336 187 341 180 c 1,23,24
 347 167 347 167 359.5 153 c 128,-1,25
 372 139 372 139 395.5 128 c 128,-1,26
 419 117 419 117 456 109.5 c 128,-1,27
 493 102 493 102 547 102 c 0,28,29
 606 102 606 102 647 109 c 128,-1,30
 688 116 688 116 715 126.5 c 128,-1,31
 742 137 742 137 758 149 c 128,-1,32
 774 161 774 161 784 172 c 0,33,34
 794 182 794 182 805 198 c 128,-1,35
 816 214 816 214 825 242.5 c 128,-1,36
 834 271 834 271 840 314 c 128,-1,37
 846 357 846 357 846 422 c 2,38,-1
 846 1011 l 1,39,-1
 999 1011 l 1,40,-1
 999 62 l 2,41,42
 999 -23 999 -23 987.5 -85 c 128,-1,43
 976 -147 976 -147 959.5 -190 c 128,-1,44
 943 -233 943 -233 924.5 -259.5 c 128,-1,45
 906 -286 906 -286 892 -300 c 0,46,47
 877 -314 877 -314 851 -332 c 128,-1,48
 825 -350 825 -350 784.5 -365.5 c 128,-1,49
 744 -381 744 -381 687.5 -391.5 c 128,-1,50
 631 -402 631 -402 556 -402 c 0,51,52
 485 -402 485 -402 432 -393.5 c 128,-1,53
 379 -385 379 -385 341.5 -373.5 c 128,-1,54
 304 -362 304 -362 281 -350.5 c 128,-1,55
 258 -339 258 -339 248 -332 c 0,56,57
 238 -326 238 -326 224 -312.5 c 128,-1,58
 210 -299 210 -299 196.5 -277.5 c 128,-1,59
 183 -256 183 -256 171.5 -224.5 c 128,-1,60
 160 -193 160 -193 156 -150 c 1,61,-1
 243 -103 l 1,62,63
 263 -147 263 -147 279 -172.5 c 128,-1,64
 295 -198 295 -198 307 -212 c 0,65,66
 321 -229 321 -229 333 -235 c 1,67,68
 347 -247 347 -247 376 -257 c 0,69,70
 401 -265 401 -265 443.5 -272 c 128,-1,71
 486 -279 486 -279 555 -279 c 0,72,73
 607 -279 607 -279 647 -272 c 128,-1,74
 687 -265 687 -265 716.5 -254.5 c 128,-1,75
 746 -244 746 -244 764.5 -231.5 c 128,-1,76
 783 -219 783 -219 792 -207 c 0,77,78
 798 -199 798 -199 807 -184.5 c 128,-1,79
 816 -170 816 -170 824.5 -140.5 c 128,-1,80
 833 -111 833 -111 839 -64 c 128,-1,81
 845 -17 845 -17 845 56 c 2,82,-1
 845 128 l 1,0,1
EndSplineSet
EndChar

StartChar: z
Encoding: 122 122 92
Width: 900
GlyphClass: 2
Flags: W
LayerCount: 2
Fore
SplineSet
121 1011 m 1,0,-1
 787 1011 l 1,1,-1
 801 904 l 1,2,-1
 388 298 l 1,3,-1
 253 120 l 1,4,-1
 374 125 l 1,5,-1
 804 125 l 1,6,-1
 804 0 l 1,7,-1
 95 0 l 1,8,-1
 82 117 l 1,9,-1
 502 731 l 1,10,-1
 627 893 l 1,11,-1
 465 887 l 1,12,-1
 121 887 l 1,13,-1
 121 1011 l 1,0,-1
EndSplineSet
EndChar

StartChar: braceleft
Encoding: 123 123 93
Width: 573
GlyphClass: 2
Flags: W
LayerCount: 2
Fore
SplineSet
210 639 m 1,0,1
 246 616 246 616 274.5 590.5 c 128,-1,2
 303 565 303 565 326 532 c 1,3,4
 330 522 330 522 334 498 c 128,-1,5
 338 474 338 474 340.5 438.5 c 128,-1,6
 343 403 343 403 345 359 c 128,-1,7
 347 315 347 315 349 264 c 0,8,9
 352 171 352 171 358 95 c 128,-1,10
 364 19 364 19 380 -35.5 c 128,-1,11
 396 -90 396 -90 425 -120 c 128,-1,12
 454 -150 454 -150 503 -150 c 1,13,-1
 478 -250 l 1,14,15
 398 -250 398 -250 348.5 -226 c 128,-1,16
 299 -202 299 -202 270 -152 c 128,-1,17
 241 -102 241 -102 228 -25 c 128,-1,18
 215 52 215 52 208 157 c 0,19,20
 203 242 203 242 196.5 331 c 128,-1,21
 190 420 190 420 173 508 c 1,22,23
 150 531 150 531 122 549.5 c 128,-1,24
 94 568 94 568 60 581 c 1,25,-1
 60 697 l 1,26,27
 94 710 94 710 122 728.5 c 128,-1,28
 150 747 150 747 173 770 c 1,29,30
 190 858 190 858 196.5 947 c 128,-1,31
 203 1036 203 1036 208 1121 c 0,32,33
 215 1226 215 1226 228 1303 c 128,-1,34
 241 1380 241 1380 270 1430 c 128,-1,35
 299 1480 299 1480 348.5 1504 c 128,-1,36
 398 1528 398 1528 478 1528 c 1,37,-1
 503 1428 l 1,38,39
 454 1428 454 1428 425 1398 c 128,-1,40
 396 1368 396 1368 380 1313.5 c 128,-1,41
 364 1259 364 1259 358 1183 c 128,-1,42
 352 1107 352 1107 349 1014 c 0,43,44
 347 963 347 963 345 919 c 128,-1,45
 343 875 343 875 340.5 839.5 c 128,-1,46
 338 804 338 804 334 780 c 128,-1,47
 330 756 330 756 326 746 c 1,48,49
 303 713 303 713 274.5 687.5 c 128,-1,50
 246 662 246 662 210 639 c 1,0,1
EndSplineSet
EndChar

StartChar: bar
Encoding: 124 124 94
Width: 500
GlyphClass: 2
Flags: W
LayerCount: 2
Fore
SplineSet
162 1536 m 1,0,-1
 338 1536 l 1,1,-1
 338 -301 l 1,2,-1
 162 -301 l 1,3,-1
 162 1536 l 1,0,-1
EndSplineSet
EndChar

StartChar: braceright
Encoding: 125 125 95
Width: 574
GlyphClass: 2
Flags: W
LayerCount: 2
Fore
SplineSet
364 639 m 1,0,1
 328 662 328 662 299.5 687.5 c 128,-1,2
 271 713 271 713 248 746 c 1,3,4
 243 756 243 756 239.5 780 c 128,-1,5
 236 804 236 804 233.5 839.5 c 128,-1,6
 231 875 231 875 228.5 919 c 128,-1,7
 226 963 226 963 225 1014 c 0,8,9
 222 1107 222 1107 216 1183 c 128,-1,10
 210 1259 210 1259 194 1313.5 c 128,-1,11
 178 1368 178 1368 149 1398 c 128,-1,12
 120 1428 120 1428 71 1428 c 1,13,-1
 96 1528 l 1,14,15
 175 1528 175 1528 225 1504 c 128,-1,16
 275 1480 275 1480 304 1430 c 128,-1,17
 333 1380 333 1380 346 1303 c 128,-1,18
 359 1226 359 1226 366 1121 c 0,19,20
 371 1036 371 1036 377.5 947 c 128,-1,21
 384 858 384 858 401 770 c 1,22,23
 424 747 424 747 452 728.5 c 128,-1,24
 480 710 480 710 514 697 c 1,25,-1
 514 581 l 1,26,27
 480 568 480 568 452 549.5 c 128,-1,28
 424 531 424 531 401 508 c 1,29,30
 384 420 384 420 377.5 331 c 128,-1,31
 371 242 371 242 366 157 c 0,32,33
 359 52 359 52 346 -25 c 128,-1,34
 333 -102 333 -102 304 -152 c 128,-1,35
 275 -202 275 -202 225 -226 c 128,-1,36
 175 -250 175 -250 96 -250 c 1,37,-1
 71 -150 l 1,38,39
 120 -150 120 -150 149 -120 c 128,-1,40
 178 -90 178 -90 194 -35.5 c 128,-1,41
 210 19 210 19 216 95 c 128,-1,42
 222 171 222 171 225 264 c 0,43,44
 226 315 226 315 228.5 359 c 128,-1,45
 231 403 231 403 233.5 438.5 c 128,-1,46
 236 474 236 474 239.5 498 c 128,-1,47
 243 522 243 522 248 532 c 1,48,49
 271 565 271 565 299.5 590.5 c 128,-1,50
 328 616 328 616 364 639 c 1,0,1
EndSplineSet
EndChar

StartChar: asciitilde
Encoding: 126 126 96
Width: 1142
GlyphClass: 2
Flags: W
LayerCount: 2
Fore
SplineSet
116 547 m 1,0,1
 125 585 125 585 142 628 c 128,-1,2
 159 671 159 671 188 707 c 128,-1,3
 217 743 217 743 258.5 767 c 128,-1,4
 300 791 300 791 358 791 c 0,5,6
 397 791 397 791 437 778 c 128,-1,7
 477 765 477 765 516.5 746 c 128,-1,8
 556 727 556 727 593.5 704.5 c 128,-1,9
 631 682 631 682 666 663 c 128,-1,10
 701 644 701 644 731.5 631 c 128,-1,11
 762 618 762 618 787 618 c 0,12,13
 817 618 817 618 837.5 628 c 128,-1,14
 858 638 858 638 872.5 655.5 c 128,-1,15
 887 673 887 673 897.5 697 c 128,-1,16
 908 721 908 721 919 748 c 1,17,-1
 1030 692 l 1,18,19
 1023 654 1023 654 1005.5 614 c 128,-1,20
 988 574 988 574 958 541 c 128,-1,21
 928 508 928 508 884.5 487 c 128,-1,22
 841 466 841 466 782 466 c 0,23,24
 746 466 746 466 707.5 478 c 128,-1,25
 669 490 669 490 629.5 508 c 128,-1,26
 590 526 590 526 552 547.5 c 128,-1,27
 514 569 514 569 479 587 c 128,-1,28
 444 605 444 605 414.5 617 c 128,-1,29
 385 629 385 629 364 629 c 0,30,31
 338 629 338 629 318 619 c 128,-1,32
 298 609 298 609 281.5 591 c 128,-1,33
 265 573 265 573 252 548.5 c 128,-1,34
 239 524 239 524 227 494 c 1,35,-1
 116 547 l 1,0,1
EndSplineSet
EndChar

StartChar: cent
Encoding: 162 162 99
Width: 1028
GlyphClass: 2
Flags: W
LayerCount: 2
Fore
SplineSet
511 -376 m 1,0,-1
 511 -22 l 1,1,2
 441 -19 441 -19 387 -6.5 c 128,-1,3
 333 6 333 6 293 24 c 128,-1,4
 253 42 253 42 226.5 62.5 c 128,-1,5
 200 83 200 83 185 100 c 0,6,7
 169 118 169 118 150.5 148 c 128,-1,8
 132 178 132 178 116.5 226 c 128,-1,9
 101 274 101 274 90.5 343 c 128,-1,10
 80 412 80 412 80 509 c 0,11,12
 80 604 80 604 90.5 672 c 128,-1,13
 101 740 101 740 117 787 c 128,-1,14
 133 834 133 834 151.5 863.5 c 128,-1,15
 170 893 170 893 186 911 c 0,16,17
 201 928 201 928 227.5 948 c 128,-1,18
 254 968 254 968 294 986 c 128,-1,19
 334 1004 334 1004 388 1017.5 c 128,-1,20
 442 1031 442 1031 511 1034 c 1,21,-1
 511 1316 l 1,22,-1
 600 1328 l 1,23,-1
 600 1033 l 1,24,25
 659 1029 659 1029 703 1017.5 c 128,-1,26
 747 1006 747 1006 778.5 992 c 128,-1,27
 810 978 810 978 829.5 963 c 128,-1,28
 849 948 849 948 860 938 c 0,29,30
 870 928 870 928 881.5 913 c 128,-1,31
 893 898 893 898 904 875 c 128,-1,32
 915 852 915 852 924.5 819 c 128,-1,33
 934 786 934 786 939 739 c 1,34,-1
 813 704 l 1,35,36
 807 740 807 740 801 764.5 c 128,-1,37
 795 789 795 789 789 805 c 128,-1,38
 783 821 783 821 777 830.5 c 128,-1,39
 771 840 771 840 766 846 c 0,40,41
 749 864 749 864 711 883 c 128,-1,42
 673 902 673 902 600 908 c 1,43,-1
 600 98 l 1,44,45
 676 104 676 104 716.5 123 c 128,-1,46
 757 142 757 142 775 162 c 0,47,48
 781 168 781 168 787 177.5 c 128,-1,49
 793 187 793 187 799 203 c 128,-1,50
 805 219 805 219 811.5 243.5 c 128,-1,51
 818 268 818 268 824 304 c 1,52,-1
 945 269 l 1,53,54
 940 223 940 223 931.5 190.5 c 128,-1,55
 923 158 923 158 911.5 135 c 128,-1,56
 900 112 900 112 888 97.5 c 128,-1,57
 876 83 876 83 866 73 c 0,58,59
 855 62 855 62 835 48 c 128,-1,60
 815 34 815 34 782.5 20 c 128,-1,61
 750 6 750 6 705 -5.5 c 128,-1,62
 660 -17 660 -17 600 -21 c 1,63,-1
 600 -364 l 1,64,-1
 511 -376 l 1,0,-1
299 175 m 0,65,66
 309 163 309 163 324 150 c 128,-1,67
 339 137 339 137 364 126 c 128,-1,68
 389 115 389 115 424.5 107 c 128,-1,69
 460 99 460 99 511 97 c 1,70,-1
 511 909 l 1,71,72
 458 907 458 907 421.5 899 c 128,-1,73
 385 891 385 891 359.5 880 c 128,-1,74
 334 869 334 869 319 856 c 128,-1,75
 304 843 304 843 295 831 c 0,76,77
 285 818 285 818 274.5 797.5 c 128,-1,78
 264 777 264 777 255.5 741 c 128,-1,79
 247 705 247 705 241.5 648.5 c 128,-1,80
 236 592 236 592 236 507 c 0,81,82
 236 419 236 419 242 361 c 128,-1,83
 248 303 248 303 257 266 c 128,-1,84
 266 229 266 229 277 208.5 c 128,-1,85
 288 188 288 188 299 175 c 0,65,66
EndSplineSet
EndChar

StartChar: sterling
Encoding: 163 163 100
Width: 1130
GlyphClass: 2
Flags: W
LayerCount: 2
Fore
SplineSet
270 709 m 1,0,-1
 279 931 l 2,1,2
 284 1049 284 1049 309.5 1129.5 c 128,-1,3
 335 1210 335 1210 382.5 1259 c 128,-1,4
 430 1308 430 1308 499.5 1329 c 128,-1,5
 569 1350 569 1350 661 1350 c 0,6,7
 744 1350 744 1350 802.5 1336 c 128,-1,8
 861 1322 861 1322 901 1291 c 128,-1,9
 941 1260 941 1260 965.5 1211.5 c 128,-1,10
 990 1163 990 1163 1005 1093 c 1,11,-1
 898 1021 l 1,12,13
 888 1071 888 1071 875 1108.5 c 128,-1,14
 862 1146 862 1146 840.5 1171.5 c 128,-1,15
 819 1197 819 1197 788 1210 c 128,-1,16
 757 1223 757 1223 711 1223 c 0,17,18
 626 1223 626 1223 573 1213.5 c 128,-1,19
 520 1204 520 1204 489.5 1174 c 128,-1,20
 459 1144 459 1144 446 1088 c 128,-1,21
 433 1032 433 1032 428 939 c 2,22,-1
 416 709 l 1,23,-1
 737 709 l 1,24,-1
 721 591 l 1,25,-1
 405 591 l 1,26,-1
 399 414 l 2,27,28
 397 364 397 364 393.5 322 c 128,-1,29
 390 280 390 280 382 244.5 c 128,-1,30
 374 209 374 209 361 179.5 c 128,-1,31
 348 150 348 150 327 125 c 1,32,-1
 329 123 l 1,33,34
 360 136 360 136 391 141 c 128,-1,35
 422 146 422 146 453 146 c 0,36,37
 487 146 487 146 521 140 c 128,-1,38
 555 134 555 134 588.5 127 c 128,-1,39
 622 120 622 120 656 114 c 128,-1,40
 690 108 690 108 723 108 c 0,41,42
 792 108 792 108 860 129.5 c 128,-1,43
 928 151 928 151 995 198 c 1,44,-1
 1036 64 l 1,45,46
 975 31 975 31 905.5 4 c 128,-1,47
 836 -23 836 -23 759 -23 c 0,48,49
 716 -23 716 -23 671.5 -14.5 c 128,-1,50
 627 -6 627 -6 582 3.5 c 128,-1,51
 537 13 537 13 491.5 21.5 c 128,-1,52
 446 30 446 30 402 30 c 0,53,54
 382 30 382 30 360 28 c 128,-1,55
 338 26 338 26 307 21.5 c 128,-1,56
 276 17 276 17 232 9.5 c 128,-1,57
 188 2 188 2 124 -9 c 1,58,-1
 93 96 l 1,59,60
 145 111 145 111 177 141 c 128,-1,61
 209 171 209 171 226.5 211.5 c 128,-1,62
 244 252 244 252 250 300 c 128,-1,63
 256 348 256 348 257 401 c 2,64,-1
 261 591 l 1,65,-1
 107 591 l 1,66,-1
 107 709 l 1,67,-1
 270 709 l 1,0,-1
EndSplineSet
EndChar

StartChar: currency
Encoding: 164 164 101
Width: 1242
GlyphClass: 2
Flags: W
LayerCount: 2
Fore
SplineSet
621 1217 m 256,0,1
 697 1217 697 1217 756 1201 c 128,-1,2
 815 1185 815 1185 857 1157 c 1,3,4
 872 1173 872 1173 893.5 1195 c 128,-1,5
 915 1217 915 1217 935 1237 c 2,6,-1
 982 1284 l 1,7,-1
 1092 1176 l 1,8,-1
 966 1047 l 1,9,10
 995 990 995 990 1009 924.5 c 128,-1,11
 1023 859 1023 859 1023 793 c 0,12,13
 1023 734 1023 734 1012 677 c 128,-1,14
 1001 620 1001 620 978 567 c 1,15,-1
 1092 451 l 1,16,-1
 982 344 l 1,17,-1
 882 444 l 1,18,19
 837 410 837 410 772.5 392.5 c 128,-1,20
 708 375 708 375 621 375 c 256,21,22
 534 375 534 375 469.5 392.5 c 128,-1,23
 405 410 405 410 360 444 c 1,24,-1
 260 344 l 1,25,-1
 150 451 l 1,26,-1
 264 567 l 1,27,28
 241 620 241 620 230 677 c 128,-1,29
 219 734 219 734 219 793 c 0,30,31
 219 859 219 859 233 924.5 c 128,-1,32
 247 990 247 990 276 1047 c 1,33,-1
 150 1176 l 1,34,-1
 260 1284 l 1,35,-1
 307 1237 l 2,36,37
 327 1217 327 1217 348 1195 c 128,-1,38
 369 1173 369 1173 385 1157 c 1,39,40
 427 1185 427 1185 486 1201 c 128,-1,41
 545 1217 545 1217 621 1217 c 256,0,1
621 500 m 256,42,43
 711 500 711 500 760 524.5 c 128,-1,44
 809 549 809 549 836 596 c 0,45,46
 850 620 850 620 858 646 c 128,-1,47
 866 672 866 672 870 698 c 128,-1,48
 874 724 874 724 875 748.5 c 128,-1,49
 876 773 876 773 876 793 c 0,50,51
 876 817 876 817 875.5 845.5 c 128,-1,52
 875 874 875 874 869.5 904.5 c 128,-1,53
 864 935 864 935 852.5 964.5 c 128,-1,54
 841 994 841 994 820 1020 c 0,55,56
 791 1055 791 1055 743.5 1073.5 c 128,-1,57
 696 1092 696 1092 621 1092 c 256,58,59
 546 1092 546 1092 498.5 1073.5 c 128,-1,60
 451 1055 451 1055 422 1020 c 0,61,62
 401 994 401 994 389.5 964.5 c 128,-1,63
 378 935 378 935 372.5 904.5 c 128,-1,64
 367 874 367 874 366.5 845.5 c 128,-1,65
 366 817 366 817 366 793 c 0,66,67
 366 773 366 773 367 748.5 c 128,-1,68
 368 724 368 724 372 698 c 128,-1,69
 376 672 376 672 384 646 c 128,-1,70
 392 620 392 620 406 596 c 0,71,72
 433 549 433 549 482 524.5 c 128,-1,73
 531 500 531 500 621 500 c 256,42,43
EndSplineSet
EndChar

StartChar: yen
Encoding: 165 165 102
Width: 1209
GlyphClass: 2
Flags: W
LayerCount: 2
Fore
SplineSet
675 446 m 1,0,-1
 675 0 l 1,1,-1
 532 0 l 1,2,-1
 532 446 l 1,3,-1
 237 446 l 1,4,-1
 237 557 l 1,5,-1
 532 557 l 1,6,-1
 532 600 l 1,7,-1
 491 666 l 1,8,-1
 237 666 l 1,9,-1
 237 775 l 1,10,-1
 425 775 l 1,11,-1
 60 1418 l 1,12,-1
 220 1418 l 1,13,-1
 538 844 l 1,14,-1
 601 726 l 1,15,-1
 611 726 l 1,16,-1
 671 844 l 1,17,-1
 986 1418 l 1,18,-1
 1149 1418 l 1,19,-1
 782 775 l 1,20,-1
 970 775 l 1,21,-1
 970 666 l 1,22,-1
 715 666 l 1,23,-1
 675 600 l 1,24,-1
 675 557 l 1,25,-1
 970 557 l 1,26,-1
 970 446 l 1,27,-1
 675 446 l 1,0,-1
EndSplineSet
EndChar

StartChar: brokenbar
Encoding: 166 166 103
Width: 546
GlyphClass: 2
Flags: W
LayerCount: 2
Fore
SplineSet
168 766 m 1,0,-1
 168 1530 l 1,1,-1
 377 1530 l 1,2,-1
 377 766 l 1,3,-1
 168 766 l 1,0,-1
168 -162 m 1,4,-1
 168 600 l 1,5,-1
 377 600 l 1,6,-1
 377 -162 l 1,7,-1
 168 -162 l 1,4,-1
EndSplineSet
EndChar

StartChar: section
Encoding: 167 167 104
Width: 1016
GlyphClass: 2
Flags: W
LayerCount: 2
Fore
SplineSet
773 552 m 0,0,1
 773 597 773 597 758 627.5 c 128,-1,2
 743 658 743 658 720 680.5 c 128,-1,3
 697 703 697 703 669 719.5 c 128,-1,4
 641 736 641 736 615 752 c 1,5,-1
 395 876 l 1,6,7
 367 868 367 868 342.5 852.5 c 128,-1,8
 318 837 318 837 300 812.5 c 128,-1,9
 282 788 282 788 271.5 754.5 c 128,-1,10
 261 721 261 721 261 678 c 0,11,12
 261 637 261 637 273 610.5 c 128,-1,13
 285 584 285 584 304.5 566 c 128,-1,14
 324 548 324 548 348 535 c 128,-1,15
 372 522 372 522 395 510 c 2,16,-1
 641 389 l 1,17,18
 678 402 678 402 707 425 c 0,19,20
 732 444 732 444 752.5 475 c 128,-1,21
 773 506 773 506 773 552 c 0,0,1
492 -204 m 0,22,23
 408 -204 408 -204 344.5 -198.5 c 128,-1,24
 281 -193 281 -193 236 -174 c 128,-1,25
 191 -155 191 -155 163 -118.5 c 128,-1,26
 135 -82 135 -82 122 -19 c 1,27,-1
 213 41 l 1,28,29
 224 2 224 2 241.5 -24 c 128,-1,30
 259 -50 259 -50 290 -65.5 c 128,-1,31
 321 -81 321 -81 370.5 -87.5 c 128,-1,32
 420 -94 420 -94 496 -94 c 0,33,34
 546 -94 546 -94 586 -89.5 c 128,-1,35
 626 -85 626 -85 653.5 -67.5 c 128,-1,36
 681 -50 681 -50 695.5 -15 c 128,-1,37
 710 20 710 20 710 82 c 0,38,39
 710 120 710 120 701.5 146 c 128,-1,40
 693 172 693 172 675.5 191 c 128,-1,41
 658 210 658 210 632.5 226 c 128,-1,42
 607 242 607 242 574 260 c 2,43,-1
 303 400 l 1,44,45
 239 436 239 436 202 466 c 128,-1,46
 165 496 165 496 146.5 526 c 128,-1,47
 128 556 128 556 123.5 588.5 c 128,-1,48
 119 621 119 621 119 663 c 0,49,50
 119 767 119 767 175.5 833 c 128,-1,51
 232 899 232 899 329 926 c 1,52,53
 279 954 279 954 247 985.5 c 128,-1,54
 215 1017 215 1017 196.5 1051 c 128,-1,55
 178 1085 178 1085 171 1120 c 128,-1,56
 164 1155 164 1155 164 1190 c 0,57,58
 164 1273 164 1273 191 1329 c 128,-1,59
 218 1385 218 1385 266.5 1419 c 128,-1,60
 315 1453 315 1453 381.5 1467.5 c 128,-1,61
 448 1482 448 1482 527 1482 c 0,62,63
 609 1482 609 1482 666.5 1475 c 128,-1,64
 724 1468 724 1468 763 1449.5 c 128,-1,65
 802 1431 802 1431 826.5 1398.5 c 128,-1,66
 851 1366 851 1366 866 1316 c 1,67,-1
 767 1256 l 1,68,69
 756 1291 756 1291 739 1314 c 128,-1,70
 722 1337 722 1337 694.5 1350 c 128,-1,71
 667 1363 667 1363 627 1368 c 128,-1,72
 587 1373 587 1373 531 1373 c 0,73,74
 462 1373 462 1373 418 1362 c 128,-1,75
 374 1351 374 1351 348.5 1329 c 128,-1,76
 323 1307 323 1307 313 1274 c 128,-1,77
 303 1241 303 1241 303 1197 c 0,78,79
 303 1131 303 1131 347.5 1083.5 c 128,-1,80
 392 1036 392 1036 461 997 c 2,81,-1
 767 823 l 2,82,83
 806 800 806 800 834 774.5 c 128,-1,84
 862 749 862 749 880 719 c 128,-1,85
 898 689 898 689 906.5 652 c 128,-1,86
 915 615 915 615 915 570 c 0,87,88
 915 492 915 492 867 434 c 128,-1,89
 819 376 819 376 730 338 c 1,90,91
 769 314 769 314 793 286.5 c 128,-1,92
 817 259 817 259 830.5 228.5 c 128,-1,93
 844 198 844 198 848.5 165 c 128,-1,94
 853 132 853 132 853 98 c 0,95,96
 853 10 853 10 831.5 -48.5 c 128,-1,97
 810 -107 810 -107 765.5 -141.5 c 128,-1,98
 721 -176 721 -176 653 -190 c 128,-1,99
 585 -204 585 -204 492 -204 c 0,22,23
EndSplineSet
EndChar

StartChar: dieresis
Encoding: 168 168 105
Width: 688
GlyphClass: 2
Flags: W
LayerCount: 2
Fore
SplineSet
136 1440 m 0,0,1
 166 1440 166 1440 184.5 1433.5 c 128,-1,2
 203 1427 203 1427 213 1414.5 c 128,-1,3
 223 1402 223 1402 226.5 1383.5 c 128,-1,4
 230 1365 230 1365 230 1341 c 0,5,6
 230 1293 230 1293 211.5 1269.5 c 128,-1,7
 193 1246 193 1246 136 1246 c 0,8,9
 85 1246 85 1246 64.5 1269.5 c 128,-1,10
 44 1293 44 1293 44 1341 c 0,11,12
 44 1390 44 1390 63 1415 c 128,-1,13
 82 1440 82 1440 136 1440 c 0,0,1
554 1440 m 0,14,15
 584 1440 584 1440 602.5 1433.5 c 128,-1,16
 621 1427 621 1427 631 1414.5 c 128,-1,17
 641 1402 641 1402 644.5 1383.5 c 128,-1,18
 648 1365 648 1365 648 1341 c 0,19,20
 648 1293 648 1293 629.5 1269.5 c 128,-1,21
 611 1246 611 1246 554 1246 c 0,22,23
 503 1246 503 1246 482.5 1269.5 c 128,-1,24
 462 1293 462 1293 462 1341 c 0,25,26
 462 1390 462 1390 481 1415 c 128,-1,27
 500 1440 500 1440 554 1440 c 0,14,15
EndSplineSet
EndChar

StartChar: copyright
Encoding: 169 169 106
Width: 1458
GlyphClass: 2
Flags: W
LayerCount: 2
Fore
SplineSet
962 859 m 1,0,1
 909 904 909 904 852 925.5 c 128,-1,2
 795 947 795 947 740 947 c 0,3,4
 684 947 684 947 633 925.5 c 128,-1,5
 582 904 582 904 543.5 863 c 128,-1,6
 505 822 505 822 482.5 762 c 128,-1,7
 460 702 460 702 460 625 c 0,8,9
 460 551 460 551 482.5 491.5 c 128,-1,10
 505 432 505 432 544 390 c 128,-1,11
 583 348 583 348 635 325.5 c 128,-1,12
 687 303 687 303 746 303 c 0,13,14
 807 303 807 303 871.5 329 c 128,-1,15
 936 355 936 355 998 412 c 1,16,-1
 1049 354 l 1,17,18
 983 279 983 279 903 244 c 128,-1,19
 823 209 823 209 741 209 c 0,20,21
 663 209 663 209 590 239 c 128,-1,22
 517 269 517 269 460 324.5 c 128,-1,23
 403 380 403 380 369 458 c 128,-1,24
 335 536 335 536 335 633 c 0,25,26
 335 729 335 729 369 804.5 c 128,-1,27
 403 880 403 880 459.5 932 c 128,-1,28
 516 984 516 984 588 1011.5 c 128,-1,29
 660 1039 660 1039 736 1039 c 0,30,31
 814 1039 814 1039 888.5 1010 c 128,-1,32
 963 981 963 981 1024 921 c 1,33,-1
 962 859 l 1,0,1
1364 638 m 0,34,35
 1364 550 1364 550 1341 468 c 128,-1,36
 1318 386 1318 386 1276.5 315 c 128,-1,37
 1235 244 1235 244 1177 186 c 128,-1,38
 1119 128 1119 128 1048 86.5 c 128,-1,39
 977 45 977 45 896 22.5 c 128,-1,40
 815 0 815 0 727 0 c 0,41,42
 596 0 596 0 481 50 c 128,-1,43
 366 100 366 100 280 186 c 128,-1,44
 194 272 194 272 144.5 387 c 128,-1,45
 95 502 95 502 95 633 c 0,46,47
 95 766 95 766 144.5 882 c 128,-1,48
 194 998 194 998 280 1084 c 128,-1,49
 366 1170 366 1170 481 1219.5 c 128,-1,50
 596 1269 596 1269 727 1269 c 0,51,52
 815 1269 815 1269 896 1246.5 c 128,-1,53
 977 1224 977 1224 1048 1183 c 128,-1,54
 1119 1142 1119 1142 1177 1084.5 c 128,-1,55
 1235 1027 1235 1027 1276.5 957 c 128,-1,56
 1318 887 1318 887 1341 806 c 128,-1,57
 1364 725 1364 725 1364 638 c 0,34,35
1247 633 m 0,58,59
 1247 745 1247 745 1206.5 843.5 c 128,-1,60
 1166 942 1166 942 1095.5 1015.5 c 128,-1,61
 1025 1089 1025 1089 930 1131 c 128,-1,62
 835 1173 835 1173 727 1173 c 0,63,64
 620 1173 620 1173 525 1131 c 128,-1,65
 430 1089 430 1089 359.5 1015.5 c 128,-1,66
 289 942 289 942 248 843.5 c 128,-1,67
 207 745 207 745 207 633 c 0,68,69
 207 522 207 522 248 424.5 c 128,-1,70
 289 327 289 327 359.5 253.5 c 128,-1,71
 430 180 430 180 525 137.5 c 128,-1,72
 620 95 620 95 727 95 c 0,73,74
 835 95 835 95 930 137.5 c 128,-1,75
 1025 180 1025 180 1095.5 253.5 c 128,-1,76
 1166 327 1166 327 1206.5 424.5 c 128,-1,77
 1247 522 1247 522 1247 633 c 0,58,59
EndSplineSet
EndChar

StartChar: guillemotleft
Encoding: 171 171 108
Width: 1100
GlyphClass: 2
Flags: W
LayerCount: 2
Fore
SplineSet
549 420 m 1,0,-1
 445 330 l 1,1,-1
 58 721 l 1,2,-1
 445 1112 l 1,3,-1
 549 1020 l 1,4,-1
 226 721 l 1,5,-1
 549 420 l 1,0,-1
986 420 m 1,6,-1
 885 330 l 1,7,-1
 496 721 l 1,8,-1
 885 1112 l 1,9,-1
 986 1020 l 1,10,-1
 664 721 l 1,11,-1
 986 420 l 1,6,-1
EndSplineSet
EndChar

StartChar: logicalnot
Encoding: 172 172 109
Width: 1388
GlyphClass: 2
Flags: W
LayerCount: 2
Fore
SplineSet
1050 0 m 1,0,-1
 1050 532 l 1,1,-1
 153 532 l 1,2,-1
 153 633 l 1,3,-1
 1229 633 l 1,4,-1
 1229 0 l 1,5,-1
 1050 0 l 1,0,-1
EndSplineSet
EndChar

StartChar: registered
Encoding: 174 174 110
Width: 1392
GlyphClass: 2
Flags: W
LayerCount: 2
Fore
SplineSet
1289 815 m 0,0,1
 1289 693 1289 693 1242 586.5 c 128,-1,2
 1195 480 1195 480 1114.5 400.5 c 128,-1,3
 1034 321 1034 321 925.5 275.5 c 128,-1,4
 817 230 817 230 694 230 c 256,5,6
 571 230 571 230 463.5 275.5 c 128,-1,7
 356 321 356 321 276 400 c 128,-1,8
 196 479 196 479 150 585 c 128,-1,9
 104 691 104 691 104 811 c 0,10,11
 104 933 104 933 150 1039.5 c 128,-1,12
 196 1146 196 1146 276 1225 c 128,-1,13
 356 1304 356 1304 463.5 1349.5 c 128,-1,14
 571 1395 571 1395 694 1395 c 256,15,16
 817 1395 817 1395 925.5 1349.5 c 128,-1,17
 1034 1304 1034 1304 1114.5 1225.5 c 128,-1,18
 1195 1147 1195 1147 1242 1041 c 128,-1,19
 1289 935 1289 935 1289 815 c 0,0,1
1153 811 m 0,20,21
 1153 911 1153 911 1117 998 c 128,-1,22
 1081 1085 1081 1085 1018.5 1150 c 128,-1,23
 956 1215 956 1215 872.5 1252.5 c 128,-1,24
 789 1290 789 1290 694 1290 c 256,25,26
 599 1290 599 1290 515.5 1252.5 c 128,-1,27
 432 1215 432 1215 370 1150 c 128,-1,28
 308 1085 308 1085 271.5 998 c 128,-1,29
 235 911 235 911 235 811 c 0,30,31
 235 713 235 713 271.5 626 c 128,-1,32
 308 539 308 539 370 474 c 128,-1,33
 432 409 432 409 515.5 371.5 c 128,-1,34
 599 334 599 334 694 334 c 256,35,36
 789 334 789 334 872.5 371.5 c 128,-1,37
 956 409 956 409 1018.5 474 c 128,-1,38
 1081 539 1081 539 1117 626 c 128,-1,39
 1153 713 1153 713 1153 811 c 0,20,21
944 949 m 0,40,41
 944 910 944 910 929.5 879.5 c 128,-1,42
 915 849 915 849 890.5 826.5 c 128,-1,43
 866 804 866 804 833 791 c 128,-1,44
 800 778 800 778 764 775 c 1,45,-1
 938 487 l 1,46,-1
 860 440 l 1,47,-1
 674 767 l 1,48,-1
 577 767 l 1,49,-1
 577 462 l 1,50,-1
 487 462 l 1,51,-1
 487 1136 l 1,52,-1
 684 1136 l 2,53,54
 746 1136 746 1136 794.5 1128 c 128,-1,55
 843 1120 843 1120 876 1099 c 128,-1,56
 909 1078 909 1078 926.5 1042 c 128,-1,57
 944 1006 944 1006 944 949 c 0,40,41
855 949 m 0,58,59
 855 988 855 988 845.5 1011 c 128,-1,60
 836 1034 836 1034 816 1047 c 128,-1,61
 796 1060 796 1060 763 1064 c 128,-1,62
 730 1068 730 1068 684 1068 c 2,63,-1
 577 1068 l 1,64,-1
 577 844 l 1,65,-1
 684 844 l 2,66,67
 730 844 730 844 763 848.5 c 128,-1,68
 796 853 796 853 816 865 c 128,-1,69
 836 877 836 877 845.5 897.5 c 128,-1,70
 855 918 855 918 855 949 c 0,58,59
EndSplineSet
EndChar

StartChar: macron
Encoding: 175 175 111
Width: 965
GlyphClass: 2
Flags: W
LayerCount: 2
Fore
SplineSet
793 1368 m 1,0,-1
 793 1212 l 1,1,-1
 174 1212 l 1,2,-1
 174 1368 l 1,3,-1
 793 1368 l 1,0,-1
EndSplineSet
EndChar

StartChar: degree
Encoding: 176 176 112
Width: 634
GlyphClass: 2
Flags: W
LayerCount: 2
Fore
SplineSet
318 1011 m 256,0,1
 264 1011 264 1011 223.5 1029 c 128,-1,2
 183 1047 183 1047 156 1076 c 128,-1,3
 129 1105 129 1105 115.5 1142.5 c 128,-1,4
 102 1180 102 1180 102 1219 c 256,5,6
 102 1258 102 1258 115.5 1295.5 c 128,-1,7
 129 1333 129 1333 156 1362 c 128,-1,8
 183 1391 183 1391 223.5 1409 c 128,-1,9
 264 1427 264 1427 318 1427 c 256,10,11
 372 1427 372 1427 412 1409 c 128,-1,12
 452 1391 452 1391 478.5 1362 c 128,-1,13
 505 1333 505 1333 518.5 1295.5 c 128,-1,14
 532 1258 532 1258 532 1219 c 256,15,16
 532 1180 532 1180 518.5 1142.5 c 128,-1,17
 505 1105 505 1105 478.5 1076 c 128,-1,18
 452 1047 452 1047 412 1029 c 128,-1,19
 372 1011 372 1011 318 1011 c 256,0,1
318 1329 m 0,20,21
 292 1329 292 1329 272.5 1319.5 c 128,-1,22
 253 1310 253 1310 240.5 1294.5 c 128,-1,23
 228 1279 228 1279 221.5 1259.5 c 128,-1,24
 215 1240 215 1240 215 1219 c 256,25,26
 215 1198 215 1198 221.5 1178.5 c 128,-1,27
 228 1159 228 1159 240.5 1143.5 c 128,-1,28
 253 1128 253 1128 272.5 1118.5 c 128,-1,29
 292 1109 292 1109 318 1109 c 0,30,31
 343 1109 343 1109 362 1118.5 c 128,-1,32
 381 1128 381 1128 393.5 1143.5 c 128,-1,33
 406 1159 406 1159 412.5 1178.5 c 128,-1,34
 419 1198 419 1198 419 1219 c 256,35,36
 419 1240 419 1240 412.5 1259.5 c 128,-1,37
 406 1279 406 1279 393.5 1294.5 c 128,-1,38
 381 1310 381 1310 362 1319.5 c 128,-1,39
 343 1329 343 1329 318 1329 c 0,20,21
EndSplineSet
EndChar

StartChar: plusminus
Encoding: 177 177 113
Width: 1280
GlyphClass: 2
Flags: W
LayerCount: 2
Fore
SplineSet
718 1075 m 1,0,-1
 718 764 l 1,1,-1
 1136 764 l 1,2,-1
 1136 610 l 1,3,-1
 718 610 l 1,4,-1
 718 299 l 1,5,-1
 564 299 l 1,6,-1
 564 610 l 1,7,-1
 144 610 l 1,8,-1
 144 764 l 1,9,-1
 564 764 l 1,10,-1
 564 1075 l 1,11,-1
 718 1075 l 1,0,-1
144 174 m 1,12,-1
 1136 174 l 1,13,-1
 1136 20 l 1,14,-1
 144 20 l 1,15,-1
 144 174 l 1,12,-1
EndSplineSet
EndChar

StartChar: twosuperior
Encoding: 178 178 114
Width: 901
GlyphClass: 2
Flags: W
LayerCount: 2
Fore
SplineSet
140 1064 m 1,0,1
 132 1116 132 1116 150.5 1166.5 c 128,-1,2
 169 1217 169 1217 212 1255 c 0,3,4
 254 1292 254 1292 316.5 1312 c 128,-1,5
 379 1332 379 1332 455 1332 c 0,6,7
 534 1332 534 1332 597 1306.5 c 128,-1,8
 660 1281 660 1281 698 1236 c 0,9,10
 731 1197 731 1197 745.5 1146.5 c 128,-1,11
 760 1096 760 1096 760 1038 c 0,12,13
 760 967 760 967 736 915.5 c 128,-1,14
 712 864 712 864 673 824 c 128,-1,15
 634 784 634 784 584.5 751.5 c 128,-1,16
 535 719 535 719 484 686 c 0,17,18
 431 651 431 651 391.5 620.5 c 128,-1,19
 352 590 352 590 323 558.5 c 128,-1,20
 294 527 294 527 274 491.5 c 128,-1,21
 254 456 254 456 242 411 c 1,22,-1
 768 411 l 1,23,-1
 768 300 l 1,24,-1
 114 300 l 1,25,26
 124 397 124 397 150 466 c 128,-1,27
 176 535 176 535 214.5 587.5 c 128,-1,28
 253 640 253 640 303 680.5 c 128,-1,29
 353 721 353 721 410 762 c 1,30,31
 458 795 458 795 498.5 823.5 c 128,-1,32
 539 852 539 852 569 882.5 c 128,-1,33
 599 913 599 913 616 949 c 128,-1,34
 633 985 633 985 633 1034 c 0,35,36
 633 1077 633 1077 626 1112 c 128,-1,37
 619 1147 619 1147 599 1172 c 1,38,39
 578 1200 578 1200 539.5 1214.5 c 128,-1,40
 501 1229 501 1229 451 1229 c 0,41,42
 404 1229 404 1229 359 1218.5 c 128,-1,43
 314 1208 314 1208 282 1182 c 0,44,45
 251 1158 251 1158 236 1120.5 c 128,-1,46
 221 1083 221 1083 226 1035 c 1,47,-1
 140 1064 l 1,0,1
EndSplineSet
EndChar

StartChar: threesuperior
Encoding: 179 179 115
Width: 910
GlyphClass: 2
Flags: W
LayerCount: 2
Fore
SplineSet
120 1128 m 1,0,1
 129 1176 129 1176 157 1214.5 c 128,-1,2
 185 1253 185 1253 224 1279 c 0,3,4
 273 1311 273 1311 331.5 1322.5 c 128,-1,5
 390 1334 390 1334 443 1334 c 0,6,7
 506 1334 506 1334 563.5 1317.5 c 128,-1,8
 621 1301 621 1301 663 1272 c 1,9,10
 713 1236 713 1236 736.5 1182.5 c 128,-1,11
 760 1129 760 1129 760 1060 c 0,12,13
 760 1006 760 1006 740.5 966.5 c 128,-1,14
 721 927 721 927 691.5 900 c 128,-1,15
 662 873 662 873 627 857 c 128,-1,16
 592 841 592 841 562 834 c 1,17,18
 601 827 601 827 640 808.5 c 128,-1,19
 679 790 679 790 709.5 760 c 128,-1,20
 740 730 740 730 759.5 688 c 128,-1,21
 779 646 779 646 779 592 c 0,22,23
 779 514 779 514 752.5 450.5 c 128,-1,24
 726 387 726 387 670 346 c 0,25,26
 622 312 622 312 556.5 295.5 c 128,-1,27
 491 279 491 279 414 279 c 0,28,29
 381 279 381 279 347.5 283 c 128,-1,30
 314 287 314 287 282.5 296 c 128,-1,31
 251 305 251 305 222.5 319.5 c 128,-1,32
 194 334 194 334 171 354 c 0,33,34
 140 382 140 382 123.5 422 c 128,-1,35
 107 462 107 462 109 510 c 1,36,-1
 207 547 l 1,37,38
 207 507 207 507 218.5 475 c 128,-1,39
 230 443 230 443 252 423 c 0,40,41
 281 396 281 396 324 387 c 128,-1,42
 367 378 367 378 415 378 c 0,43,44
 475 378 475 378 520 392 c 128,-1,45
 565 406 565 406 591 438 c 1,46,47
 614 464 614 464 621 503 c 128,-1,48
 628 542 628 542 628 589 c 0,49,50
 628 660 628 660 601 699.5 c 128,-1,51
 574 739 574 739 529 758.5 c 128,-1,52
 484 778 484 778 425.5 782.5 c 128,-1,53
 367 787 367 787 304 787 c 1,54,-1
 304 885 l 1,55,-1
 393 885 l 2,56,57
 438 885 438 885 478 893.5 c 128,-1,58
 518 902 518 902 548 922 c 128,-1,59
 578 942 578 942 596 974.5 c 128,-1,60
 614 1007 614 1007 614 1055 c 256,61,62
 614 1103 614 1103 603 1138 c 128,-1,63
 592 1173 592 1173 567 1195 c 0,64,65
 545 1215 545 1215 513 1224.5 c 128,-1,66
 481 1234 481 1234 445 1234 c 0,67,68
 397 1234 397 1234 355 1226 c 128,-1,69
 313 1218 313 1218 281 1195 c 1,70,71
 257 1179 257 1179 240 1153 c 128,-1,72
 223 1127 223 1127 214 1098 c 1,73,-1
 120 1128 l 1,0,1
EndSplineSet
EndChar

StartChar: acute
Encoding: 180 180 116
Width: 846
GlyphClass: 2
Flags: W
LayerCount: 2
Fore
SplineSet
187 1212 m 1,0,-1
 426 1590 l 1,1,-1
 599 1516 l 1,2,-1
 281 1180 l 1,3,-1
 187 1212 l 1,0,-1
EndSplineSet
EndChar

StartChar: mu
Encoding: 181 181 117
Width: 1164
GlyphClass: 2
Flags: W
LayerCount: 2
Fore
SplineSet
170 1011 m 1,0,-1
 324 1011 l 1,1,-1
 324 403 l 2,2,3
 324 342 324 342 328 302.5 c 128,-1,4
 332 263 332 263 338 238 c 128,-1,5
 344 213 344 213 350.5 200 c 128,-1,6
 357 187 357 187 362 180 c 1,7,8
 368 167 368 167 380.5 153 c 128,-1,9
 393 139 393 139 416.5 128 c 128,-1,10
 440 117 440 117 477 109.5 c 128,-1,11
 514 102 514 102 568 102 c 0,12,13
 627 102 627 102 668 109 c 128,-1,14
 709 116 709 116 736 126.5 c 128,-1,15
 763 137 763 137 779 149 c 128,-1,16
 795 161 795 161 805 172 c 0,17,18
 815 182 815 182 826 198 c 128,-1,19
 837 214 837 214 846 242.5 c 128,-1,20
 855 271 855 271 861 314 c 128,-1,21
 867 357 867 357 867 422 c 2,22,-1
 867 1011 l 1,23,-1
 1020 1011 l 1,24,-1
 1020 0 l 1,25,-1
 892 0 l 1,26,-1
 879 146 l 1,27,28
 869 131 869 131 847 102 c 128,-1,29
 825 73 825 73 784 44.5 c 128,-1,30
 743 16 743 16 680 -5 c 128,-1,31
 617 -26 617 -26 526 -26 c 0,32,33
 457 -26 457 -26 408 -9 c 128,-1,34
 359 8 359 8 324 30 c 1,35,-1
 324 -186 l 1,36,-1
 170 -213 l 1,37,-1
 170 1011 l 1,0,-1
EndSplineSet
EndChar

StartChar: paragraph
Encoding: 182 182 118
Width: 1166
GlyphClass: 2
Flags: W
LayerCount: 2
Fore
SplineSet
415 -235 m 1,0,-1
 415 769 l 1,1,2
 337 775 337 775 273 801.5 c 128,-1,3
 209 828 209 828 163 871.5 c 128,-1,4
 117 915 117 915 92 973.5 c 128,-1,5
 67 1032 67 1032 67 1103 c 0,6,7
 67 1179 67 1179 95.5 1241 c 128,-1,8
 124 1303 124 1303 175 1347 c 128,-1,9
 226 1391 226 1391 297 1415.5 c 128,-1,10
 368 1440 368 1440 454 1440 c 2,11,-1
 1070 1440 l 1,12,-1
 1070 1310 l 1,13,-1
 938 1310 l 1,14,-1
 938 -235 l 1,15,-1
 768 -235 l 1,16,-1
 768 1310 l 1,17,-1
 584 1310 l 1,18,-1
 584 -235 l 1,19,-1
 415 -235 l 1,0,-1
EndSplineSet
EndChar

StartChar: periodcentered
Encoding: 183 183 119
Width: 494
GlyphClass: 2
Flags: W
LayerCount: 2
Fore
SplineSet
141 918 m 1,0,-1
 352 918 l 1,1,-1
 352 697 l 1,2,-1
 141 697 l 1,3,-1
 141 918 l 1,0,-1
EndSplineSet
EndChar

StartChar: cedilla
Encoding: 184 184 120
Width: 563
GlyphClass: 2
Flags: W
LayerCount: 2
Fore
SplineSet
459 -236 m 0,0,1
 459 -270 459 -270 447 -299 c 128,-1,2
 435 -328 435 -328 413 -349 c 128,-1,3
 391 -370 391 -370 360 -381.5 c 128,-1,4
 329 -393 329 -393 290 -393 c 0,5,6
 248 -393 248 -393 218.5 -387.5 c 128,-1,7
 189 -382 189 -382 168 -373 c 128,-1,8
 147 -364 147 -364 132 -352 c 128,-1,9
 117 -340 117 -340 104 -327 c 1,10,-1
 134 -268 l 1,11,12
 162 -291 162 -291 194.5 -300.5 c 128,-1,13
 227 -310 227 -310 272 -310 c 0,14,15
 320 -310 320 -310 335 -292 c 128,-1,16
 350 -274 350 -274 350 -247 c 0,17,18
 350 -212 350 -212 333.5 -198 c 128,-1,19
 317 -184 317 -184 285 -184 c 2,20,-1
 233 -184 l 1,21,-1
 183 -123 l 1,22,-1
 217 -1 l 1,23,-1
 315 -1 l 1,24,-1
 279 -120 l 1,25,26
 306 -120 306 -120 337.5 -123.5 c 128,-1,27
 369 -127 369 -127 396 -139 c 128,-1,28
 423 -151 423 -151 441 -174 c 128,-1,29
 459 -197 459 -197 459 -236 c 0,0,1
EndSplineSet
EndChar

StartChar: onesuperior
Encoding: 185 185 121
Width: 561
GlyphClass: 2
Flags: W
LayerCount: 2
Fore
SplineSet
56 1152 m 1,0,1
 75 1162 75 1162 97 1175.5 c 128,-1,2
 119 1189 119 1189 146.5 1209 c 128,-1,3
 174 1229 174 1229 210 1258.5 c 128,-1,4
 246 1288 246 1288 293 1331 c 1,5,-1
 390 1312 l 1,6,-1
 390 300 l 1,7,-1
 273 300 l 1,8,-1
 273 1178 l 1,9,10
 243 1156 243 1156 220 1139.5 c 128,-1,11
 197 1123 197 1123 176 1109.5 c 128,-1,12
 155 1096 155 1096 133.5 1083 c 128,-1,13
 112 1070 112 1070 87 1056 c 1,14,-1
 56 1152 l 1,0,1
EndSplineSet
EndChar

StartChar: guillemotright
Encoding: 187 187 123
Width: 1100
GlyphClass: 2
Flags: W
LayerCount: 2
Fore
SplineSet
551 420 m 1,0,-1
 874 721 l 1,1,-1
 551 1020 l 1,2,-1
 655 1112 l 1,3,-1
 1042 721 l 1,4,-1
 655 330 l 1,5,-1
 551 420 l 1,0,-1
114 420 m 1,6,-1
 436 721 l 1,7,-1
 114 1020 l 1,8,-1
 215 1112 l 1,9,-1
 604 721 l 1,10,-1
 215 330 l 1,11,-1
 114 420 l 1,6,-1
EndSplineSet
EndChar

StartChar: AE
Encoding: 198 198 134
Width: 1839
GlyphClass: 2
Flags: W
LayerCount: 2
Fore
SplineSet
771 1299 m 1,0,-1
 403 507 l 1,1,-1
 928 507 l 1,2,-1
 805 1299 l 1,3,-1
 771 1299 l 1,0,-1
670 1441 m 1,4,-1
 1636 1441 l 1,5,-1
 1623 1302 l 1,6,-1
 969 1302 l 1,7,-1
 1048 821 l 1,8,-1
 1639 821 l 1,9,-1
 1650 685 l 1,10,-1
 1067 685 l 1,11,-1
 1159 139 l 1,12,-1
 1751 139 l 1,13,-1
 1784 0 l 1,14,-1
 1003 0 l 1,15,-1
 941 368 l 1,16,-1
 343 368 l 1,17,-1
 166 0 l 1,18,-1
 -17 0 l 1,19,-1
 670 1441 l 1,4,-1
EndSplineSet
EndChar

StartChar: Eth
Encoding: 208 208 144
Width: 1444
GlyphClass: 2
Flags: W
LayerCount: 2
Fore
SplineSet
64 801 m 1,0,-1
 194 801 l 1,1,-1
 194 1441 l 1,2,-1
 662 1441 l 2,3,4
 764 1441 764 1441 842 1424.5 c 128,-1,5
 920 1408 920 1408 978 1385 c 128,-1,6
 1036 1362 1036 1362 1074 1336.5 c 128,-1,7
 1112 1311 1112 1311 1134 1292 c 0,8,9
 1163 1266 1163 1266 1197 1222.5 c 128,-1,10
 1231 1179 1231 1179 1259.5 1111.5 c 128,-1,11
 1288 1044 1288 1044 1307 949.5 c 128,-1,12
 1326 855 1326 855 1326 727 c 0,13,14
 1326 589 1326 589 1306.5 489.5 c 128,-1,15
 1287 390 1287 390 1257.5 320 c 128,-1,16
 1228 250 1228 250 1193.5 207 c 128,-1,17
 1159 164 1159 164 1130 140 c 0,18,19
 1109 122 1109 122 1070.5 98 c 128,-1,20
 1032 74 1032 74 975.5 52.5 c 128,-1,21
 919 31 919 31 842.5 15.5 c 128,-1,22
 766 0 766 0 668 0 c 2,23,-1
 194 0 l 1,24,-1
 194 670 l 1,25,-1
 64 670 l 1,26,-1
 64 801 l 1,0,-1
368 1297 m 1,27,-1
 368 801 l 1,28,-1
 623 801 l 1,29,-1
 623 670 l 1,30,-1
 368 670 l 1,31,-1
 368 145 l 1,32,-1
 665 145 l 2,33,34
 747 145 747 145 809 157 c 128,-1,35
 871 169 871 169 916 187 c 128,-1,36
 961 205 961 205 989.5 226 c 128,-1,37
 1018 247 1018 247 1034 266 c 256,38,39
 1050 285 1050 285 1069.5 318 c 128,-1,40
 1089 351 1089 351 1106 405 c 128,-1,41
 1123 459 1123 459 1135 537 c 128,-1,42
 1147 615 1147 615 1147 723 c 0,43,44
 1147 827 1147 827 1136 903.5 c 128,-1,45
 1125 980 1125 980 1109 1034 c 128,-1,46
 1093 1088 1093 1088 1074.5 1122 c 128,-1,47
 1056 1156 1056 1156 1041 1175 c 256,48,49
 1026 1194 1026 1194 996 1215.5 c 128,-1,50
 966 1237 966 1237 918.5 1255 c 128,-1,51
 871 1273 871 1273 804 1285 c 128,-1,52
 737 1297 737 1297 647 1297 c 2,53,-1
 368 1297 l 1,27,-1
EndSplineSet
EndChar

StartChar: multiply
Encoding: 215 215 151
Width: 892
GlyphClass: 2
Flags: W
LayerCount: 2
Fore
SplineSet
548 629 m 1,0,-1
 749 428 l 1,1,-1
 646 328 l 1,2,-1
 446 528 l 1,3,-1
 245 328 l 1,4,-1
 143 428 l 1,5,-1
 343 629 l 1,6,-1
 143 829 l 1,7,-1
 245 930 l 1,8,-1
 446 729 l 1,9,-1
 646 930 l 1,10,-1
 749 829 l 1,11,-1
 548 629 l 1,0,-1
EndSplineSet
EndChar

StartChar: Thorn
Encoding: 222 222 158
Width: 1245
GlyphClass: 2
Flags: W
LayerCount: 2
Fore
SplineSet
365 1087 m 1,0,-1
 365 518 l 1,1,-1
 548 518 l 2,2,3
 633 518 633 518 693.5 522 c 128,-1,4
 754 526 754 526 796 533.5 c 128,-1,5
 838 541 838 541 865 552.5 c 128,-1,6
 892 564 892 564 912 580 c 0,7,8
 927 592 927 592 941 607.5 c 128,-1,9
 955 623 955 623 966 648 c 128,-1,10
 977 673 977 673 983.5 709 c 128,-1,11
 990 745 990 745 990 799 c 0,12,13
 990 854 990 854 983 892.5 c 128,-1,14
 976 931 976 931 964 958 c 128,-1,15
 952 985 952 985 936.5 1002.5 c 128,-1,16
 921 1020 921 1020 904 1033 c 0,17,18
 890 1043 890 1043 871 1053 c 128,-1,19
 852 1063 852 1063 822 1070.5 c 128,-1,20
 792 1078 792 1078 748.5 1082.5 c 128,-1,21
 705 1087 705 1087 641 1087 c 2,22,-1
 365 1087 l 1,0,-1
191 1441 m 1,23,-1
 365 1441 l 1,24,-1
 365 1231 l 1,25,-1
 561 1231 l 2,26,27
 666 1231 666 1231 744 1224.5 c 128,-1,28
 822 1218 822 1218 880.5 1205 c 128,-1,29
 939 1192 939 1192 980 1172 c 128,-1,30
 1021 1152 1021 1152 1051 1124 c 0,31,32
 1073 1104 1073 1104 1094.5 1076 c 128,-1,33
 1116 1048 1116 1048 1133.5 1009 c 128,-1,34
 1151 970 1151 970 1162 919 c 128,-1,35
 1173 868 1173 868 1173 802 c 256,36,37
 1173 736 1173 736 1162 685 c 128,-1,38
 1151 634 1151 634 1133 596 c 128,-1,39
 1115 558 1115 558 1093 530.5 c 128,-1,40
 1071 503 1071 503 1049 484 c 0,41,42
 1025 463 1025 463 990.5 444 c 128,-1,43
 956 425 956 425 906 410 c 128,-1,44
 856 395 856 395 787.5 386.5 c 128,-1,45
 719 378 719 378 628 378 c 2,46,-1
 365 378 l 1,47,-1
 365 0 l 1,48,-1
 191 0 l 1,49,-1
 191 1441 l 1,23,-1
EndSplineSet
EndChar

StartChar: germandbls
Encoding: 223 223 159
Width: 1226
GlyphClass: 2
Flags: W
LayerCount: 2
Fore
SplineSet
157 1105 m 2,0,1
 157 1160 157 1160 165.5 1203.5 c 128,-1,2
 174 1247 174 1247 187.5 1281 c 128,-1,3
 201 1315 201 1315 217 1339.5 c 128,-1,4
 233 1364 233 1364 248 1381 c 0,5,6
 266 1402 266 1402 294.5 1419 c 128,-1,7
 323 1436 323 1436 364.5 1447.5 c 128,-1,8
 406 1459 406 1459 461.5 1465.5 c 128,-1,9
 517 1472 517 1472 589 1472 c 0,10,11
 653 1472 653 1472 702.5 1467.5 c 128,-1,12
 752 1463 752 1463 788.5 1455.5 c 128,-1,13
 825 1448 825 1448 851.5 1436.5 c 128,-1,14
 878 1425 878 1425 897 1412 c 0,15,16
 921 1395 921 1395 945 1369 c 128,-1,17
 969 1343 969 1343 988 1306.5 c 128,-1,18
 1007 1270 1007 1270 1019 1223 c 128,-1,19
 1031 1176 1031 1176 1031 1117 c 0,20,21
 1031 1065 1031 1065 1020 1016 c 128,-1,22
 1009 967 1009 967 985.5 927.5 c 128,-1,23
 962 888 962 888 926 861.5 c 128,-1,24
 890 835 890 835 841 828 c 1,25,26
 857 824 857 824 877 819.5 c 128,-1,27
 897 815 897 815 919.5 808 c 128,-1,28
 942 801 942 801 965 789.5 c 128,-1,29
 988 778 988 778 1009 761 c 0,30,31
 1033 741 1033 741 1053.5 712.5 c 128,-1,32
 1074 684 1074 684 1089 644 c 128,-1,33
 1104 604 1104 604 1113 551.5 c 128,-1,34
 1122 499 1122 499 1122 432 c 0,35,36
 1122 355 1122 355 1113.5 297 c 128,-1,37
 1105 239 1105 239 1090 195.5 c 128,-1,38
 1075 152 1075 152 1056 121 c 128,-1,39
 1037 90 1037 90 1016 69 c 1,40,41
 971 27 971 27 890.5 2 c 128,-1,42
 810 -23 810 -23 710 -23 c 0,43,44
 650 -23 650 -23 605.5 -10.5 c 128,-1,45
 561 2 561 2 528 23 c 128,-1,46
 495 44 495 44 472 72.5 c 128,-1,47
 449 101 449 101 431 134 c 1,48,-1
 501 184 l 1,49,50
 521 155 521 155 548 141 c 128,-1,51
 575 127 575 127 603.5 121.5 c 128,-1,52
 632 116 632 116 660 116 c 128,-1,53
 688 116 688 116 710 116 c 0,54,55
 759 116 759 116 795 122 c 128,-1,56
 831 128 831 128 855.5 138 c 128,-1,57
 880 148 880 148 895.5 160 c 128,-1,58
 911 172 911 172 919 184 c 0,59,60
 932 201 932 201 940.5 223 c 128,-1,61
 949 245 949 245 953.5 274.5 c 128,-1,62
 958 304 958 304 959.5 342 c 128,-1,63
 961 380 961 380 961 429 c 0,64,65
 961 482 961 482 957 521.5 c 128,-1,66
 953 561 953 561 946.5 590.5 c 128,-1,67
 940 620 940 620 930 640.5 c 128,-1,68
 920 661 920 661 908 676 c 0,69,70
 896 690 896 690 878.5 706 c 128,-1,71
 861 722 861 722 837 735 c 128,-1,72
 813 748 813 748 781.5 756.5 c 128,-1,73
 750 765 750 765 709 765 c 2,74,-1
 531 765 l 1,75,-1
 531 881 l 1,76,-1
 710 881 l 2,77,78
 750 881 750 881 780 892.5 c 128,-1,79
 810 904 810 904 830.5 931.5 c 128,-1,80
 851 959 851 959 861.5 1003.5 c 128,-1,81
 872 1048 872 1048 872 1114 c 0,82,83
 872 1186 872 1186 860.5 1230.5 c 128,-1,84
 849 1275 849 1275 816 1301 c 0,85,86
 785 1325 785 1325 731 1334 c 128,-1,87
 677 1343 677 1343 589 1343 c 0,88,89
 497 1343 497 1343 440.5 1331.5 c 128,-1,90
 384 1320 384 1320 353 1283 c 0,91,92
 330 1254 330 1254 320 1207 c 128,-1,93
 310 1160 310 1160 310 1087 c 2,94,-1
 310 0 l 1,95,-1
 157 0 l 1,96,-1
 157 1105 l 2,0,1
EndSplineSet
EndChar

StartChar: ae
Encoding: 230 230 166
Width: 1731
GlyphClass: 2
Flags: W
LayerCount: 2
Fore
SplineSet
262 750 m 1,0,-1
 134 798 l 1,1,2
 143 844 143 844 156 875.5 c 128,-1,3
 169 907 169 907 187 928.5 c 128,-1,4
 205 950 205 950 228 964.5 c 128,-1,5
 251 979 251 979 279 992 c 0,6,7
 320 1011 320 1011 382.5 1023 c 128,-1,8
 445 1035 445 1035 539 1035 c 0,9,10
 626 1035 626 1035 686 1020.5 c 128,-1,11
 746 1006 746 1006 784 985.5 c 128,-1,12
 822 965 822 965 842 942 c 128,-1,13
 862 919 862 919 869 902 c 1,14,-1
 871 896 l 1,15,-1
 872 897 l 1,16,17
 888 918 888 918 915 942 c 128,-1,18
 942 966 942 966 984 986.5 c 128,-1,19
 1026 1007 1026 1007 1083.5 1020.5 c 128,-1,20
 1141 1034 1141 1034 1218 1034 c 0,21,22
 1297 1034 1297 1034 1353 1020.5 c 128,-1,23
 1409 1007 1409 1007 1447 986.5 c 128,-1,24
 1485 966 1485 966 1508.5 942.5 c 128,-1,25
 1532 919 1532 919 1546 898 c 0,26,27
 1557 883 1557 883 1570 858.5 c 128,-1,28
 1583 834 1583 834 1595 797 c 128,-1,29
 1607 760 1607 760 1615 709 c 128,-1,30
 1623 658 1623 658 1623 591 c 0,31,32
 1623 586 1623 586 1622.5 570.5 c 128,-1,33
 1622 555 1622 555 1622 537.5 c 128,-1,34
 1622 520 1622 520 1621.5 503.5 c 128,-1,35
 1621 487 1621 487 1621 480 c 1,36,-1
 934 480 l 1,37,38
 934 369 934 369 953 300 c 128,-1,39
 972 231 972 231 995 193 c 0,40,41
 1022 148 1022 148 1057 129 c 1,42,43
 1071 120 1071 120 1094 113 c 0,44,45
 1114 107 1114 107 1146 102 c 128,-1,46
 1178 97 1178 97 1226 97 c 0,47,48
 1272 97 1272 97 1304 102 c 128,-1,49
 1336 107 1336 107 1358 114.5 c 128,-1,50
 1380 122 1380 122 1393.5 129.5 c 128,-1,51
 1407 137 1407 137 1415 143 c 0,52,53
 1442 161 1442 161 1459 198.5 c 128,-1,54
 1476 236 1476 236 1489 307 c 1,55,-1
 1613 273 l 1,56,57
 1605 225 1605 225 1595 192.5 c 128,-1,58
 1585 160 1585 160 1575 139.5 c 128,-1,59
 1565 119 1565 119 1555.5 108 c 128,-1,60
 1546 97 1546 97 1540 90 c 0,61,62
 1525 71 1525 71 1499.5 51 c 128,-1,63
 1474 31 1474 31 1436 14 c 128,-1,64
 1398 -3 1398 -3 1345 -14 c 128,-1,65
 1292 -25 1292 -25 1222 -25 c 0,66,67
 1165 -25 1165 -25 1109.5 -16.5 c 128,-1,68
 1054 -8 1054 -8 1005 12 c 128,-1,69
 956 32 956 32 918 65 c 128,-1,70
 880 98 880 98 858 147 c 1,71,72
 807 69 807 69 704.5 22 c 128,-1,73
 602 -25 602 -25 450 -25 c 0,74,75
 384 -25 384 -25 334 -15 c 128,-1,76
 284 -5 284 -5 248.5 10 c 128,-1,77
 213 25 213 25 190.5 42 c 128,-1,78
 168 59 168 59 157 73 c 0,79,80
 149 83 149 83 139 101 c 128,-1,81
 129 119 129 119 120 145 c 128,-1,82
 111 171 111 171 105 205 c 128,-1,83
 99 239 99 239 99 282 c 0,84,85
 99 333 99 333 105 368 c 128,-1,86
 111 403 111 403 119.5 427.5 c 128,-1,87
 128 452 128 452 138 467 c 128,-1,88
 148 482 148 482 156 492 c 0,89,90
 169 508 169 508 195.5 527.5 c 128,-1,91
 222 547 222 547 267 564.5 c 128,-1,92
 312 582 312 582 377.5 595.5 c 128,-1,93
 443 609 443 609 534 613 c 0,94,95
 579 615 579 615 613.5 615 c 128,-1,96
 648 615 648 615 676.5 616 c 128,-1,97
 705 617 705 617 729.5 619 c 128,-1,98
 754 621 754 621 778 627 c 1,99,100
 778 703 778 703 774 749.5 c 128,-1,101
 770 796 770 796 763 821.5 c 128,-1,102
 756 847 756 847 747 857 c 128,-1,103
 738 867 738 867 728 872 c 0,104,105
 722 875 722 875 710.5 881 c 128,-1,106
 699 887 699 887 678 893.5 c 128,-1,107
 657 900 657 900 623.5 904.5 c 128,-1,108
 590 909 590 909 541 909 c 0,109,110
 473 909 473 909 432 904 c 128,-1,111
 391 899 391 899 368 893 c 0,112,113
 342 886 342 886 331 878 c 1,114,115
 316 869 316 869 303 851 c 0,116,117
 292 836 292 836 280 811.5 c 128,-1,118
 268 787 268 787 262 750 c 1,0,-1
778 295 m 2,119,-1
 778 505 l 1,120,-1
 778 515 l 1,121,122
 760 509 760 509 740.5 506.5 c 128,-1,123
 721 504 721 504 695 502 c 128,-1,124
 669 500 669 500 632.5 499 c 128,-1,125
 596 498 596 498 545 495 c 0,126,127
 479 490 479 490 433.5 481.5 c 128,-1,128
 388 473 388 473 358 462.5 c 128,-1,129
 328 452 328 452 311 440.5 c 128,-1,130
 294 429 294 429 285 418 c 0,131,132
 273 404 273 404 264.5 371.5 c 128,-1,133
 256 339 256 339 256 285 c 0,134,135
 256 235 256 235 263.5 203 c 128,-1,136
 271 171 271 171 279 159 c 0,137,138
 285 149 285 149 296 138.5 c 128,-1,139
 307 128 307 128 329.5 119 c 128,-1,140
 352 110 352 110 389.5 104.5 c 128,-1,141
 427 99 427 99 487 99 c 0,142,143
 557 99 557 99 611 115 c 128,-1,144
 665 131 665 131 702 158 c 128,-1,145
 739 185 739 185 758.5 220.5 c 128,-1,146
 778 256 778 256 778 295 c 2,119,-1
936 594 m 1,147,-1
 1389 594 l 1,148,-1
 1468 588 l 1,149,150
 1464 659 1464 659 1455 708 c 128,-1,151
 1446 757 1446 757 1434.5 789 c 128,-1,152
 1423 821 1423 821 1410.5 838 c 128,-1,153
 1398 855 1398 855 1387 863 c 0,154,155
 1377 870 1377 870 1362.5 878.5 c 128,-1,156
 1348 887 1348 887 1327 894.5 c 128,-1,157
 1306 902 1306 902 1278 906.5 c 128,-1,158
 1250 911 1250 911 1214 911 c 0,159,160
 1166 911 1166 911 1130.5 904.5 c 128,-1,161
 1095 898 1095 898 1070 888 c 128,-1,162
 1045 878 1045 878 1029.5 867 c 128,-1,163
 1014 856 1014 856 1005 846 c 256,164,165
 996 836 996 836 985 818.5 c 128,-1,166
 974 801 974 801 964 771 c 128,-1,167
 954 741 954 741 946 698 c 128,-1,168
 938 655 938 655 936 594 c 1,147,-1
EndSplineSet
EndChar

StartChar: eth
Encoding: 240 240 176
Width: 1119
GlyphClass: 2
Flags: W
LayerCount: 2
Fore
SplineSet
154 1226 m 1,0,1
 183 1244 183 1244 218 1266.5 c 128,-1,2
 253 1289 253 1289 295.5 1308.5 c 128,-1,3
 338 1328 338 1328 390.5 1341 c 128,-1,4
 443 1354 443 1354 507 1354 c 0,5,6
 561 1354 561 1354 606 1344.5 c 128,-1,7
 651 1335 651 1335 688 1320.5 c 128,-1,8
 725 1306 725 1306 752.5 1289 c 128,-1,9
 780 1272 780 1272 799 1258 c 1,10,-1
 913 1346 l 1,11,-1
 984 1246 l 1,12,-1
 878 1169 l 1,13,14
 896 1139 896 1139 916.5 1091 c 128,-1,15
 937 1043 937 1043 955 973 c 128,-1,16
 973 903 973 903 985 810.5 c 128,-1,17
 997 718 997 718 997 599 c 0,18,19
 997 522 997 522 990 457.5 c 128,-1,20
 983 393 983 393 971 340.5 c 128,-1,21
 959 288 959 288 944 247 c 128,-1,22
 929 206 929 206 913 175 c 0,23,24
 876 102 876 102 830 61 c 0,25,26
 799 34 799 34 756 14 c 0,27,28
 719 -3 719 -3 664.5 -17.5 c 128,-1,29
 610 -32 610 -32 536 -32 c 0,30,31
 446 -32 446 -32 383 -12.5 c 128,-1,32
 320 7 320 7 278 31 c 0,33,34
 230 59 230 59 198 95 c 1,35,36
 167 134 167 134 142 184 c 0,37,38
 121 227 121 227 104 288.5 c 128,-1,39
 87 350 87 350 87 428 c 0,40,41
 87 528 87 528 109.5 598 c 128,-1,42
 132 668 132 668 160 713 c 0,43,44
 192 765 192 765 233 799 c 1,45,46
 258 818 258 818 295 834 c 0,47,48
 327 847 327 847 375.5 858 c 128,-1,49
 424 869 424 869 493 869 c 0,50,51
 584 869 584 869 671.5 833 c 128,-1,52
 759 797 759 797 826 721 c 1,53,54
 826 795 826 795 818.5 853 c 128,-1,55
 811 911 811 911 800 955 c 128,-1,56
 789 999 789 999 776.5 1029.5 c 128,-1,57
 764 1060 764 1060 754 1079 c 1,58,-1
 642 997 l 1,59,-1
 579 1088 l 1,60,-1
 677 1164 l 1,61,62
 648 1183 648 1183 604.5 1198.5 c 128,-1,63
 561 1214 561 1214 501 1214 c 0,64,65
 435 1214 435 1214 383.5 1198.5 c 128,-1,66
 332 1183 332 1183 297 1164 c 0,67,68
 256 1142 256 1142 224 1114 c 1,69,-1
 154 1226 l 1,0,1
534 99 m 0,70,71
 587 99 587 99 624.5 108.5 c 128,-1,72
 662 118 662 118 686 130 c 0,73,74
 714 143 714 143 732 161 c 1,75,76
 758 184 758 184 778 231 c 0,77,78
 795 271 795 271 810 338.5 c 128,-1,79
 825 406 825 406 825 511 c 1,80,81
 807 563 807 563 775 605 c 128,-1,82
 743 647 743 647 702 676.5 c 128,-1,83
 661 706 661 706 613 722 c 128,-1,84
 565 738 565 738 514 738 c 0,85,86
 466 738 466 738 430.5 728 c 128,-1,87
 395 718 395 718 371 707 c 0,88,89
 343 693 343 693 323 676 c 1,90,91
 303 657 303 657 287 624 c 0,92,93
 273 595 273 595 262 547 c 128,-1,94
 251 499 251 499 251 427 c 256,95,96
 251 355 251 355 258.5 310 c 128,-1,97
 266 265 266 265 275 239 c 0,98,99
 286 208 286 208 299 193 c 1,100,101
 318 166 318 166 351 146 c 0,102,103
 379 128 379 128 423.5 113.5 c 128,-1,104
 468 99 468 99 534 99 c 0,70,71
EndSplineSet
EndChar

StartChar: oslash
Encoding: 248 248 184
Width: 1153
GlyphClass: 2
Flags: W
LayerCount: 2
Fore
SplineSet
574 1034 m 0,0,1
 610 1034 610 1034 642 1031 c 1,2,-1
 674 1172 l 1,3,-1
 789 1155 l 1,4,-1
 756 1011 l 1,5,6
 828 991 828 991 872 963.5 c 128,-1,7
 916 936 916 936 937 913 c 0,8,9
 953 895 953 895 971.5 865.5 c 128,-1,10
 990 836 990 836 1006 789 c 128,-1,11
 1022 742 1022 742 1032.5 673.5 c 128,-1,12
 1043 605 1043 605 1043 509 c 256,13,14
 1043 413 1043 413 1032.5 343 c 128,-1,15
 1022 273 1022 273 1006 224.5 c 128,-1,16
 990 176 990 176 971.5 145.5 c 128,-1,17
 953 115 953 115 937 97 c 256,18,19
 921 79 921 79 892 58 c 128,-1,20
 863 37 863 37 818.5 18.5 c 128,-1,21
 774 0 774 0 713.5 -12.5 c 128,-1,22
 653 -25 653 -25 574 -25 c 0,23,24
 560 -25 560 -25 547.5 -24.5 c 128,-1,25
 535 -24 535 -24 523 -23 c 1,26,-1
 495 -150 l 1,27,-1
 382 -132 l 1,28,-1
 410 -7 l 1,29,30
 331 12 331 12 284 42 c 128,-1,31
 237 72 237 72 215 98 c 0,32,33
 199 116 199 116 180.5 146.5 c 128,-1,34
 162 177 162 177 146 225 c 128,-1,35
 130 273 130 273 119.5 342 c 128,-1,36
 109 411 109 411 109 506 c 0,37,38
 109 602 109 602 119.5 670.5 c 128,-1,39
 130 739 130 739 145.5 787 c 128,-1,40
 161 835 161 835 179.5 864.5 c 128,-1,41
 198 894 198 894 214 912 c 256,42,43
 230 930 230 930 259 951 c 128,-1,44
 288 972 288 972 332.5 990.5 c 128,-1,45
 377 1009 377 1009 436.5 1021.5 c 128,-1,46
 496 1034 496 1034 574 1034 c 0,0,1
574 909 m 0,47,48
 514 909 514 909 471.5 902 c 128,-1,49
 429 895 429 895 400 883.5 c 128,-1,50
 371 872 371 872 353 858.5 c 128,-1,51
 335 845 335 845 325 832 c 256,52,53
 315 819 315 819 304.5 798 c 128,-1,54
 294 777 294 777 285.5 739.5 c 128,-1,55
 277 702 277 702 271.5 644.5 c 128,-1,56
 266 587 266 587 266 502 c 0,57,58
 266 419 266 419 271.5 363 c 128,-1,59
 277 307 277 307 286 270 c 128,-1,60
 295 233 295 233 305.5 211.5 c 128,-1,61
 316 190 316 190 326 178 c 0,62,63
 339 162 339 162 364.5 145 c 128,-1,64
 390 128 390 128 437 117 c 1,65,-1
 615 908 l 1,66,67
 605 908 605 908 595 908.5 c 128,-1,68
 585 909 585 909 574 909 c 0,47,48
823 836 m 0,69,70
 811 850 811 850 789 864.5 c 128,-1,71
 767 879 767 879 729 890 c 1,72,-1
 552 102 l 1,73,-1
 580 102 l 2,74,75
 639 102 639 102 681.5 109.5 c 128,-1,76
 724 117 724 117 753 128 c 128,-1,77
 782 139 782 139 799.5 153 c 128,-1,78
 817 167 817 167 827 180 c 256,79,80
 837 193 837 193 847.5 214 c 128,-1,81
 858 235 858 235 866.5 272 c 128,-1,82
 875 309 875 309 880.5 365 c 128,-1,83
 886 421 886 421 886 504 c 0,84,85
 886 591 886 591 880 649 c 128,-1,86
 874 707 874 707 864.5 744.5 c 128,-1,87
 855 782 855 782 844 803 c 128,-1,88
 833 824 833 824 823 836 c 0,69,70
EndSplineSet
EndChar

StartChar: thorn
Encoding: 254 254 190
Width: 1162
GlyphClass: 2
Flags: W
LayerCount: 2
Fore
SplineSet
609 908 m 0,0,1
 549 908 549 908 508.5 900.5 c 128,-1,2
 468 893 468 893 441 882.5 c 128,-1,3
 414 872 414 872 398 858.5 c 128,-1,4
 382 845 382 845 373 833 c 0,5,6
 363 820 363 820 352 799.5 c 128,-1,7
 341 779 341 779 332 742.5 c 128,-1,8
 323 706 323 706 317 650.5 c 128,-1,9
 311 595 311 595 311 512 c 0,10,11
 311 432 311 432 316.5 373.5 c 128,-1,12
 322 315 322 315 329.5 275 c 128,-1,13
 337 235 337 235 346 211.5 c 128,-1,14
 355 188 355 188 363 179 c 1,15,16
 374 164 374 164 391.5 150 c 128,-1,17
 409 136 409 136 437 125 c 128,-1,18
 465 114 465 114 506.5 107 c 128,-1,19
 548 100 548 100 608 100 c 0,20,21
 665 100 665 100 704.5 107 c 128,-1,22
 744 114 744 114 770 125.5 c 128,-1,23
 796 137 796 137 811 150.5 c 128,-1,24
 826 164 826 164 834 176 c 0,25,26
 843 188 843 188 853 208.5 c 128,-1,27
 863 229 863 229 871.5 265.5 c 128,-1,28
 880 302 880 302 885.5 358 c 128,-1,29
 891 414 891 414 891 498 c 0,30,31
 891 585 891 585 885.5 643.5 c 128,-1,32
 880 702 880 702 871.5 740 c 128,-1,33
 863 778 863 778 853.5 799.5 c 128,-1,34
 844 821 844 821 836 834 c 256,35,36
 828 847 828 847 813 860 c 128,-1,37
 798 873 798 873 772 883.5 c 128,-1,38
 746 894 746 894 706.5 901 c 128,-1,39
 667 908 667 908 609 908 c 0,0,1
158 1441 m 1,40,-1
 312 1441 l 1,41,-1
 312 874 l 1,42,43
 330 899 330 899 354.5 927 c 128,-1,44
 379 955 379 955 417.5 978 c 128,-1,45
 456 1001 456 1001 511.5 1016 c 128,-1,46
 567 1031 567 1031 646 1031 c 0,47,48
 715 1031 715 1031 766.5 1020 c 128,-1,49
 818 1009 818 1009 854 993 c 128,-1,50
 890 977 890 977 913 960 c 128,-1,51
 936 943 936 943 949 930 c 0,52,53
 966 913 966 913 983.5 883.5 c 128,-1,54
 1001 854 1001 854 1015 804.5 c 128,-1,55
 1029 755 1029 755 1038 682.5 c 128,-1,56
 1047 610 1047 610 1047 506 c 0,57,58
 1047 410 1047 410 1039.5 344.5 c 128,-1,59
 1032 279 1032 279 1021.5 235.5 c 128,-1,60
 1011 192 1011 192 999 166 c 128,-1,61
 987 140 987 140 977 123 c 0,62,63
 964 100 964 100 938.5 74 c 128,-1,64
 913 48 913 48 873 26.5 c 128,-1,65
 833 5 833 5 776.5 -9 c 128,-1,66
 720 -23 720 -23 645 -23 c 0,67,68
 555 -23 555 -23 495.5 -4 c 128,-1,69
 436 15 436 15 398.5 41 c 128,-1,70
 361 67 361 67 341.5 94 c 128,-1,71
 322 121 322 121 312 137 c 1,72,-1
 312 -301 l 1,73,-1
 158 -301 l 1,74,-1
 158 1441 l 1,40,-1
EndSplineSet
EndChar

StartChar: dotlessi
Encoding: 305 305 192
Width: 470
GlyphClass: 2
Flags: W
LayerCount: 2
Fore
SplineSet
158 0 m 1,0,-1
 158 1011 l 1,1,-1
 312 1011 l 1,2,-1
 312 0 l 1,3,-1
 158 0 l 1,0,-1
EndSplineSet
EndChar

StartChar: Lslash
Encoding: 321 321 193
Width: 1039
GlyphClass: 2
Flags: W
LayerCount: 2
Fore
SplineSet
196 0 m 1,0,-1
 196 564 l 1,1,-1
 102 512 l 1,2,-1
 41 621 l 1,3,-1
 196 708 l 1,4,-1
 196 1441 l 1,5,-1
 370 1441 l 1,6,-1
 370 805 l 1,7,-1
 602 936 l 1,8,-1
 667 829 l 1,9,-1
 370 662 l 1,10,-1
 370 143 l 1,11,-1
 957 143 l 1,12,-1
 957 0 l 1,13,-1
 196 0 l 1,0,-1
EndSplineSet
EndChar

StartChar: lslash
Encoding: 322 322 194
Width: 577
GlyphClass: 2
Flags: W
LayerCount: 2
Fore
SplineSet
194 587 m 1,0,-1
 59 512 l 1,1,-1
 -3 621 l 1,2,-1
 194 731 l 1,3,-1
 194 1441 l 1,4,-1
 347 1441 l 1,5,-1
 347 817 l 1,6,-1
 558 936 l 1,7,-1
 624 829 l 1,8,-1
 347 673 l 1,9,-1
 347 0 l 1,10,-1
 194 0 l 1,11,-1
 194 587 l 1,0,-1
EndSplineSet
EndChar

StartChar: OE
Encoding: 338 338 195
Width: 2050
GlyphClass: 2
Flags: W
LayerCount: 2
Fore
SplineSet
1079 1296 m 1,0,1
 1029 1303 1029 1303 981 1309 c 0,2,3
 939 1314 939 1314 893.5 1318.5 c 128,-1,4
 848 1323 848 1323 814 1323 c 0,5,6
 726 1323 726 1323 659 1312.5 c 128,-1,7
 592 1302 592 1302 544 1286.5 c 128,-1,8
 496 1271 496 1271 464.5 1251.5 c 128,-1,9
 433 1232 433 1232 417 1214 c 0,10,11
 399 1193 399 1193 378.5 1157.5 c 128,-1,12
 358 1122 358 1122 340.5 1065 c 128,-1,13
 323 1008 323 1008 312 924.5 c 128,-1,14
 301 841 301 841 301 724 c 0,15,16
 301 599 301 599 312 512 c 128,-1,17
 323 425 323 425 340.5 366.5 c 128,-1,18
 358 308 358 308 378.5 273.5 c 128,-1,19
 399 239 399 239 417 218 c 1,20,21
 434 200 434 200 464 180 c 128,-1,22
 494 160 494 160 540.5 144 c 128,-1,23
 587 128 587 128 652 117.5 c 128,-1,24
 717 107 717 107 805 107 c 0,25,26
 844 107 844 107 891.5 111.5 c 128,-1,27
 939 116 939 116 981 122 c 0,28,29
 1029 129 1029 129 1079 138 c 1,30,-1
 1079 1296 l 1,0,1
776 1472 m 1,31,32
 823 1471 823 1471 876 1466.5 c 128,-1,33
 929 1462 929 1462 975 1456 c 0,34,35
 1029 1449 1029 1449 1081 1441 c 1,36,-1
 1939 1441 l 1,37,-1
 1915 1303 l 1,38,-1
 1248 1303 l 1,39,-1
 1248 822 l 1,40,-1
 1862 822 l 1,41,-1
 1862 686 l 1,42,-1
 1248 686 l 1,43,-1
 1248 141 l 1,44,-1
 1917 141 l 1,45,-1
 1941 1 l 1,46,-1
 1087 1 l 1,47,48
 1032 -11 1032 -11 977 -20 c 0,49,50
 929 -28 929 -28 873.5 -34.5 c 128,-1,51
 818 -41 818 -41 768 -41 c 0,52,53
 663 -41 663 -41 584 -24 c 128,-1,54
 505 -7 505 -7 448 17.5 c 128,-1,55
 391 42 391 42 353.5 69.5 c 128,-1,56
 316 97 316 97 294 117 c 0,57,58
 266 142 266 142 235.5 186 c 128,-1,59
 205 230 205 230 179.5 301 c 128,-1,60
 154 372 154 372 137.5 474.5 c 128,-1,61
 121 577 121 577 121 720 c 0,62,63
 121 852 121 852 136.5 949 c 128,-1,64
 152 1046 152 1046 175 1114.5 c 128,-1,65
 198 1183 198 1183 225 1226.5 c 128,-1,66
 252 1270 252 1270 275 1296 c 0,67,68
 299 1323 299 1323 339.5 1353.5 c 128,-1,69
 380 1384 380 1384 440 1410.5 c 128,-1,70
 500 1437 500 1437 583 1454.5 c 128,-1,71
 666 1472 666 1472 776 1472 c 1,31,32
EndSplineSet
EndChar

StartChar: oe
Encoding: 339 339 196
Width: 1841
GlyphClass: 2
Flags: W
LayerCount: 2
Fore
SplineSet
1502 595 m 1,0,-1
 1578 589 l 1,1,2
 1575 651 1575 651 1569 695.5 c 128,-1,3
 1563 740 1563 740 1554.5 771 c 128,-1,4
 1546 802 1546 802 1537 820.5 c 128,-1,5
 1528 839 1528 839 1520 849 c 0,6,7
 1511 859 1511 859 1495.5 870.5 c 128,-1,8
 1480 882 1480 882 1454.5 892 c 128,-1,9
 1429 902 1429 902 1392.5 909 c 128,-1,10
 1356 916 1356 916 1307 916 c 0,11,12
 1264 916 1264 916 1231 911 c 128,-1,13
 1198 906 1198 906 1173.5 898 c 128,-1,14
 1149 890 1149 890 1132.5 880.5 c 128,-1,15
 1116 871 1116 871 1106 863 c 256,16,17
 1096 855 1096 855 1084 837 c 128,-1,18
 1072 819 1072 819 1061 787.5 c 128,-1,19
 1050 756 1050 756 1042 709 c 128,-1,20
 1034 662 1034 662 1033 595 c 1,21,-1
 1502 595 l 1,0,-1
571 910 m 0,22,23
 512 910 512 910 470.5 902.5 c 128,-1,24
 429 895 429 895 401.5 884 c 128,-1,25
 374 873 374 873 357.5 859 c 128,-1,26
 341 845 341 845 332 832 c 0,27,28
 322 818 322 818 311 797 c 128,-1,29
 300 776 300 776 291 739 c 128,-1,30
 282 702 282 702 276 645.5 c 128,-1,31
 270 589 270 589 270 505 c 256,32,33
 270 421 270 421 276 364.5 c 128,-1,34
 282 308 282 308 291 271 c 128,-1,35
 300 234 300 234 311 212.5 c 128,-1,36
 322 191 322 191 332 178 c 256,37,38
 342 165 342 165 358.5 151.5 c 128,-1,39
 375 138 375 138 402.5 126.5 c 128,-1,40
 430 115 430 115 471 108 c 128,-1,41
 512 101 512 101 571 101 c 0,42,43
 629 101 629 101 670 108.5 c 128,-1,44
 711 116 711 116 739 127 c 128,-1,45
 767 138 767 138 784 152 c 128,-1,46
 801 166 801 166 810 179 c 0,47,48
 819 191 819 191 829 212 c 128,-1,49
 839 233 839 233 847.5 269 c 128,-1,50
 856 305 856 305 861.5 359.5 c 128,-1,51
 867 414 867 414 867 495 c 0,52,53
 867 583 867 583 861.5 642 c 128,-1,54
 856 701 856 701 847.5 739 c 128,-1,55
 839 777 839 777 828.5 798.5 c 128,-1,56
 818 820 818 820 809 833 c 256,57,58
 800 846 800 846 783 859.5 c 128,-1,59
 766 873 766 873 738 884 c 128,-1,60
 710 895 710 895 669 902.5 c 128,-1,61
 628 910 628 910 571 910 c 0,22,23
1722 274 m 1,62,63
 1715 227 1715 227 1704.5 192 c 128,-1,64
 1694 157 1694 157 1682.5 132.5 c 128,-1,65
 1671 108 1671 108 1659 92 c 128,-1,66
 1647 76 1647 76 1637 67 c 0,67,68
 1623 55 1623 55 1599 38 c 128,-1,69
 1575 21 1575 21 1536 6 c 128,-1,70
 1497 -9 1497 -9 1441.5 -20 c 128,-1,71
 1386 -31 1386 -31 1311 -31 c 0,72,73
 1233 -31 1233 -31 1178 -19 c 128,-1,74
 1123 -7 1123 -7 1085.5 9.5 c 128,-1,75
 1048 26 1048 26 1026 44.5 c 128,-1,76
 1004 63 1004 63 992 76 c 0,77,78
 981 87 981 87 971.5 100 c 128,-1,79
 962 113 962 113 951 128 c 1,80,81
 941 113 941 113 930 100.5 c 128,-1,82
 919 88 919 88 908 77 c 0,83,84
 894 64 894 64 868.5 45.5 c 128,-1,85
 843 27 843 27 802.5 10 c 128,-1,86
 762 -7 762 -7 705.5 -19 c 128,-1,87
 649 -31 649 -31 574 -31 c 0,88,89
 497 -31 497 -31 437.5 -18.5 c 128,-1,90
 378 -6 378 -6 333.5 13 c 128,-1,91
 289 32 289 32 260 53 c 128,-1,92
 231 74 231 74 215 92 c 256,93,94
 199 110 199 110 180.5 139.5 c 128,-1,95
 162 169 162 169 146 217 c 128,-1,96
 130 265 130 265 119.5 334 c 128,-1,97
 109 403 109 403 109 499 c 0,98,99
 109 596 109 596 119.5 666 c 128,-1,100
 130 736 130 736 145.5 785.5 c 128,-1,101
 161 835 161 835 179 866 c 128,-1,102
 197 897 197 897 213 916 c 0,103,104
 228 934 228 934 257 955.5 c 128,-1,105
 286 977 286 977 329.5 996 c 128,-1,106
 373 1015 373 1015 432.5 1027.5 c 128,-1,107
 492 1040 492 1040 569 1040 c 0,108,109
 648 1040 648 1040 707 1028 c 128,-1,110
 766 1016 766 1016 808 999 c 128,-1,111
 850 982 850 982 875.5 963.5 c 128,-1,112
 901 945 901 945 914 933 c 0,113,114
 935 912 935 912 953 885 c 1,115,116
 967 907 967 907 981.5 922.5 c 128,-1,117
 996 938 996 938 1009 949 c 0,118,119
 1023 961 1023 961 1046.5 977 c 128,-1,120
 1070 993 1070 993 1106.5 1007 c 128,-1,121
 1143 1021 1143 1021 1193.5 1030.5 c 128,-1,122
 1244 1040 1244 1040 1313 1040 c 0,123,124
 1388 1040 1388 1040 1440.5 1029 c 128,-1,125
 1493 1018 1493 1018 1529.5 1003 c 128,-1,126
 1566 988 1566 988 1588 971.5 c 128,-1,127
 1610 955 1610 955 1623 943 c 0,128,129
 1641 927 1641 927 1661 898 c 128,-1,130
 1681 869 1681 869 1697 826 c 128,-1,131
 1713 783 1713 783 1723.5 725.5 c 128,-1,132
 1734 668 1734 668 1734 594 c 0,133,134
 1734 589 1734 589 1734 573 c 128,-1,135
 1734 557 1734 557 1733.5 539 c 128,-1,136
 1733 521 1733 521 1732.5 504 c 128,-1,137
 1732 487 1732 487 1731 480 c 1,138,-1
 1029 480 l 1,139,140
 1030 401 1030 401 1037.5 344.5 c 128,-1,141
 1045 288 1045 288 1056 249.5 c 128,-1,142
 1067 211 1067 211 1080 189 c 128,-1,143
 1093 167 1093 167 1104 157 c 0,144,145
 1127 137 1127 137 1179.5 118.5 c 128,-1,146
 1232 100 1232 100 1319 100 c 0,147,148
 1365 100 1365 100 1399 104.5 c 128,-1,149
 1433 109 1433 109 1456 115 c 128,-1,150
 1479 121 1479 121 1493.5 127.5 c 128,-1,151
 1508 134 1508 134 1516 138 c 0,152,153
 1528 144 1528 144 1539.5 156.5 c 128,-1,154
 1551 169 1551 169 1561 190.5 c 128,-1,155
 1571 212 1571 212 1580.5 243.5 c 128,-1,156
 1590 275 1590 275 1598 320 c 1,157,-1
 1722 274 l 1,62,63
EndSplineSet
EndChar

StartChar: florin
Encoding: 402 402 202
Width: 807
GlyphClass: 2
Flags: W
LayerCount: 2
Fore
SplineSet
280 -125 m 2,0,1
 262 -224 262 -224 240 -291 c 128,-1,2
 218 -358 218 -358 176.5 -399.5 c 128,-1,3
 135 -441 135 -441 68 -459 c 128,-1,4
 1 -477 1 -477 -105 -477 c 0,5,6
 -136 -477 -136 -477 -165.5 -473 c 128,-1,7
 -195 -469 -195 -469 -226 -461 c 1,8,-1
 -204 -330 l 1,9,10
 -175 -336 -175 -336 -144.5 -340 c 128,-1,11
 -114 -344 -114 -344 -85 -344 c 0,12,13
 -25 -344 -25 -344 10.5 -331 c 128,-1,14
 46 -318 46 -318 66 -292.5 c 128,-1,15
 86 -267 86 -267 96.5 -228.5 c 128,-1,16
 107 -190 107 -190 116 -139 c 2,17,-1
 292 860 l 1,18,-1
 81 860 l 1,19,-1
 104 993 l 1,20,-1
 315 993 l 1,21,-1
 353 1204 l 2,22,23
 370 1300 370 1300 393.5 1366 c 128,-1,24
 417 1432 417 1432 458.5 1472.5 c 128,-1,25
 500 1513 500 1513 566 1530.5 c 128,-1,26
 632 1548 632 1548 734 1548 c 0,27,28
 765 1548 765 1548 796.5 1547 c 128,-1,29
 828 1546 828 1546 859 1544 c 1,30,-1
 837 1409 l 1,31,32
 808 1411 808 1411 777.5 1413 c 128,-1,33
 747 1415 747 1415 718 1415 c 0,34,35
 656 1415 656 1415 620.5 1404 c 128,-1,36
 585 1393 585 1393 565 1369 c 128,-1,37
 545 1345 545 1345 535.5 1308 c 128,-1,38
 526 1271 526 1271 517 1219 c 2,39,-1
 478 993 l 1,40,-1
 763 993 l 1,41,-1
 738 860 l 1,42,-1
 456 860 l 1,43,-1
 280 -125 l 2,0,1
EndSplineSet
EndChar

StartChar: circumflex
Encoding: 710 710 231
Width: 705
GlyphClass: 2
Flags: W
LayerCount: 2
Fore
SplineSet
432 1135 m 1,0,-1
 329 1412 l 1,1,-1
 221 1135 l 1,2,-1
 76 1135 l 1,3,-1
 254 1472 l 1,4,-1
 398 1472 l 1,5,-1
 577 1135 l 1,6,-1
 432 1135 l 1,0,-1
EndSplineSet
EndChar

StartChar: caron
Encoding: 711 711 232
Width: 705
GlyphClass: 2
Flags: W
LayerCount: 2
Fore
SplineSet
432 1472 m 1,0,-1
 577 1472 l 1,1,-1
 398 1135 l 1,2,-1
 254 1135 l 1,3,-1
 76 1472 l 1,4,-1
 221 1472 l 1,5,-1
 329 1195 l 1,6,-1
 432 1472 l 1,0,-1
EndSplineSet
EndChar

StartChar: breve
Encoding: 728 728 233
Width: 997
GlyphClass: 2
Flags: W
LayerCount: 2
Fore
SplineSet
262 1509 m 1,0,1
 270 1467 270 1467 292 1431.5 c 128,-1,2
 314 1396 314 1396 345.5 1370 c 128,-1,3
 377 1344 377 1344 416.5 1329.5 c 128,-1,4
 456 1315 456 1315 498 1315 c 0,5,6
 541 1315 541 1315 580 1329.5 c 128,-1,7
 619 1344 619 1344 650.5 1370 c 128,-1,8
 682 1396 682 1396 703.5 1431.5 c 128,-1,9
 725 1467 725 1467 733 1509 c 1,10,-1
 844 1509 l 1,11,12
 837 1444 837 1444 806.5 1387 c 128,-1,13
 776 1330 776 1330 729.5 1288 c 128,-1,14
 683 1246 683 1246 623.5 1222 c 128,-1,15
 564 1198 564 1198 498 1198 c 0,16,17
 433 1198 433 1198 373.5 1222 c 128,-1,18
 314 1246 314 1246 267.5 1288 c 128,-1,19
 221 1330 221 1330 191 1387 c 128,-1,20
 161 1444 161 1444 154 1509 c 1,21,-1
 262 1509 l 1,0,1
EndSplineSet
EndChar

StartChar: dotaccent
Encoding: 729 729 234
Width: 484
GlyphClass: 2
Flags: W
LayerCount: 2
Fore
SplineSet
241 1370 m 0,0,1
 271 1370 271 1370 289.5 1363.5 c 128,-1,2
 308 1357 308 1357 318 1344.5 c 128,-1,3
 328 1332 328 1332 331.5 1313.5 c 128,-1,4
 335 1295 335 1295 335 1271 c 0,5,6
 335 1223 335 1223 316.5 1204 c 128,-1,7
 298 1185 298 1185 241 1185 c 0,8,9
 190 1185 190 1185 169.5 1204 c 128,-1,10
 149 1223 149 1223 149 1271 c 0,11,12
 149 1320 149 1320 168 1345 c 128,-1,13
 187 1370 187 1370 241 1370 c 0,0,1
EndSplineSet
EndChar

StartChar: ring
Encoding: 730 730 235
Width: 701
GlyphClass: 2
Flags: W
LayerCount: 2
Fore
SplineSet
125 1316 m 0,0,1
 125 1351 125 1351 137 1379.5 c 128,-1,2
 149 1408 149 1408 171 1428.5 c 128,-1,3
 193 1449 193 1449 223 1460 c 128,-1,4
 253 1471 253 1471 288 1471 c 0,5,6
 322 1471 322 1471 351.5 1459.5 c 128,-1,7
 381 1448 381 1448 402.5 1427.5 c 128,-1,8
 424 1407 424 1407 436 1378 c 128,-1,9
 448 1349 448 1349 448 1314 c 0,10,11
 448 1278 448 1278 436 1249 c 128,-1,12
 424 1220 424 1220 402 1199.5 c 128,-1,13
 380 1179 380 1179 350.5 1167.5 c 128,-1,14
 321 1156 321 1156 286 1156 c 256,15,16
 251 1156 251 1156 222 1167.5 c 128,-1,17
 193 1179 193 1179 171 1200 c 128,-1,18
 149 1221 149 1221 137 1250.5 c 128,-1,19
 125 1280 125 1280 125 1316 c 0,0,1
204 1316 m 0,20,21
 204 1278 204 1278 224 1254 c 128,-1,22
 244 1230 244 1230 287 1230 c 256,23,24
 330 1230 330 1230 350.5 1254 c 128,-1,25
 371 1278 371 1278 371 1314 c 0,26,27
 371 1351 371 1351 350.5 1375 c 128,-1,28
 330 1399 330 1399 287 1399 c 0,29,30
 245 1399 245 1399 224.5 1375 c 128,-1,31
 204 1351 204 1351 204 1316 c 0,20,21
EndSplineSet
EndChar

StartChar: ogonek
Encoding: 731 731 236
Width: 673
GlyphClass: 2
Flags: W
LayerCount: 2
Fore
SplineSet
482 -233 m 1,0,1
 462 -260 462 -260 437 -281.5 c 128,-1,2
 412 -303 412 -303 384.5 -317 c 128,-1,3
 357 -331 357 -331 328 -338.5 c 128,-1,4
 299 -346 299 -346 272 -346 c 256,5,6
 245 -346 245 -346 222 -339 c 128,-1,7
 199 -332 199 -332 181.5 -317.5 c 128,-1,8
 164 -303 164 -303 154 -281 c 128,-1,9
 144 -259 144 -259 144 -229 c 0,10,11
 144 -203 144 -203 153 -173 c 128,-1,12
 162 -143 162 -143 178 -113 c 128,-1,13
 194 -83 194 -83 215.5 -54 c 128,-1,14
 237 -25 237 -25 263 0 c 1,15,-1
 341 0 l 1,16,17
 307 -49 307 -49 284.5 -96.5 c 128,-1,18
 262 -144 262 -144 262 -179 c 0,19,20
 262 -205 262 -205 277 -220 c 128,-1,21
 292 -235 292 -235 326 -235 c 0,22,23
 358 -235 358 -235 391.5 -221.5 c 128,-1,24
 425 -208 425 -208 455 -188 c 1,25,-1
 482 -233 l 1,0,1
EndSplineSet
EndChar

StartChar: tilde
Encoding: 732 732 237
Width: 1017
GlyphClass: 2
Flags: W
LayerCount: 2
Fore
SplineSet
167 1257 m 1,0,1
 167 1311 167 1311 181 1346.5 c 128,-1,2
 195 1382 195 1382 218.5 1403 c 128,-1,3
 242 1424 242 1424 271.5 1432.5 c 128,-1,4
 301 1441 301 1441 332 1441 c 0,5,6
 361 1441 361 1441 394.5 1427.5 c 128,-1,7
 428 1414 428 1414 458.5 1398.5 c 128,-1,8
 489 1383 489 1383 514.5 1369.5 c 128,-1,9
 540 1356 540 1356 552 1356 c 0,10,11
 581 1356 581 1356 592 1379 c 128,-1,12
 603 1402 603 1402 605 1440 c 1,13,-1
 717 1440 l 1,14,15
 717 1387 717 1387 703.5 1351.5 c 128,-1,16
 690 1316 690 1316 668.5 1294.5 c 128,-1,17
 647 1273 647 1273 618.5 1264 c 128,-1,18
 590 1255 590 1255 559 1255 c 0,19,20
 527 1255 527 1255 497.5 1265 c 128,-1,21
 468 1275 468 1275 436 1295 c 0,22,23
 398 1318 398 1318 375.5 1330.5 c 128,-1,24
 353 1343 353 1343 334 1343 c 0,25,26
 305 1343 305 1343 292.5 1319 c 128,-1,27
 280 1295 280 1295 280 1257 c 1,28,-1
 167 1257 l 1,0,1
EndSplineSet
EndChar

StartChar: hungarumlaut
Encoding: 733 733 238
Width: 1001
GlyphClass: 2
Flags: W
LayerCount: 2
Fore
SplineSet
524 1432 m 1,0,-1
 217 1194 l 1,1,-1
 154 1272 l 1,2,-1
 432 1534 l 1,3,-1
 524 1432 l 1,0,-1
848 1432 m 1,4,-1
 541 1194 l 1,5,-1
 477 1272 l 1,6,-1
 756 1534 l 1,7,-1
 848 1432 l 1,4,-1
EndSplineSet
EndChar

StartChar: uni030F
Encoding: 783 783 239
Width: 1001
GlyphClass: 2
Flags: W
LayerCount: 2
Fore
SplineSet
570 1534 m 1,0,-1
 848 1272 l 1,1,-1
 785 1194 l 1,2,-1
 478 1432 l 1,3,-1
 570 1534 l 1,0,-1
246 1534 m 1,4,-1
 525 1272 l 1,5,-1
 461 1194 l 1,6,-1
 154 1432 l 1,7,-1
 246 1534 l 1,4,-1
EndSplineSet
EndChar

StartChar: uni0311
Encoding: 785 785 240
Width: 997
GlyphClass: 2
Flags: W
LayerCount: 2
Fore
SplineSet
154 1198 m 1,0,1
 161 1263 161 1263 191 1320 c 128,-1,2
 221 1377 221 1377 267.5 1419 c 128,-1,3
 314 1461 314 1461 373.5 1485 c 128,-1,4
 433 1509 433 1509 498 1509 c 0,5,6
 564 1509 564 1509 623.5 1485 c 128,-1,7
 683 1461 683 1461 729.5 1419 c 128,-1,8
 776 1377 776 1377 806.5 1320 c 128,-1,9
 837 1263 837 1263 844 1198 c 1,10,-1
 733 1198 l 1,11,12
 725 1240 725 1240 703.5 1275.5 c 128,-1,13
 682 1311 682 1311 650.5 1337 c 128,-1,14
 619 1363 619 1363 580 1377.5 c 128,-1,15
 541 1392 541 1392 498 1392 c 0,16,17
 456 1392 456 1392 416.5 1377.5 c 128,-1,18
 377 1363 377 1363 345.5 1337 c 128,-1,19
 314 1311 314 1311 292 1275.5 c 128,-1,20
 270 1240 270 1240 262 1198 c 1,21,-1
 154 1198 l 1,0,1
EndSplineSet
EndChar

StartChar: uni0326
Encoding: 806 806 241
Width: 474
GlyphClass: 2
Flags: W
LayerCount: 2
Fore
SplineSet
148 185 m 1,0,-1
 328 185 l 1,1,-1
 328 -6 l 2,2,3
 328 -52 328 -52 311.5 -90 c 128,-1,4
 295 -128 295 -128 272 -157 c 128,-1,5
 249 -186 249 -186 224.5 -205.5 c 128,-1,6
 200 -225 200 -225 185 -235 c 1,7,-1
 142 -174 l 1,8,9
 152 -162 152 -162 166.5 -145 c 128,-1,10
 181 -128 181 -128 194.5 -107 c 128,-1,11
 208 -86 208 -86 217.5 -62 c 128,-1,12
 227 -38 227 -38 227 -11 c 1,13,-1
 148 -11 l 1,14,-1
 148 185 l 1,0,-1
EndSplineSet
EndChar

StartChar: pi
Encoding: 960 960 242
Width: 1425
GlyphClass: 2
Flags: W
LayerCount: 2
Fore
SplineSet
1157 989 m 1,0,-1
 1157 338 l 2,1,2
 1157 264 1157 264 1160 210.5 c 128,-1,3
 1163 157 1163 157 1168 117.5 c 128,-1,4
 1173 78 1173 78 1179.5 50 c 128,-1,5
 1186 22 1186 22 1192 0 c 1,6,-1
 1036 0 l 1,7,8
 1027 12 1027 12 1019.5 35.5 c 128,-1,9
 1012 59 1012 59 1006.5 97 c 128,-1,10
 1001 135 1001 135 998 188.5 c 128,-1,11
 995 242 995 242 995 315 c 2,12,-1
 995 989 l 1,13,-1
 512 989 l 1,14,15
 508 917 508 917 498.5 828.5 c 128,-1,16
 489 740 489 740 476 645.5 c 128,-1,17
 463 551 463 551 446 456 c 128,-1,18
 429 361 429 361 409.5 275 c 128,-1,19
 390 189 390 189 368.5 117.5 c 128,-1,20
 347 46 347 46 325 0 c 1,21,-1
 166 0 l 1,22,23
 189 55 189 55 211 129 c 128,-1,24
 233 203 233 203 252.5 288.5 c 128,-1,25
 272 374 272 374 289 466 c 128,-1,26
 306 558 306 558 318.5 649.5 c 128,-1,27
 331 741 331 741 339.5 828 c 128,-1,28
 348 915 348 915 352 989 c 1,29,30
 290 989 290 989 244 987 c 128,-1,31
 198 985 198 985 164 980.5 c 128,-1,32
 130 976 130 976 105 970 c 128,-1,33
 80 964 80 964 59 956 c 1,34,-1
 32 1057 l 1,35,36
 56 1070 56 1070 87.5 1081 c 128,-1,37
 119 1092 119 1092 161 1099.5 c 128,-1,38
 203 1107 203 1107 257.5 1111.5 c 128,-1,39
 312 1116 312 1116 383 1116 c 2,40,-1
 1384 1116 l 1,41,-1
 1368 989 l 1,42,-1
 1157 989 l 1,0,-1
EndSplineSet
EndChar

StartChar: endash
Encoding: 8211 8211 243
Width: 974
GlyphClass: 2
Flags: W
LayerCount: 2
Fore
SplineSet
123 575 m 1,0,-1
 123 684 l 1,1,-1
 852 684 l 1,2,-1
 852 575 l 1,3,-1
 123 575 l 1,0,-1
EndSplineSet
EndChar

StartChar: emdash
Encoding: 8212 8212 244
Width: 1160
GlyphClass: 2
Flags: W
LayerCount: 2
Fore
SplineSet
123 575 m 1,0,-1
 123 684 l 1,1,-1
 1037 684 l 1,2,-1
 1037 575 l 1,3,-1
 123 575 l 1,0,-1
EndSplineSet
EndChar

StartChar: quoteleft
Encoding: 8216 8216 245
Width: 440
GlyphClass: 2
Flags: W
LayerCount: 2
Fore
SplineSet
127 1183 m 1,0,1
 127 1235 127 1235 139 1277 c 128,-1,2
 151 1319 151 1319 168.5 1350.5 c 128,-1,3
 186 1382 186 1382 206.5 1404 c 128,-1,4
 227 1426 227 1426 244 1439 c 1,5,-1
 294 1386 l 1,6,7
 286 1373 286 1373 275 1360.5 c 128,-1,8
 264 1348 264 1348 253.5 1331 c 128,-1,9
 243 1314 243 1314 236 1290 c 128,-1,10
 229 1266 229 1266 228 1230 c 1,11,-1
 310 1230 l 1,12,-1
 310 1033 l 1,13,-1
 135 1033 l 1,14,-1
 127 1183 l 1,0,1
EndSplineSet
EndChar

StartChar: quoteright
Encoding: 8217 8217 246
Width: 414
GlyphClass: 2
Flags: W
LayerCount: 2
Fore
SplineSet
304 1290 m 1,0,1
 304 1238 304 1238 292 1196 c 128,-1,2
 280 1154 280 1154 262.5 1122.5 c 128,-1,3
 245 1091 245 1091 224.5 1069 c 128,-1,4
 204 1047 204 1047 187 1034 c 1,5,-1
 137 1087 l 1,6,7
 145 1100 145 1100 156 1112.5 c 128,-1,8
 167 1125 167 1125 177.5 1142 c 128,-1,9
 188 1159 188 1159 195 1183 c 128,-1,10
 202 1207 202 1207 203 1243 c 1,11,-1
 121 1243 l 1,12,-1
 121 1440 l 1,13,-1
 296 1440 l 1,14,-1
 304 1290 l 1,0,1
EndSplineSet
EndChar

StartChar: quotesinglbase
Encoding: 8218 8218 247
Width: 467
GlyphClass: 2
Flags: W
LayerCount: 2
Fore
SplineSet
144 195 m 1,0,-1
 324 195 l 1,1,-1
 324 4 l 2,2,3
 324 -42 324 -42 307.5 -80 c 128,-1,4
 291 -118 291 -118 268 -147 c 128,-1,5
 245 -176 245 -176 220.5 -195.5 c 128,-1,6
 196 -215 196 -215 181 -225 c 1,7,-1
 138 -164 l 1,8,9
 148 -152 148 -152 162.5 -135 c 128,-1,10
 177 -118 177 -118 190.5 -97 c 128,-1,11
 204 -76 204 -76 213.5 -52 c 128,-1,12
 223 -28 223 -28 223 -1 c 1,13,-1
 144 -1 l 1,14,-1
 144 195 l 1,0,-1
EndSplineSet
EndChar

StartChar: quotedblleft
Encoding: 8220 8220 248
Width: 746
GlyphClass: 2
Flags: W
LayerCount: 2
Fore
SplineSet
126 1181 m 1,0,1
 126 1233 126 1233 138 1275.5 c 128,-1,2
 150 1318 150 1318 167.5 1350 c 128,-1,3
 185 1382 185 1382 205.5 1404.5 c 128,-1,4
 226 1427 226 1427 243 1439 c 1,5,-1
 295 1387 l 1,6,7
 286 1374 286 1374 275 1361 c 128,-1,8
 264 1348 264 1348 254 1331 c 128,-1,9
 244 1314 244 1314 236.5 1290 c 128,-1,10
 229 1266 229 1266 229 1231 c 1,11,-1
 311 1231 l 1,12,-1
 311 1036 l 1,13,-1
 134 1036 l 1,14,-1
 126 1181 l 1,0,1
432 1184 m 1,15,16
 432 1234 432 1234 444.5 1275 c 128,-1,17
 457 1316 457 1316 475 1347.5 c 128,-1,18
 493 1379 493 1379 514 1402 c 128,-1,19
 535 1425 535 1425 552 1439 c 1,20,-1
 602 1388 l 1,21,22
 595 1377 595 1377 584.5 1364 c 128,-1,23
 574 1351 574 1351 564 1333 c 128,-1,24
 554 1315 554 1315 546.5 1290 c 128,-1,25
 539 1265 539 1265 538 1230 c 1,26,-1
 616 1230 l 1,27,-1
 616 1036 l 1,28,-1
 440 1036 l 1,29,-1
 432 1184 l 1,15,16
EndSplineSet
EndChar

StartChar: quotedblright
Encoding: 8221 8221 249
Width: 723
GlyphClass: 2
Flags: W
LayerCount: 2
Fore
SplineSet
612 1295 m 1,0,1
 612 1242 612 1242 600 1200 c 128,-1,2
 588 1158 588 1158 570.5 1126 c 128,-1,3
 553 1094 553 1094 532.5 1071.5 c 128,-1,4
 512 1049 512 1049 495 1037 c 1,5,-1
 443 1089 l 1,6,7
 452 1102 452 1102 463 1115 c 128,-1,8
 474 1128 474 1128 484 1145 c 128,-1,9
 494 1162 494 1162 501.5 1186 c 128,-1,10
 509 1210 509 1210 509 1245 c 1,11,-1
 427 1245 l 1,12,-1
 427 1440 l 1,13,-1
 604 1440 l 1,14,-1
 612 1295 l 1,0,1
306 1292 m 1,15,16
 306 1242 306 1242 293.5 1201 c 128,-1,17
 281 1160 281 1160 263 1128.5 c 128,-1,18
 245 1097 245 1097 224 1074 c 128,-1,19
 203 1051 203 1051 186 1037 c 1,20,-1
 136 1088 l 1,21,22
 143 1099 143 1099 153.5 1112 c 128,-1,23
 164 1125 164 1125 174 1143 c 128,-1,24
 184 1161 184 1161 191.5 1186 c 128,-1,25
 199 1211 199 1211 200 1246 c 1,26,-1
 122 1246 l 1,27,-1
 122 1440 l 1,28,-1
 298 1440 l 1,29,-1
 306 1292 l 1,15,16
EndSplineSet
EndChar

StartChar: quotedblbase
Encoding: 8222 8222 250
Width: 745
GlyphClass: 2
Flags: W
LayerCount: 2
Fore
SplineSet
422 195 m 1,0,-1
 602 195 l 1,1,-1
 602 4 l 2,2,3
 602 -42 602 -42 585.5 -80 c 128,-1,4
 569 -118 569 -118 546 -147 c 128,-1,5
 523 -176 523 -176 498.5 -195.5 c 128,-1,6
 474 -215 474 -215 459 -225 c 1,7,-1
 416 -164 l 1,8,9
 426 -152 426 -152 440.5 -135 c 128,-1,10
 455 -118 455 -118 468.5 -97 c 128,-1,11
 482 -76 482 -76 491.5 -52 c 128,-1,12
 501 -28 501 -28 501 -1 c 1,13,-1
 422 -1 l 1,14,-1
 422 195 l 1,0,-1
144 195 m 1,15,-1
 324 195 l 1,16,-1
 324 4 l 2,17,18
 324 -42 324 -42 307.5 -80 c 128,-1,19
 291 -118 291 -118 268 -147 c 128,-1,20
 245 -176 245 -176 220.5 -195.5 c 128,-1,21
 196 -215 196 -215 181 -225 c 1,22,-1
 138 -164 l 1,23,24
 148 -152 148 -152 162.5 -135 c 128,-1,25
 177 -118 177 -118 190.5 -97 c 128,-1,26
 204 -76 204 -76 213.5 -52 c 128,-1,27
 223 -28 223 -28 223 -1 c 1,28,-1
 144 -1 l 1,29,-1
 144 195 l 1,15,-1
EndSplineSet
EndChar

StartChar: dagger
Encoding: 8224 8224 251
Width: 889
GlyphClass: 2
Flags: W
LayerCount: 2
Fore
SplineSet
364 1428 m 1,0,-1
 531 1428 l 1,1,-1
 531 997 l 1,2,-1
 818 997 l 1,3,-1
 818 873 l 1,4,-1
 531 873 l 1,5,-1
 531 -232 l 1,6,-1
 364 -232 l 1,7,-1
 364 873 l 1,8,-1
 71 873 l 1,9,-1
 71 997 l 1,10,-1
 364 997 l 1,11,-1
 364 1428 l 1,0,-1
EndSplineSet
EndChar

StartChar: daggerdbl
Encoding: 8225 8225 252
Width: 959
GlyphClass: 2
Flags: W
LayerCount: 2
Fore
SplineSet
400 1429 m 1,0,-1
 556 1429 l 1,1,-1
 556 1014 l 1,2,-1
 851 1014 l 1,3,-1
 851 889 l 1,4,-1
 556 889 l 1,5,-1
 556 307 l 1,6,-1
 851 307 l 1,7,-1
 851 184 l 1,8,-1
 556 184 l 1,9,-1
 556 -236 l 1,10,-1
 400 -236 l 1,11,-1
 400 184 l 1,12,-1
 108 184 l 1,13,-1
 108 307 l 1,14,-1
 400 307 l 1,15,-1
 400 889 l 1,16,-1
 108 889 l 1,17,-1
 108 1014 l 1,18,-1
 400 1014 l 1,19,-1
 400 1429 l 1,0,-1
EndSplineSet
EndChar

StartChar: bullet
Encoding: 8226 8226 253
Width: 855
GlyphClass: 2
Flags: W
LayerCount: 2
Fore
SplineSet
103 616 m 0,0,1
 103 677 103 677 128.5 732.5 c 128,-1,2
 154 788 154 788 197.5 830 c 128,-1,3
 241 872 241 872 299 897 c 128,-1,4
 357 922 357 922 423 922 c 0,5,6
 491 922 491 922 551 896.5 c 128,-1,7
 611 871 611 871 655.5 828 c 128,-1,8
 700 785 700 785 726 728 c 128,-1,9
 752 671 752 671 752 608 c 0,10,11
 752 543 752 543 726.5 487 c 128,-1,12
 701 431 701 431 657 390 c 128,-1,13
 613 349 613 349 555 325.5 c 128,-1,14
 497 302 497 302 432 302 c 0,15,16
 363 302 363 302 302.5 327.5 c 128,-1,17
 242 353 242 353 198 396 c 128,-1,18
 154 439 154 439 128.5 496 c 128,-1,19
 103 553 103 553 103 616 c 0,0,1
EndSplineSet
EndChar

StartChar: ellipsis
Encoding: 8230 8230 254
Width: 1790
GlyphClass: 2
Flags: W
LayerCount: 2
Fore
SplineSet
141 221 m 1,0,-1
 352 221 l 1,1,-1
 352 0 l 1,2,-1
 141 0 l 1,3,-1
 141 221 l 1,0,-1
789 221 m 1,4,-1
 1000 221 l 1,5,-1
 1000 0 l 1,6,-1
 789 0 l 1,7,-1
 789 221 l 1,4,-1
1437 221 m 1,8,-1
 1648 221 l 1,9,-1
 1648 0 l 1,10,-1
 1437 0 l 1,11,-1
 1437 221 l 1,8,-1
EndSplineSet
EndChar

StartChar: perthousand
Encoding: 8240 8240 255
Width: 2205
GlyphClass: 2
Flags: W
LayerCount: 2
Fore
SplineSet
1854 698 m 0,0,1
 1922 698 1922 698 1974 673 c 128,-1,2
 2026 648 2026 648 2061.5 603.5 c 128,-1,3
 2097 559 2097 559 2115 498.5 c 128,-1,4
 2133 438 2133 438 2133 366 c 0,5,6
 2133 296 2133 296 2115 236 c 128,-1,7
 2097 176 2097 176 2061.5 132.5 c 128,-1,8
 2026 89 2026 89 1974 64 c 128,-1,9
 1922 39 1922 39 1854 39 c 0,10,11
 1783 39 1783 39 1730 63 c 128,-1,12
 1677 87 1677 87 1642 131 c 128,-1,13
 1607 175 1607 175 1589 235.5 c 128,-1,14
 1571 296 1571 296 1571 370 c 0,15,16
 1571 442 1571 442 1589 502 c 128,-1,17
 1607 562 1607 562 1642.5 605.5 c 128,-1,18
 1678 649 1678 649 1731 673.5 c 128,-1,19
 1784 698 1784 698 1854 698 c 0,0,1
1853 595 m 0,20,21
 1808 595 1808 595 1779 575.5 c 128,-1,22
 1750 556 1750 556 1733 525 c 128,-1,23
 1716 494 1716 494 1709 455 c 128,-1,24
 1702 416 1702 416 1702 378 c 0,25,26
 1702 334 1702 334 1708.5 291.5 c 128,-1,27
 1715 249 1715 249 1732 215.5 c 128,-1,28
 1749 182 1749 182 1778 161.5 c 128,-1,29
 1807 141 1807 141 1852 141 c 0,30,31
 1896 141 1896 141 1925 161.5 c 128,-1,32
 1954 182 1954 182 1971 214.5 c 128,-1,33
 1988 247 1988 247 1994.5 287 c 128,-1,34
 2001 327 2001 327 2001 367 c 256,35,36
 2001 407 2001 407 1994.5 448 c 128,-1,37
 1988 489 1988 489 1971 521.5 c 128,-1,38
 1954 554 1954 554 1925.5 574.5 c 128,-1,39
 1897 595 1897 595 1853 595 c 0,20,21
354 1392 m 0,40,41
 423 1392 423 1392 475.5 1367.5 c 128,-1,42
 528 1343 528 1343 563.5 1299.5 c 128,-1,43
 599 1256 599 1256 616.5 1195.5 c 128,-1,44
 634 1135 634 1135 634 1063 c 256,45,46
 634 991 634 991 616.5 930.5 c 128,-1,47
 599 870 599 870 563.5 826 c 128,-1,48
 528 782 528 782 476 757.5 c 128,-1,49
 424 733 424 733 355 733 c 0,50,51
 285 733 285 733 232 757 c 128,-1,52
 179 781 179 781 143 824.5 c 128,-1,53
 107 868 107 868 89 928.5 c 128,-1,54
 71 989 71 989 71 1061 c 256,55,56
 71 1133 71 1133 89 1194 c 128,-1,57
 107 1255 107 1255 142.5 1299 c 128,-1,58
 178 1343 178 1343 231 1367.5 c 128,-1,59
 284 1392 284 1392 354 1392 c 0,40,41
354 1290 m 256,60,61
 310 1290 310 1290 281 1270 c 128,-1,62
 252 1250 252 1250 235 1218 c 128,-1,63
 218 1186 218 1186 211 1146.5 c 128,-1,64
 204 1107 204 1107 204 1069 c 0,65,66
 204 1025 204 1025 210.5 983 c 128,-1,67
 217 941 217 941 233.5 908 c 128,-1,68
 250 875 250 875 279.5 855 c 128,-1,69
 309 835 309 835 354 835 c 0,70,71
 397 835 397 835 425.5 855 c 128,-1,72
 454 875 454 875 471 907.5 c 128,-1,73
 488 940 488 940 494.5 980 c 128,-1,74
 501 1020 501 1020 501 1061 c 0,75,76
 501 1103 501 1103 494.5 1144 c 128,-1,77
 488 1185 488 1185 471.5 1217.5 c 128,-1,78
 455 1250 455 1250 426.5 1270 c 128,-1,79
 398 1290 398 1290 354 1290 c 256,60,61
986 1390 m 1,80,-1
 1092 1349 l 1,81,-1
 517 -70 l 1,82,-1
 410 -28 l 1,83,-1
 986 1390 l 1,80,-1
1171 698 m 0,84,85
 1239 698 1239 698 1291 673 c 128,-1,86
 1343 648 1343 648 1378.5 603.5 c 128,-1,87
 1414 559 1414 559 1432 498.5 c 128,-1,88
 1450 438 1450 438 1450 366 c 0,89,90
 1450 296 1450 296 1432 236 c 128,-1,91
 1414 176 1414 176 1378.5 132.5 c 128,-1,92
 1343 89 1343 89 1291 64 c 128,-1,93
 1239 39 1239 39 1171 39 c 0,94,95
 1100 39 1100 39 1047 63 c 128,-1,96
 994 87 994 87 959 131 c 128,-1,97
 924 175 924 175 906 235.5 c 128,-1,98
 888 296 888 296 888 370 c 0,99,100
 888 442 888 442 906 502 c 128,-1,101
 924 562 924 562 959.5 605.5 c 128,-1,102
 995 649 995 649 1048 673.5 c 128,-1,103
 1101 698 1101 698 1171 698 c 0,84,85
1170 595 m 0,104,105
 1125 595 1125 595 1096 575.5 c 128,-1,106
 1067 556 1067 556 1050 525 c 128,-1,107
 1033 494 1033 494 1026 455 c 128,-1,108
 1019 416 1019 416 1019 378 c 0,109,110
 1019 334 1019 334 1025.5 291.5 c 128,-1,111
 1032 249 1032 249 1049 215.5 c 128,-1,112
 1066 182 1066 182 1095 161.5 c 128,-1,113
 1124 141 1124 141 1169 141 c 0,114,115
 1213 141 1213 141 1242 161.5 c 128,-1,116
 1271 182 1271 182 1288 214.5 c 128,-1,117
 1305 247 1305 247 1311.5 287 c 128,-1,118
 1318 327 1318 327 1318 367 c 256,119,120
 1318 407 1318 407 1311.5 448 c 128,-1,121
 1305 489 1305 489 1288 521.5 c 128,-1,122
 1271 554 1271 554 1242.5 574.5 c 128,-1,123
 1214 595 1214 595 1170 595 c 0,104,105
EndSplineSet
EndChar

StartChar: guilsinglleft
Encoding: 8249 8249 256
Width: 642
GlyphClass: 2
Flags: W
LayerCount: 2
Fore
SplineSet
398 1106 m 1,0,-1
 539 1038 l 1,1,-1
 241 662 l 1,2,-1
 539 286 l 1,3,-1
 398 218 l 1,4,-1
 80 609 l 1,5,-1
 80 715 l 1,6,-1
 398 1106 l 1,0,-1
EndSplineSet
EndChar

StartChar: guilsinglright
Encoding: 8250 8250 257
Width: 642
GlyphClass: 2
Flags: W
LayerCount: 2
Fore
SplineSet
561 715 m 1,0,-1
 561 609 l 1,1,-1
 243 218 l 1,2,-1
 102 286 l 1,3,-1
 400 662 l 1,4,-1
 102 1038 l 1,5,-1
 243 1106 l 1,6,-1
 561 715 l 1,0,-1
EndSplineSet
EndChar

StartChar: fraction
Encoding: 8260 8260 258
Width: 724
GlyphClass: 2
Flags: W
LayerCount: 2
Fore
SplineSet
615 1644 m 1,0,-1
 719 1627 l 1,1,-1
 107 -17 l 1,2,-1
 4 1 l 1,3,-1
 615 1644 l 1,0,-1
EndSplineSet
EndChar

StartChar: foursuperior
Encoding: 8308 8308 259
Width: 837
GlyphClass: 2
Flags: W
LayerCount: 2
Fore
SplineSet
498 1159 m 1,0,-1
 163 613 l 1,1,-1
 498 613 l 1,2,-1
 498 1159 l 1,0,-1
478 1310 m 1,3,-1
 615 1295 l 1,4,-1
 615 615 l 1,5,-1
 757 615 l 1,6,-1
 757 516 l 1,7,-1
 615 516 l 1,8,-1
 615 300 l 1,9,-1
 498 300 l 1,10,-1
 498 516 l 1,11,-1
 75 516 l 1,12,-1
 64 645 l 1,13,-1
 478 1310 l 1,3,-1
EndSplineSet
EndChar

StartChar: Euro
Encoding: 8364 8364 260
Width: 1425
GlyphClass: 2
Flags: W
LayerCount: 2
Fore
SplineSet
352 767 m 1,0,-1
 352 714 l 2,1,2
 352 691 352 691 352 668.5 c 128,-1,3
 352 646 352 646 354 626 c 1,4,-1
 818 626 l 1,5,-1
 818 515 l 1,6,-1
 364 515 l 1,7,8
 372 454 372 454 384 407.5 c 128,-1,9
 396 361 396 361 409.5 327 c 128,-1,10
 423 293 423 293 436.5 270 c 128,-1,11
 450 247 450 247 462 234 c 1,12,13
 481 210 481 210 513 187.5 c 128,-1,14
 545 165 545 165 587.5 148 c 128,-1,15
 630 131 630 131 682.5 120.5 c 128,-1,16
 735 110 735 110 797 110 c 0,17,18
 860 110 860 110 909.5 117.5 c 128,-1,19
 959 125 959 125 995.5 136 c 128,-1,20
 1032 147 1032 147 1055.5 159 c 128,-1,21
 1079 171 1079 171 1091 180 c 0,22,23
 1097 184 1097 184 1109 195 c 128,-1,24
 1121 206 1121 206 1135 224.5 c 128,-1,25
 1149 243 1149 243 1163.5 270.5 c 128,-1,26
 1178 298 1178 298 1189 336 c 1,27,-1
 1319 277 l 1,28,29
 1306 226 1306 226 1287.5 188 c 128,-1,30
 1269 150 1269 150 1249.5 123.5 c 128,-1,31
 1230 97 1230 97 1211.5 80.5 c 128,-1,32
 1193 64 1193 64 1180 55 c 0,33,34
 1169 47 1169 47 1140 31.5 c 128,-1,35
 1111 16 1111 16 1063.5 0.5 c 128,-1,36
 1016 -15 1016 -15 949.5 -27 c 128,-1,37
 883 -39 883 -39 797 -39 c 0,38,39
 702 -39 702 -39 628 -22 c 128,-1,40
 554 -5 554 -5 498.5 19.5 c 128,-1,41
 443 44 443 44 406.5 71 c 128,-1,42
 370 98 370 98 350 118 c 0,43,44
 295 171 295 171 250 272 c 128,-1,45
 205 373 205 373 185 515 c 1,46,-1
 85 515 l 1,47,-1
 85 626 l 1,48,-1
 174 626 l 1,49,50
 172 644 172 644 172 662 c 128,-1,51
 172 680 172 680 172 699 c 0,52,53
 172 716 172 716 172 733 c 128,-1,54
 172 750 172 750 173 767 c 1,55,-1
 85 767 l 1,56,-1
 85 876 l 1,57,-1
 181 876 l 1,58,59
 191 962 191 962 209 1029 c 128,-1,60
 227 1096 227 1096 248.5 1146.5 c 128,-1,61
 270 1197 270 1197 292.5 1232 c 128,-1,62
 315 1267 315 1267 334 1289 c 0,63,64
 356 1316 356 1316 396 1348 c 128,-1,65
 436 1380 436 1380 493.5 1407.5 c 128,-1,66
 551 1435 551 1435 627 1453.5 c 128,-1,67
 703 1472 703 1472 798 1472 c 0,68,69
 888 1472 888 1472 957 1458.5 c 128,-1,70
 1026 1445 1026 1445 1075.5 1426.5 c 128,-1,71
 1125 1408 1125 1408 1155 1389 c 128,-1,72
 1185 1370 1185 1370 1196 1360 c 0,73,74
 1208 1349 1208 1349 1224.5 1331.5 c 128,-1,75
 1241 1314 1241 1314 1257.5 1289 c 128,-1,76
 1274 1264 1274 1264 1289 1230.5 c 128,-1,77
 1304 1197 1304 1197 1314 1155 c 1,78,-1
 1178 1100 l 1,79,80
 1158 1169 1158 1169 1126.5 1211 c 128,-1,81
 1095 1253 1095 1253 1063 1269 c 0,82,83
 1056 1272 1056 1272 1036.5 1281 c 128,-1,84
 1017 1290 1017 1290 984.5 1299 c 128,-1,85
 952 1308 952 1308 906.5 1315 c 128,-1,86
 861 1322 861 1322 801 1322 c 0,87,88
 733 1322 733 1322 680.5 1310.5 c 128,-1,89
 628 1299 628 1299 589 1282 c 128,-1,90
 550 1265 550 1265 523.5 1245.5 c 128,-1,91
 497 1226 497 1226 482 1211 c 0,92,93
 465 1195 465 1195 446.5 1167.5 c 128,-1,94
 428 1140 428 1140 411.5 1099 c 128,-1,95
 395 1058 395 1058 381 1003 c 128,-1,96
 367 948 367 948 360 876 c 1,97,-1
 818 876 l 1,98,-1
 818 767 l 1,99,-1
 352 767 l 1,0,-1
EndSplineSet
EndChar

